<mxfile host="65bd71144e">
    <diagram id="tFRssRisFHUpGStHO_K5" name="第 1 页">
        <mxGraphModel dx="856" dy="619" grid="1" gridSize="10" guides="1" tooltips="1" connect="1" arrows="1" fold="1" page="1" pageScale="1" pageWidth="850" pageHeight="1100" math="0" shadow="0">
            <root>
                <mxCell id="0"/>
                <mxCell id="1" parent="0"/>
                <mxCell id="3" value="" style="shape=image;verticalLabelPosition=bottom;labelBackgroundColor=default;verticalAlign=top;aspect=fixed;imageAspect=0;image=data:image/png,iVBORw0KGgoAAAANSUhEUgAAAggAAAE7CAYAAAC4+nn9AAAAAXNSR0IArs4c6QAAIABJREFUeF7snQecFVWyxv/dfe+dxAw5S07qQ4wkAxgQiZKj5JxzGHLOOSNJkmAkI6AIKEmJiooKopJzmmHCTd3vV6fvALrugvt2eQp9/bELM307VJ9T56uvvqqjWZZl4XwcCzgWcCzgWMCxgGMBxwK3WUBzAIIzHhwLOBZwLOBYwLGAY4HfW8ABCM6YcCzgWMCxgGMBxwKOBf7BAg5AcAaFYwHHAo4FHAs4FnAs4AAEZww4FnAs4FjAsYBjAccCd7aAwyDc2UbOEY4FHAs4FnAs4FjggbOAAxAeuFfuPLBjAccCjgUcCzgWuLMFHIBwZxs5RzgWcCzgWMCxgGOBB84CDkB44F6588COBRwLOBZwLOBY4M4WcADCnW3kHOFYwLGAYwHHAo4FHjgLOADhgXvlzgM7FnAs4FjAsYBjgTtbwAEId7aRc4RjAccCjgUcCzgWeOAs4ACEB+6VOw/sWMCxgGMBxwKOBe5sAQcg3NlGzhGOBRwLOBZwLOBY4IGzgAMQHrhX7jywYwHHAo4FHAs4FrizBRyAcGcbOUc4FnAs4FjAsYBjgQfOAg5AeOBeufPAjgUcCzgWcCzgWODOFnAAwp1t5BzhWMCxgGMBxwKOBR44CzgA4YF75c4DOxZwLOBYwLGAY4E7W8ABCHe2kXOEYwHHAo4FHAs4FnjgLOAAhAfulTsP7FjAsYBjAccCjgXubAEHINzZRs4RjgUcCzgWcCzgWOCBs4ADEB64V+48sGMBxwKOBRwLOBa4swUcgHBnGzlHOBZwLOBYwLGAY4EHzgIOQHjgXrnzwI4FHAs4FnAs4FjgzhZwAMKdbeQc4VjAsYBjAccCjgUeOAs4AOGBe+XOAzsWcCzgWMCxgGOBO1vAAQh3tpFzhGMBxwL3oQUsQLsPn8t5JMcC/ykLOADhP2XJv9J5xPPJn9s+lgba39wbWuqZLLSbD5LykHd+sN+Z4ze2uflt87Yfyw/vfNq/0lt37uUuLHD7OJDXfftr/rOv+/ejz7IHqPrcHKNyEf1f3Nidfn8Xz/RXP+Rfzb0UkPYPtldz0QI95Td3P9f/6vb4O92fAxD+Tm/r37zXP3Rc/+a57uXX7mmEd08vdi+t6Fzrjyxw+6J1cwkKLfC3AOi/tp0zZJyxdb9bwAEI9/sb/hs/3+8jjz8b4f2GQbktursZ5f3+Ajejlb+x0Zxb/9cWMO2XLozav/rcLUj4Z+dw4t1blrGsYOgf/0ilaAplCb15i/T8v8xzZ/j/Zy3gAIT/rD3/QmezsP+Tuaf/Ldnyf0ZN3u5AhB35M878X7MpZsheTn7hLzSQ/6O3Yi9Wv12obh8/MgL+r7Plj9iJ/+hD/O1O9o+5u1vz0J7NghHuaDcB+X/3POnf7N05AOFv9sLudLumaaLrOjIBLczQ4mk7xJsL6/8xvLn9Gn9mcb7Tvf/R75UjCTmFFDBwixK2v3E3PiMUN960gpVip5sXtUDZTOyk/SnQ8e88l/Od/x8LyJwIjRr1nlM+KW9exrah/yvRwL++79vH62/m3O++9meBrXz93/nO/4+Vf3vV222eYvvbj0h5C6aA/Zto4XfA///os/4Kdvg73oMDEG57a3/XCXj7wFMOStZUXcNUdKqFFnJ4twCChSW/E0o9dOzdDt4UG4kjlY+Akf/mR92nBj6/D7fboxbu3zIIdwcQgpYNluS+5Qy6pv8mapEFQrNunTsYDCr+xeVy/Tcfzzn3PbaASdAGgLexCMGghW5oIVBtYWj/3piWMaPrxs1x9YdgIyRcUADesv70/LmX4Pw/9WqCVgBdMwR/q/mnG8LR3JrF8jf1c023Wc8QK/gPwYcj+vhPvZK7Po8DEO7aVH+PA8VJGaHJKJF1QP7tNm5NR9OegGqh1DTl0P5MhUOKg7onEY04lJDzDppB5VhSeJA/m6cU6jgQCGBoLgTTpDif39CaikSQ/9GQNcIf8ON2u/8eL965y7uyQFABhFsLlL04hcTyf3JQ3b5epSz4mqbj9wfweFxqQbzJbt3GsgeDobnnskHJ3bBwvz/ubr93V0b5Lx+kfJIhACG0+P9BUKGJfUxbG6IZoXn4u2Dgv3ybzun/wAIOQLjPhoUlk0wt/nYm1RIVkB7C6zahoP6kaIPsg+5QivU7luV2FkEm/n/tI+liE0wtFOEpuiOUs/yTF00BRMoD3e64Q8GiAgrqehZaKJpUjvvfCyb/5N05h98rCwiDIC9VzY6U+SBTQN67rtnz4i7f+W9Ybxmnv1/s5d9GCHXIAphyPT2ULjBsRutuWTgrBCxu2uqPcmt/EuTcE7sHbj2vCiz+yMZyjLwDl8186q6/4oPcE2v9pS5y/wOEO9W2h5CrWihvBah/8JL+Gb/1mzjiptDmt0T43b1zRaeboej2Lu7FzptK3u62VS7khL7d9w158+UjIjoCLSw02eR3ylFZnD9znkh3JFHpoxViv+nI/vBW7We0hUUa4qhMv2kzE/9M+Z8CRFKcpLrFFH71n/UYuBXPC9BJvprMiV9PUKhwIXCHwM5tTvGPXcg/eU9BlURQAODglwd4+JFHiIyJBME3KQDJgvgr8fxy9BeKPFFEXVOZVk855y2Nwt290Qf0qJtMzG1j+femuBkx2guzTXHdiUP+/fi50/G3X9QeWyYmurz0lMXahF9+/EWll3LnzwWyMMmYuIv16bb13p5XwI/f/kjqqBiy5MiKpdsL3k3ZgwVxV+O4cv4KOfPnQpPslcy9P7zY755Nou8g+BKTCYuIwJKUmWLUQp8UoC+4R/xISurwN37k1jj+1w/4R3b9rZ+zr3qbX/ln70/5NNt3HNx9gFy5cpE+W4YQ8LZC7KUGfvh67yEKP1YYI1K/+Q7+zBt+QGfbf/Wx72+AEIB1i9fySMHCZC+UlfDU4eAyVUQqi6og/vPfn2Hh2MU06dqEtLnSEp4mHEvTCJhBPBih9dSPbthUpKa51UQ1JGJwB9QU8UvIYVm4tCAB08RS/zYIky/ZZ1BuyTLtCaUo7lAUb2mSE5d/6xzZ9yPrZm+gTrMapCmYjoj0kepA3RLRoTolmh3mouEKgRELzdTUT+T0KmMeD21ebcWlU1foMLIjL9YrTbLLpyIVt+lC88GsQTNZP2cjDbs0onbPGmgeDcuwCCApCjtLixXSc2sBAhgYQr2Lk7rqo3Ot9jRs2oQcT+VSC6iayPKoIZG4/H3Hqt2cP32GZn2aEZ0rFX4jgMtyowU1ObXyL5ocqKJ6DT9Jil90SXzn01k0aBHvz/2A+p0aUq9vHUx5fs1EF0PIdeSdiGV18Km13MIQGBDUwdQxXSZBSyP+9DVSp4tRgIYEeOO5OgQCQcYsG0Puwvk4feQEmfNmwxXu4uCqgwxsM5CHH3+EIQsGE5kjHFOT9ywXE0B0d4vHf3XW/r+fPAUwyvsIYqmXaX8UuxTQ+WrLfrUwFHi8EJGZoxQItVctO21k+HSmdp7IyxXKkqtELqIzhePTg+iE4bJkLMt7FLGoRSDU5EtHwkwNzXSpBcZv+RRTZliSQpM5IHS9ab9/YYFC96TGiBZQ9QkyT4wQQEihtVfNWcO8gfPJUzw301ZMAU9AjU8Tw05GBOW+bdGvmtumjq5ZBHWLgAVuuVe5Bz+MaT2O7Wt3UqdtDWp3r407Jgxdk+8Fwe9iz+ovGd5qIKUqvkL7CR0JyxiufJENXy10U1fHampOGQq42FGDhfdKgHaVWlCxQlWKVSxmz6GUP7eBqzP7z7Jg2jwGLRhE1gLZ1NwO6jYiMywXJn5MSbWZmo19ZQ23THSXws/KSurEpu2oBOiIZ9D9HuVgZD4oP2a6SIpPIpAUJDpjFJZL5rLom+wqoIvnrpI6dTThEW5Mr0Xnsh04c+wMzQc0p0KLypw5fEb53IjUEZjXTGo9UY+Y1OnoN78n+Z/Kq64hr1Ldo7hU8YV3g9z+3+fH/XMD9zdA8EHP2j35decx8pfMz/C3R2GmklUmiNsyMS2d819foEPpzuhR0HJUG15t+LJaeJRz8YcYbZeM+6C9qGs6AcvErRloghiSxFOFFkaZF3JsVMhxuEOTOwQTVKyg6G17slqWHHwrgrDiLeo8VBfLY9FiTGNea1QBS51Drm/aDiGl+5upo+kqs66cSMBELe7huhuOG9QuWouYTKmZ8vEUojJGYnqCahH1JBnoNzQaFm1I8kU/LUY04dXWZdHDxUmZN6lWU86ruZUTQQtg4iIYqoowz/ppUbQlD+XMQYeZ7bDCJRKwHZw8kIJfSQYdX+yCO+im6cjGlGlXhqBhu1wBPHKscppqpRfnLu5fnL2OK2CRdDaZls+0kEsz8r1RPFQ6hzpUOasbFl/t3M/TLxWDyKDyIAGBFeJHxUZCxcqtGDpWwCK2QX9iPNH0mx6r7N3siVakT5eecZtH8csPx+lcuys5iuRk+ruTmNt7LhuWbKBYleL0mt0TosQOEgGJs5aFISXavX+cwJ9/ktsBQsC2jbKRjGlZOHTWTV/HgsELyVg4K29unUbQFVQLpSxAhubGvAHdX+zM+Z8v8GzTF+gwuh2WESoyDC1YphHEJXPE1AgKAHfbi48miEEGs6xT8kdQsUvWXz9auIxUDa+qRpDF1x6RhkTcArRl7qmxKpPcBL/OhhkfsXTA2+R9JS/Dlg3HigyqICEFIMtYEsAiYzxo+WXZVouWhhtTMVoBdU9awKBn2d5cOn6JyR9PJHWB1LbeR8a3K4grSWdupwVsW/oJT1V7go6zu+NJ5Ubwh4BcGb9WADS3MqKyq50JCSrwHbhs0qZka65dvMK0T2dgRZmYug0vlGHlmQKwqPcivtr6Fc82LknnqV1sdlD5NNtXyPmClltiJQjatlSzVv4urJmwbQLEBNSF0nz2z29LRSZDwrkEOjRsj2bq9J3Sj/zP5bMZAZmD/iDvznqXL1bvYeDkQaTJmYae5ftz5PsjrDy6HCPKRYuibZStRy0bwcXvLjCs0XCy5s/KiK0j8MTYgmSxg5zODLowbjJNf37EOt/49yxw/wIEmS9+6FWzN79sPcqY98aQp0wBvG47ynQHZSa6SDzupeljzUkw4ln361qs1DJn7EXBCCg1G+KoxDHJ4mbpInMyMfwudr3zOZvmbebYoV/w+/zEpImh0NMFqB/7Btmfzg4eO2oSx6KiG8G/MvHE2ViSDdUxxOHJlJW5EK9RP3sdMuXIwsTPJ6KnFq9hR/Zqdmp2BKRbtoNS5UMqMpAZpNyE+t3+dw8wovMIRi8eQ74y+TAkmpJJ79LRA/Dt2u8Y0mgYGXKlY/LWSbjTeQjqAVwSIft1m0lw+9T1XCo6C2AKc6KuY2FeDtCucFtyF8pHv3V9CUaFKE1VchhEE8+SoFEjW3UVsSz8eiHhuSPtqFAX6KErfyPPLYyIRKASG9jhJVjXggysMogTB04SlTOC/K/lRwvXMMRIVpDrPyQpuvKFes/RcWwn3JFybzZ6MiWClChWsRLCvmgc33WC7tVjyVsgJyPfG0mrFzqSOVNGRqwaTO9msVw9fY0+c2LJVyQvfV7ry68//MrULVNJ/0h6NLdfrSOWAC8liLAwJNR6oD//CBBSQKzSvvg01s1cz6JBSyjXojzNxzRWbI7AQKUBEOCZpDOoUn+O7f+JaTtnkrZQOrW46DLWg7KEQcAI4BEgjEHQtAWmQicc+eInlo1fyq/7j5Mcl4weYZH38ZxUaVmLp6s8De4AlmGgC+WkELVcFwzFLEg0L2yCPe80v8GGKRtZNmA5BcoVZODygZhh9lxT4DjUVEnmcCDoxzBUtGBHsjIu1N9kAdcxL0DdEvWpWqcy9UfUx3T70YKGWnSlJsb/s5fWz7XG7wsybcdUMuTLoHyLpAosv5xJ5l6QoCZgSgBpCkCwbee/aNLh2U7EnbnK8rPvYkUEMVVFgDyiGqToXo0pDSdzYPMBRm8dTdYnMmPJMQIM5LkV26FhKRZE48vPv2Drmi3kypMbd0SEnRJRmgwZ63D2qzNseHcjRV55jKKvFFW+QaoNxLZ6QBeiBssP4enCebH6SxgeAzMgokSwLkPH0l1JSkhg1urZDGo8kiPHf+TDH5azfPZiVsxcS8dRHSlVtxTTO01l+/LttBvSjtJdSilAKZSp4lYkKJCgQv59l/qQB3p6/gcf/v4GCD7oVb0nP2//hbGrR5PrudyYHjuCNYI2HYbXoFaWOiRExvHRrxvwe/y2QCaoceNsgpooqbOntlGxmmSSCwyyZd425veYTSpvepWqEMpRJlTAFcDMZjHynRFkfyI7uC1MRdHZNb4SXQnokEur2FlRtLLQu3HdgNpZq5M5b1Ymb5uKnlrJeRVzYLNsKWWJto5Aco1WqOfBjfNxfLfzRx575lHmDngTX4Kf2DmxEAnb1+3ATRglKhVVa/C8LvP5bMXnjFk2kmwls6voS5TV149dZfMHm3mlXhnSFUyt7lvytXa0bwMQLRgkcNGk/eOtyFuoILFr+kLEzUzKrdSmF+rkqkHQCrLwq6VE5k5ln0f3K+ZEQJKc2wZOQhvbYAq/xuY5m1nYbxFp82Rg6NLBpM2Z2jaAHy4fuUiPyrEYMQatx7ekaOVnsDz2r8WfW/hsAIVbPZNKOXhd9H99AEf3HOGtL9+iy2tdyJIhKw1HNWR4r6EMnDaIfE/nU+dv9nhz8hbMS/+V/bAiJJILhU1+nYDhU2pscd4P9ucfAYItXLWnlCwcG2ZuYH7/eVTq9DpNhjdW79kGtTKN7Jzz1IYT2Lt1N1O3zyZNoQzoIlKTqZcY4NyJC2QrJHl8mR92OaDmd3Fi90kGNhyMdT6AKyBcgSzYJpYRIDEsiS6Tu1G8UTFw2fNRUeQKIMiYSBHuBhXxoAg/v8FHkzeybOC7FCifn0HL+2OF2WkvBTKVK7AwraBKsal0nz2SMXVTfV/m18MFC/Hznl+ZO34O89bMhcxw4vAJDh38mkpvVIJwjU+nbWLhoHnU7NiAKv2qhMCLRSAuyLsLllO0xDMULF0Ir4B1zcAQXyFRs7odE//VIO2Kdybp1HXePv02hKfQiaHRKMZNgmnNprJnyxeM2TqOrE9lwNIM9KDLBkrifiSYUIRDUKVFhPlQP0hhGuSx5ffJFodWHWJ4mxFU6VKFN2LfALFNSl8SJYAWkCXITsOvQKCAB7GOHyPgYXbn+WxeupGWPZux68Mv+fGn75n96Zu0bNiMbn16ULLucwR9Qdq/1Imki/Es+mIxZBMQZzMikg61dFMBF/t13IU45MGenP/Rp7/vAUK/Wv355dOfGbJyKAVezq8miUL9KaK5BI06WeuTGBHH2uPrCIRJJK1DQGdE01H88O2PzP94Dp70HoTtVEmDaybtn2yHdcrENNzERV7DCLNw3dBxJXnwuf3kKp2T4atG2PR7SOSmCc0ZWgdVUk3YCc2nnJdmujHioUa2muQslIPxW8ejRds5b8kPygItoFo8rJ2ZCKJLLj8kubYumtQoVIckI46IKI+arMluP2H+MCKvpMKn+Wg/rQVlyrxG46KNuXEjDl+WBBKFUvAbSHo+5nwMbm8YEXkjWLD3LSz3rRIsmZwSd4lLDpz30eHptsTFxXM90zWSPcl2DlZyx/KfruMJuMlwKh1WWIC5BxcQkSvKzrFKWsF02x5Il7SCnSlWi3rA4vyh87Qv0x5PdDhvfv4m0dlTKeo5KJRxgsHQpkM5uvcnpn08lbR509qUqDJLMES32qkgLFE1hoCLHzYu/Yj9G/fTd2x/upRuT8a0WTnuPsPoOcP58fhhnnzyaS4fvkT3N3rTKLYhFbtWsPO7IWASfzSBk5dO8MhLD6OF0j7/0Zn4tzrZH6cYFFsm1HtAY8O0DSwZ8BZl25ej8dCmWGGhfLeK6MHywsw3JvPl1t1M3j1TaW50v0StBu9OeJdlM5cwfukUCjyXD9Nj4Q/4CDPD6PNKP67svqiA+42oBPRwN+4kN64kAwwLLbPO7G9mo8fY2h8lRxEgoKJxiZ5DTFNIoCDDf8O0TSwa8DaPVCjEoOX9bIFcypor4Fzmndfk5I8nyJkvlxL9CigVkOFOhCG1h3Hwy/2YYQaa2yTgTiZgBkh9ObVS5D9e5QkGTB7AkNpD+H7PN9zIlMj1iCRF/nkCBpHXUhERH0EwjY/pW6eTrlBWtVarlIMsjqEIwX/RT8cXupJ0Oo4zGS8QiPCreWNrIySNouPye4i5EoMecDHx83FkfiKrMrgQM4o9kODEji9CbBshpjSACvtl/qrIRQCdiwPvfsPo5qOp1rsy9QbUsRkYpXeSFIikgMJsDYNu4tcErgnTFzJeEI59eYzxvcYx84NZ9K/Yh5M/naZaq9cp/HxhUmVNx5mLp5RguEWpDjxfpgTtp7aCaPv+xFXEn4lj+6ZtlGtQCT2V+My/1UT529/s/QsQ5NV4JcUQy6ktpxm+ZgR5SmZXk1uobkkjCMVmJHqomaU6SZ4k1h/fQDA8iJFssHDoIj6Zs5kkfJRpVobmAxrjibEFdivGrWD94PUYwTCCOfyM3Tia9A+l54cthxndYBSupDB80V5m7JxO9MOpQ6JIW0alIn9ZI10mvkvJRESnsh2mS0O7AXWyNSB7zgyM+3yCipKVINkjZYsizrNz4fIJ6rIQilMIebNEqJ2lPolRcaz7YT2WTDJxMleh7RNdyJAzDYPXDmDuwHlsfmczk5ZPIMcLOW1mIxSldC7VnTPfnqXlyBaU7fgywVBEINdRWiklEAP/ZR9tnmxDzgJ5GLxqAKS6LYKRZ5HsjRdqZ6+H4TKZd2A+EbmjlNMJml7cVhimAJvQfFfNa0yLwBkf3Wr2xOONYNC7A0gtzIEEN5IsDQRZMWEtq5asYdy7Y8iSP7OyW8L1BAy/RniGyJBCM0VQpnHxzCWG9xtBMD6g6OKAzyLKG8OlA+cVtZvuibQKMB779ihp02UlX1RufvjhMDFPxEDWIC5fGJHeSLjh5uejx4jXrlGnSy2a9WqueipIE6V/p9nN395rhARxdp2/rUFIgWkqxgtobJzxEQv7LaBCp8o06NcQwkPdPCUal7yyX2dG/al8uXkXU3bPIs3DadG9cHTrMYY0Hkiy10+e5wowaF4/UmWOUqt83NFrtC3ejjRJqfGlCdBvRT9yF8nNpWOXaF+mHVE3ovAbFrVG1+H1juUQ1Y1uelSEqxZ5ARBqrN9W5yoA4c0NvD1oGXlfycfQJYOxXHKcYExhtMC8rjGozUC+3X2Qim9UouXwNgQigzY7dcPFhPpjObTvK6Z9NpvoHDEqIBCqv/9rg7h46gJjPxvL6UO/MqDFABp1akKVblVV9C+6CkmbbRq1maUjl/JMlafovLAT/igbm4oQWsSFqq1TUMN/1k/7lzoQf+4Ky0+9D6luUjK3zO+FsY0mcXDr10z4dBRZnsxq63mFsVSCYBsHCJuSUnkpU1ts5bbcdhpCMiwiVA642P/+Qca3mkDFHuWoN6C+rWcQqk5lBCUNYMNzES7qSgdk4E/wM27oOM79cg6f9BLxC4ALJ+7reBK9SWQrmZWAx8eJb08hQdNLJV5k50d7iM4TiZFL4gcTjxlJVFIEp385xcX4CxSvXII+4/oQkUZoE+dzryxwfwOEZIit1YtftxxnxNpR5CuVVy3WNg1g59kMv06trNVIjgiw9tg6FdzuW7eXse3Gkj1LRpqPakORV4qonyt18Q2Ndi+2w/wqiM+A1/uWp2rfKna50nWN1iVboB1z4TN8VBtWjde7VbEdjlph1czDCujqPt4ZspRfvz5FvR71yVs8FyRD9Yfq8VDu9Ez6bArnT5/l6y8OUr5eZcywAEGXpBXcSAArOF5oR5mfLrl4oknNzG/gi7zB2qNrVWpBTeIb0OqJluTOnZvuM3vQrHwzqjaqQq1etTHD/SF1uY4VNOhcsgsXvr9IuwntKN38OZXaUGxiKCJI6X/gv+Sn9eOtyVMoHwPW9FVCI4K2ktzOFViQZFA9R03C3BYzv5hL6gJpQqkVn63Olj9KQqHqsUi8lED/Zv0p8eTzrJ+3gZLlnyGmYAxet0/ZXRb4jXM2UbhoEXIUyUbQsAjzR7Jr9S7iE64wZMlQchfOq0rHbErYDgTP/nKGQIJf5VgvfXeRjuU64042yJwnI+0mdCDX47nRI3Sunb5O++faY4b5mbt7LqlyxkAiTGoxgS8+3s/oD0eT57mcdhWMMEkqTWRHZHfT6OZeTeh7c50/1iDYq0UIIEzfyFv951OhayUaD25sp2cE4IqYT+kKdKY1mM6ebduZsn0m6fKn4/J3l+lSsbtKBNTv8wavNXlVjWMFYn0a7wxfxsbxGxR1nbpYeiZ8MgYJYHW/xtuDFvHp5K2iLiLjcxkZ89EIiDA5cfgkCya/RfrsmTDCJKdtr2s2k2CpDNK5fRc4tukXIh+J4skaRezVVIkLpZrAUDoCicgVI+EOULzMMzxWvLAS8WqJMLHOeL7e9zXTvphBqlypbNV9gk6/V/tx9VIckzaNp1uNTmTPm43YeQPQUuuh/gcK6rN2xDreGb2cZ2s9T4c5nWwxr6IObZSgaoSkyudKkHYluhB/+irvnlsG4aENq8W3KJGinbqZ1GwqezfsY8zmETxUMpvyE0ojIXom0dCkMCmSNpQUCnDx3HlizFREZYrCFD+ntNwG+97by/iWk6nYozwNBtYP6ZCkkZhd2aD0RorDEJAv6Tc7H+pN8HPh2AWyPJQZb7yPvhUHcuPn6yQaiQxfPoy8T+RFj7a1F93KduPyLxfpPrs7j9d4XAGQVeNW8+7odyjV8EXaTmxjT2ZhCx/07N69meA3r3LfA4SeNXpxfNsJxq4cSc4SucGtk3ApgWXTFlO2clnyFM5HzTw1SHTf4KOjm/jxwBF61ulFgQIF6DmjG1kezYxfIgJFZVv4Twfo8kJnAsf9JLlMRmwcQu7nc9mgww8TWo/n8LLv1UKZs3JOBi0foujIFGGiWkQDGt7rPjo/047pOINTAAAgAElEQVTEi15SP5WeaR9PUd+vk6MBaXNFM337NFxuF8PaDSQSDx3G9MKTwWNXH6V0SVYt4CQWkHwh1MhSC39kAmuOfGTrAgQMJWm0LdKaXFnyEZklnEuBKwyeNxAtvYbqcOZ22Wu6adG9WHvOHblAuymdeK7J83YZoSyAoa3vBCyIAClwKUjrJ9uqCCjyCTe+8GSlelaMhZRJmgaGN4LLu6/g1W4we8ebZC2cWQkpxaEI7eu1TMJFVOWDK79cYUzfcTxV7EnqtKhNz1LduXLhIhO2TiFNvrShxLbKcdh2DlWLXN5/hXZl2qqqj4U/vIU7Y5hduaDaKttiKolQJP9643wC3V/tQcknnmfv1l2kyZKK84kX0HwumvVrSnh4JNN7zCA6XSS9FvQia9FsqtRyXL2R7Np8gJVnP8CMDITaVqdUljgA4Z8yCNM3srj/Yl7pUIbmQ5qpseS77mP3+9tJnz4bj774MFM6TmHPp58zY/tcDJebHlU7oyVp9JzejwKl86l8t1DsglK1BIPYyr04v/Milq5RrGkJ2k1uZS8YIrz99BBja0/ASHaT7uFUjNk+DiudhWG6lCZCnUd1yLxtVyBZUwPw4diVrBqzmnyv5GHwskE2KFF5qhBrlpLaEz2DNPERhJ7SjyMZJteexMH9h5i2eyoxOVPZEXYS9CnXj4ST8TTr1IQZC2cz6r2RZCgUExLjSprN9ilrR61nyaillGpYivZSFSTzO7QQii5XFl+pwghehnZF25FwOYmoklFYYQK2U+o07PrpsAQ33u98+BICDF49kPyl89mVSUrEJP7CXs6VAFKlLmydxdEvjtG/diwVm1SlZodqRAojBxx852vGt5xEhR6vUX9gPXy6iHSV8oOgL4BmGIoRkp9pPkHlkmIUUGODquCNILN7zOH7L78nMsHCZ/rJVjgXO3btomGH5pR85Wl61O9JBk9aavepTenmLyqR6uKBS1k/Yx0thrfg1XZlMY1Q8zdHpHhPIcL9DRC80LtGH05sO01A8n7h8QQ9grKDBK4l4YmKZPiEoYytP1nl7t/esJQ2DVrzymuv0mxEc1zRhuo9YFlSBy+LgYv4n2/QtWhHiLNIcvt4+/RyEA1dqP56zbg1rBy0Uk18b/4klh18VwEElf9UdZJSFmlyetc5elfogRUVYOHeJbhzuOGaToPcjVXt/awvZqJHGfgv+Gn6ahM8gTCmfzCdqIcjwBVQIkop05QFUc2ZJKiWrQbeqEQ+OrIBSxh9+Xk8dHy8LXFX4glkCzJx3mQ+XLmKdgNagzC3Ek4JAAq66F6iKycPn2LC+knkKPWQHRmEejao9Eio/tN3xUejl5rweo3Xqd+zru2kU5B9qIRaou9W1dvQe2AseYrmVCKz80fOkzl/ZnwRIjzzE6Z7OPnNKaaOnkFs/1jS50mrQFLPF3ty5tcTzNg9mzT502IGQPfatLAVLq0STAIBP9cOxtGxTGe8hp8PT7+PJY5dtc0Vhyg5UougT8PlM+hWqzsZ02cgdkIsLUu0psD/5KPtxLZ0Lt+VtBFpiEgXSd3mNZn/5kKa9W1OkQqFFejqU6Y3585c4a1v5qrcqE2nhnQToqEIpRru6az9f7/Y3TEIi/q8hTejSVK0l0CYD80M4L+WjBnUad2tPZd2nWfPln1MXT+FEYNH4PcmM2bZWCIyRtp2lbSE9CSxTKUxqJq7KhmvZsCr+ak7si4VOpcP0dw6vqt+muZpQURyGOHZPUzcMxFPZrcNpnVdpbYMwkJlg/IOQyy5V2Nymyl8/c53pC6cismbJ0KkpcoSJQ1m6xdsFk1afQcEIChwIP03glheN+NrT+TQvu+YsXsyMVmjbOpOSqzLDuDsd8fRM2lM/mAyS+e/TfvebdAzuOx2wmqcWqwb9hFLxr5N/f71qRxb0a5m0H1olscWE9pIBf91Py3KtCBfwYIMmt//VpOvFNAsh/lh9pDZ5Mqei9davIbm0gnc8OPyuNAipR+CVEgoubS6tl2ZY3By1wl6vdaVVI+mZ/bmWegx0v9B56t3vmJ8m0mU71aW+gPrYxp2LxRJB7037T1yZctJ8bolCBiyb4mFGRBQJwyJjssHb3abxXdff8/EdyfQt3ofEm8kMXnlZDrUas+Fk9cp+2opLlsXVVo33/MFqdKtJmEug9H1RnFowzcMXT6YfK8WtMGiJffutD6/l9P//gUIMvZDGoTj204z+v3h5Hkhl92RT9aalDykH2plb4hmJfBMpacp37Ayj71YBEsicCW7tpsACcUti2XCiXi6FesGly0S3Um8fXaZyvcrys2vsWr0KlYNX6ma/XgL+lm6b6kSWckEV3S0zMeEIN1f6sfZH07QalxzXm5ZRpUPaXEab2StR7oC6Zj8+VRILWDG4uqP1+lasRuRkeH0mdOb3MVyQZhdOimeRmVNkjSqZxWAkMz6o+sxw0OO7Aa0fLw1WbNkYOAHg3GlcTOl5zRO/XCCkQtG4sphqHIyV9BDt2c7c+rwaSatn0L257PZaRjDRE8W0Waow5xKzViYySaGy0B8rvrY7QxsEWWoMkH9TIUasHT8ElYuXEu15lWo17sueoQIqzR816X5DYRHhqtUDD6Nrs924crJy0zZMZU0BdMoMDSwcV+46OGFei9QttHLSgR27dA12rzYioAryKpzawh6xIHYCiyhO+VcJ344zYhOQyhXozxVG1dVbEizok3InCMLo9aO5tuth9j29jaOnP2JKSunEFu7F8VfLkn1XtUV6OpQsh0uwpi8a5KttbitUdLfqR/+f8Op2GtXqMRVid/snygNwtSNLOm3lPJty9FgUINbXSlVeGyp8TSt0Sz2fPwl+Z7PQ/HXi1GuTnm0NBpBka5rLqXiVxS4ZuJK1KmcuypZUgDCmHpU6PianQazNHznfbTM2wK33yAyRxTjvpxAWAa3iqptAswW+9mbNclHddmCRIu2L7SBswaFnnmEMm1L8VgZSSmKwNGOrqUUWW5ZyZtVG27bmqqfSbLO2HqT+GbnV8z8YjrRD8kgsan+2LJ9uHL2CqPWjCR97vSsXrCWlQtXEjsqlodfLqh0MKIr+mjYOhaNW0L9QQ2o0LMiLinpUz0KQh3AlAOy2Y7k68mEpwpX6RMllEjpUyA3lCKqTQEVFny2ciezx8wh/2P56TWlK5GZI5SvEr1AypbL0mjtxI7j9KnQm+jH0jJ72yyssCCW3+Cb979mbPNxpH0yDWmfSq8CIdFDXD8bx+Evv8elG9TtWptG3ZrYuijhDoIuEi8n0q/1APLnzE2jrk1IFZOK3uX68/OpX/ng27e5dukqGyZv5vMdWxj/4VjenfoeF+Mu0lsqr4BhlQfz9c7DLPtxKZ6sHkw5t2rg5lAI/425/M/OeX8DBB/0rt6LXz87zYhVI8n/Yi4lDhQ/prqyyWBLdFEza100y8uSr98mLEeElGnbVfpBWx2sytpCC1/8LzfoWrIL+hWdxLBElh5/G9KFcoE+WDl+JatHrMUd0PAVCLBw32KVK1SlfOJwfBb71u5jbLPJPFqyEAPf6Y8Zo+ESVB8HdbLXJlPejAogaKltJlNLNFg1cTVLxywlXabUDFg8kBxFHyLoCZUhCthJ0qiduQ7JEcm0G9MGf5jdFMWd5GL5wA/I/2gO+q8YpJo4/frFcbpX6k6mTBkZ/9kEojJGKOfZqVhbzh+9xMT1k8n6Qha72yQBVi1axSfrt5Exc0bc4YZaAKQjoqn7CehBXLqba0fi+Xbnt6TPE80jpR9RqQQBEtKDUTQSYf4I3F63KiN9pc5LPPnck6oTnXLViuoM5VB90P3Zrlw+fo3JOyaRulBqdb1elXpwZscFynctR/0h9ZUQ7OreS3R8pQNeI4kPz61R9etqwZDoKAB7d+zl41Wf0KJBU7IUttXcx784ztCGg+g8pAtFGjyh3uuSUYt4vmJp8hTJzcRW43AbbjpO76Icct38dXn4sUcZvHYgVqSt+QhxNvdynv4lr2XDXlmgb6t2EXAY0Ng0dSMLB7xF+Y7laDSiqc2wqRJBYaWC6D6DGfWnK5HiuDUTyVI8q+obYnetlAhfhHn2IqYJeE7SqZGvBmkvplZ6htqj36Bch/KK0hbw7rvop1XO5rg1N0a2cKbsnUSYpORCfQwUQJczh3Y4lfY7ch3vOS8dn+tI1qzZKF+nIguXzWXmxtm4UrlUbxAFkCW3LiW5oZJJWdTVueT/vRaja4/nh13fUHVgNfQMdjWPiBQ3j/+YpICf2XtnKfYpeNWk6fPNSbrgZdrnk8nycEY17D8ZsZG3xr1F7f71eL1PNaWLkCh97559zJ4wmywZMxGeKkJ1LhTspHsCeDUfQZdGeFIEO975nFTRqShSsQh6mIY/1NHVQxjhgTAMr0sJLh997hHK1SmjUg12J1YbKsm1Tu08TvfysaQrkoZZW2Zhic+SjpjvHWJc89FU6lKZerH1blUR3Hz5og0QhC8ZRHsRP3b4OCvmf0iZl17mqVeexhTt1Lkg7Ut1pFKDylTqV0HN048Xf6x0DOXeKM/ud3azdMFSZqybqYKKnqV7kJiQzIzd0yEmlAlRqMkBCPfSGdz3ACG2Rk9ObD3F0NUCEPKoCa/ocllBZJQmeqiepTrBCB+rf1lHUKmTpaxOaD7pECeVAqo/rFpg4o8n0KN4D4JXfCS4k1h+7h2IDokC/PD+hA9YO2wd4V4DX8EAC/cvAil1VAy5RjAuSOxrvbl0NY7pn04mMnsEAensKOq6eKidrS4Z8mZk2pbJGOkM/JYXl+ZR4khpHvTz9p8IRiczc9dcYgqlC0U4EglJFUNdkj1JrDm82o7sZT5JFPxsB7LkzUD/9YMJRgYwkl10eaGHEoV1XNqOYhWLEkgO0P156Wx3iUkfTSFT6SzqmVVbaFFjhjCQqhy4mMDwlqPoMrIj6fJmwJ3KYN/ig0xoP4EnKj1Br7d72I5dSRuCimkwg9LuVsmnb35Mwx/qnig136Ef+yx6luzOmdOXmf7ZFNIUSKMcWK1H6+A566HLwo48VaOYarh0de9V2r/UFr/by4fn5JlFuCkRqIVLuu95JXcbCvkF4yWZdCjenisnr1GvV31e71KZ+IQbeC8nq6Y1YrM1E1azdcMWJq2ewjc7DjGi9mhKNy1N27GtMUWMqVyUo5QKcQchwBQCdwow2ABh47SNzB84hwodK9BkZDO7uVjQ3kUxKIu/H6Y3mMTOzbuY+cVsxZqliG5t6luqdKSETihrAQgG1fNXJ8vlNCSRSO1R9Snf+XVMXaqRdHwXA7TK0QyXGYkrRwRT9o3Fk9ZzszW5jAsFUExJGwr7ZjfUuvrtNTo935lyDcvycoNX6FStA8MXj+TRFx8V9aPqr2CLat2hjaLFf9jtkQJBC5dPZ2ydCRzZfZhJn08hVZZoO9/vh6EVh3Am7iKz90zHjLbQAxofDPiQNdPWUaZNGRqOqq/q+99sPJvPPtxG7QF1qdz7dQzR0ag+RXaVg7K1ZRJ/4Qa96vagY++OFHz2YdwxkpaEWvnqkS1HVibsHIehenfIzomSQ5EFW4SW7pQmIXaZtwAEOeZfAYQw+z0eePcAE1qPo1KPStTr94bqnWDTG3aaQlrSy46wcsO6y2UXiEhvheRQ2lGCLT8s7rGYTYvW8VTlp+g+LxZfko+rp6+Q6eFMaC6TS/sv0rBqU9Yf/Ag9SqdV4ZZkfyQHg1YNxAy3x5VqE/fA9yC5l/BAgf9bWa57e+n/8tVkkvqgT41enNxynGErR5Hnxbw25Z3SjEDC8ySok7kO3ig/q35eQSBcdh2QCEbEbnanMKUdENAQgMQTSXQu2gUjDpJdAZacXhTKTdvh1Irxq1g1+APCtTCS8nhZclBSDMmKMtX9Lhb2XcimhesYuWQcecrmxq/7Vdtm9eV4F/WzvKEU3VMEIKSXMseAyqGayXBgzQGmNp2G4TOpMrQ2VXtUxnLbpZPCMlTLWo2kSC8bj31EMNymfo1EjdaPtSRHgaz0Xz3UjoIDOm/1Wcym+R/R5a2OPFvpWQJxAbV4XjsTx8T1k8haKqu9yOvBUH92W3kuUfX6Sat4e9g7pC2SgSkfTVZtU/d/sJ8xrUfwbMWSdFnc087hEsBthtniwpCEwS8NVAy36pgX2vlBLeKqAkvAiNeke8lunDh/nje3zSBdvnRY0kCqSCP0i0HGfTqcnE/nUi2oL311mVYvtibo9rHm3Bpbfa7U2n4Fxn4+eoI+nQbgSZI2rTrhvnBuHIrDawSJKZgKd7hO3LFEdXyTYY0pX78CJ784Tdv6bVm3Zw3zxsxh69wtdF/ck6cqP41pBNBVrbhTjG2T9jYwSMF8ajtfYdwCugII8wYtoGKH8jQd3pRACGiL5dTOHn6DqQ2msmfrXqbumEpaSSUp4b5mV7Yo3Y+Icu225FqCi2oPVyfdmSiCHqg/ugFlW5W1I9cABC75aZm3CW5fNJ7cHibtnWADBGkTrholSVdQnaCMNSVYtBSLsWLM+ywb9y493uxB8UrF6Vm+K0k+L9PWT0fPFBpPIeZABI8p6QrVLEk6CnotRtYZw097jjDl88nE5I6xg4FE6FuhL9cuXmbm3jch2sTyBzm44WtGvzGSqu1qUX9kPTXmx9eawFeb9lO7Ty2q9Ktm74QQSsUICBE3JftHXPj+PB1eaI8nMoyR740mZ/EccB2q5KnKQ7lyMGXXJDW/BQi5xNGpLRNCOgOPjj9g4pZtl6X64E4AQUqrAzrfrDzEsKZDeb1nFRoMbEDQJX3l7coKqUSyN0ATnYaLgGJ74MaFOPp37k/c5RvKf0UmRxL3TTKGlDjnNdBiDMIuhBF/KYESLYrSYVg3VW3VokxzWrVvSe5HctL51S6U7VSBpkObEFRtU4TJtZld53PvLPBAAIRTW44zeM1o8r6YxxYf27ocpSlwJUHNTHXxSeR9fDVmpLgS2cjJpt5unLtOnD+ebHmlXEgjIJFKsTbop1Qbd3ot6cxjrxexKxWkc2OV3lzeekF1V3y6SVE6TG+P6fGqbmUnvzlPrzo96TigDc/WLEUwws6HKopWFsc4AQgNSJc/rXI2pLaFRCmUthlvMvj1fhz74iSP13yKXgu62e2cQ0xBraw1SYxKZP1P67Ekxy/ONkGn9eMtyVYgC4NWDlOKf1k8f9h7hM0fbqJJv6akio7Cfz1A1+e7cu70WRbvW0JkgQiCwpqoaEuiCQOXgKZ4izalWhB/1EvbuR15oXYJpTDet3wvk1qPo+SrJei0uIfdZEkWbOk/P2IuP31/lNgJfezmRiIkV11kRXgkZYIpjVtkDweL3iViOX3uNNN2TiVtvrQk/JpIy2Kt0cwgbx1+i7B0di30xQOXaV22A0HDz+rzHyiwpMq5BBmqXe1cnPjxJOmj0hGTOpqZnWbzyYpPmbRyPLmL5uLaN1doW60jz7z6FF1mdsJIYyihaJNSTWheuzEfLn+P+CteZnw9E1daA+myqxT1ahs+5/OvAMKmqZtY0H8JlTqUo+GIBqH3Lfaz2y3rXhfT35jOrq1fqrbD6Quls/f6kB0Kgxbe68lcPHuZhwplU1Gr7nUzpNFwfl1zTG2QVLhmYXrP726P56DG9oWf8WbnOUR4o4guEsn4zyaiR9lKRLuUT+2+oBpzGSI0NHWSzibRqlQLfPEWc7+cRXTO1Fw+dJFOr3emdutaVO1eFUTULF9UIgS7k2pKukIJKQMuRtcbx/d7vmX6julE5UqlUolaskbv13pw9cJ15uyZq1J7wnZI6d8HM96nXusGpC2QXmkIxtYdx1eb9tJpcgeebV7avoYwJypitndjklLOD0Z9wIqxK6jQroLSdZgRoMdB9bxVyZElFxO3TUBP5bIbuvktPl6ygY0r1tOwa1OefOVpApKSVPug2FtMp0gVhEw9tev3KQabQTj4wUHGtBjF6z2qKhGlYmBV63h7qZa20OKh3FIGKgBPUkQm3LicRPyVG2TLnJXPln7OrP4zFAtXusFLJJxKoMPzHYjKlIZR64eSKnu02nBuVJPRqt18ttxZWLN4NX2XD+CJck/a2g+ljJRrOnPvXnqe+x4g9K7dj+ObjzFs7Sjyls6jogfpnS6d+VR74ySdqtlq4XUlsOH4R4qCFwpZ9l4Qpe77E5ax/Zsvmfr2FJVL030aPar04tKWi+r7j5bPR89FvZRCOPliMs2fakLUxRj8rgBdF3WlSPXHFJ157dQ1WtRqQc/evShRpRim286Bquhf9TOw0OPd1MlWl0y50zJ5+3Q0qfBTrUvtRZRgkAMr9jCs81jaDe/Iq01eVo5XaRUToXqWWnijvaw/sgaEagzpGlo92YasBTIzZMUQO92hhA3iACTVYusr/Nf89CjdjRNnT7Dyl1WYaZMVwAhYojcQNOVSpVdnD52l3XMdidYjmL5zOjGPxqh72L94LxNbTyEySypino1S3R9VRiGo4Ql4lA3S5EpN9yHd8USIAjTkYFSlpr3pVMB04UnQaZCriRKDTdk5kbR50nLqixN0r9iLR0sVZuCKfqqRipRSnjt0ji51epA9XzYmrBtrt7SWHQBVE0URgIUcbEDnyK7D9K7Sl7I1KtN2UgusgMmQmoM5/NVRhr43mIdfsLeUFmwxs9scvluzn+TEG5SuVY5Gkxoou9kB820lbvdypv4Fr6WWypSS2xARqWhxabUsKYZBC6nSrhINhzVQ70wp/1W6TgSkMKXpJHZt2c2MbTPJUDCDXYooi0BAZ++GvYzuM5alny0mLJ0bPWiw+a2tLOqyEJc/EiMPzPp8Gq50bkiyGNlgOD9sOobb0ilc/3/oNrc7qGvaYF/1R5IWwDImZVwk62x9ayuzer9J9eY1qDtK+oKgym7HNRvP/q1fM37pGB56IRum7D+gKPsU0XKo9FKQQ7LF6Lpj+f7Lw0zfNY1o6Z8hc1UqYCSVeOk6c7+cbVcMSS5e7XYpeiR7BsjiPKbOWPZv2as2B3umbjEFlOyqp1AXxaBB4Lqfxs80hUsaPd7sylM1nsLv8eK+Fkad3NWJJob0r2TCH2aqTq7iXcJ8bgUsItNH0GFoJ1JnsVuWq44lohEKEQyy9p7cdZwe5fuQrkhqpUEQZkYantmNksZSuVsl6g94I9Q35TZBsma3Tlf7Vsj8UwDQ9j2ixUg8m0jPsj1V9cf0T6YSltbDpzM3M3vYQtqMasErLV6095qxLDbP/oQPx6wgIS6BNHnTKeCo0oZqDyrp3+Cof+61G7jvAUK/mgM4uvk7Rn00hnwvFiCg2oMaqsLBF5/Mjcs3aFmyNfGuG3x8YiO+CB8u3WPnEZM01k5exedf7GTc4nFoMTalumXxZha0W4wnORI9yk+LQU0oUeMF5g6ez/ZlnxFuhWPl0Jh76E3lGKQz2UfvbaBUyRJE50irJoTKiZqSCwy9cgEs8S5q56xO9jxZGL91Knpam8ZUW9SKY5Ft37yhBiqy/4BE4QogWJCoUT1bNZIikthwbKO6bpIvmYhgOM0faU3Oh7MzaOXAmwudRDNSNmRIV0MLki8k0+HZ9lyLu8aKYx9ipU1SaD0YkO6RqFa5RgBWjNnAh+Pfp06z19m6+zMmrZ+krvXle3sY22YcJcs+T4+3O9tag5vcc6j0W8oT8ePSwxQvbIlK22XvImloAtp0XMkGFQtVpmyl12g5pBmRUZHM6ziHT5ZtpdtbXSj+enGCAb/q3xCqWbO3oPWIo5KNYjQMdwhQKZrabpv9/owPWD7xPSI9qalVpwJ5MmVlYv/JvFz1NRrNaaqqPjTZsTPg4tCGbxlVZ5Ty8yM/GkHuZ3NjeXxYslW1lHnd61n6F73e7wGCylZKg0y/zsbpm1gwcDEV2pSlyYjGeN2SSnMpgC3gQHQgi/otZNf2HczaNpsMBTJgyj4mUlMfdLNv1X4mxk5m4ecLcGUJ7QCaoNMoVwMi41OTpMdTtsmLvBHblC3vfM78wfOIDISrnhz91g5Uc13l4NVaZRBQm7PdIgNkx9N6JRsRFRnO5M8mEZk9Um1qpMtOoAJSizVTab25W6YTlUN+JwufX20YFVoCFQUpjdZG1B7L0X0/MG3XVFLljLbBvl+jT7k+XDpzibl759q9FdSma3Y7cjXp5PuWRaMCTUi6nEzf+b15svrTqkt40PQpJkIWc9km+qvVBxndahRdY2OZMX8SExZPIONTmewUaa5qZMvwEON3TMaQ/Vtk3gnYlRRDqALCZ/owpKgjpB34PUA4JRuaKZHiLYAg3z8gVQytRlKpe2XeGNggVOkcCmxkXIpdkVSOMDViYzvo8Act3IaLnes+Z/qwWcSdvs5rr71GlTKV1QZp0WnSM+/rWZjp7X0uXC4d348Bmj7VnLBAGB2nteeJho+jScdJ0S/psn+Lk2G4167gvgcIsdV6c+azXxj+wRhyFs/D2Z9Ps3HNJn786SjVGlelyONFaFiwEYFwH6uOrcaMCkl3hCoLuFnQbQEb1m/k/f3v2f0OzKAS7fUt359Tu08TJs1AXMmqDli3InD7deIjrlO2S1maDW5m72eutisNdUdTfVosVU+sRPwhVbWiEkWkmLMmGXNmZOrn0zHS2JG+GaLh1S5sqrFJygQVIWVIM5QINUJljut+Wq+2d9Zkg5sEjVZPtiNbnvQMXj8sVAooXQztXfOU5Mpt4j2bTMeSHTEiXcz5Yo4tvFSJZpUIUJ7myg/XaFehI0WeKkzfeb1YNGIRB77Yy7Bpgzny9UnGd51EideK0e3tzqo9sgoWVU/30LBWu8gJY2BvIW2Js1Wb4sgxNuMg+ojEa/FERYt0Gb5YvpuJPSeQNkN6pmybws8nf2Xzik85uu8IeXPno/SrpXjq1SdU7bq0q5bNfdSOmSoUDbVdFnGcgJxkiytHrqlqkJ2bPsNjuciRKzePVnyM2t2qq+jGioP+9QZxYucJBc4qdahC3QHVCIbLlhWyFwV2xYnzsUfF7QyC7C0ioMXTHHMAACAASURBVDNo8PE0STHMp0KbijQa3JikS0l8vGoTO3bu4NXq5Sn2/DMs6f4Wuz/by7TNU0n/aHpV5uojiMdvsGPZTqb2m878HXOJyBFut0X3upjZaSa7Fu0mPOBSuyUmayZuIvD4DIIeL/leyku/Dwcp+l3aqcsCa290KKWv9j4B0nSpa+XenD1+llELhpD7xRwKmAR1lyx1asOwn3cco0v1rmROm4nYmb0V4LBUaTFKmOcypMOiMA4aY+uN5/DuQ0yT1uq5Y5QN9IBB71d7cPXSNebsnYeZSpR79o6EiiAQjCBBt9ei4cNN8V9NZsL6cWR5/iEFQnVLGDV751Dp0NqvZh8unDzH9I2z+XLHbmaNmEXXIT0p9uwz1Hy4Frny5GDMjrHoqQUU2y0H7V1n7I+wAWonxNCckMn2GwZh5wl6lO9N2iJpmL3VZhAEyKkUQ+vRVOpRmTcGvKHslCIYUj2n1LNKRYRs0in+SSaaveezGhsS1Ph0rh+/xr4VB5g7+k2l60qbNg2FnstL7f4NyZw/mxIyLox9i08WbsHAzaPP5yN2UV+sjHZrbrWhnYQsTh+Ee+p5HgCAEMv5j09RuUU1vj7xDdcDV3mtzmuUq10OS3Z29MvCWougy8uqo6shrS26UfA74GJUzbHs376PGZ9PI1PhzKG9zi3O/3SRSa0nc3r/CcKkU5vmwi9LvydIifrFaDuhLZr0SkcqEYQuDGDIZDHCVGrBbwVxh9oT2xUOklS3qJu/HhkKZmXKtvEYst1zaHEOiDpf0YN2cxVRbtt70dtRgZYAtTPXJjnCS/2+9QiEy2bSOu4EFx+N+4h8RR6i/5phmKJOtjQu/noef5yPjLky49E9nNt/hp7VepGjeC5GrpQ2tfY4lF7wlhnAlexhYrsJ/PDV98zeNActo12W+c60ZXyw8D1KPlyKA1sOUrJccTou6mh/X24/1IXuNzXaSoOgtlfCkEVd7RwjdIhcS1MNaLREF19+uIc3R81Udd8j3hqptgRWAZAXjn97kndmvsP2j7aTLiqGinUqUL5dZaIeighF+Sm7UMpW3S7FviSdSeL9Ke/y6aZtVH+jBq9UfJmZI97ky093Ubrus3Tu253eLXpz5dwlho4eyvuLV7Jt7We8WrcULfq1xJU13N7uVjyc8/kNQFBYUvUMMTECBivHrODDUe/x2LOPo2Vw89OJn3ipfGmqNamKJ32YyoVPbjSFPZv3M23XZNIXEGbN3ulRT4a141ezdMK7DFjUj8Ll/0eJXuU7XNOY1m06u1dsV6JTYbkCpknQHSRnsYfo+mZnMuRLr0TBsnWyXdJsIPUyLq9B3InrjGg9irPnL9NpeHueqfw4uGWM2Dujqi2ipfOgV+PgugOMbjdOpT4qNq5I+brlyPRoZqWvUWyAaBl8BuPqjufQ519RtltZ9Ix21YxUHe2es4uAFmDWwdlYkTbITryWxOkjp8mbPTeuGA9XT12lk3RmtbxqgzQtVzhuQxhDW9Urm1pJR8G3ZyxlyMzBFHz1YcyAxe4VO5k6fAqvFqvAp+9tIXPuDEzYOs72GSm0ZMowTREM2M7CFvNK2+XbUgy3GAQpc5xpV0EF4KsPDjC21RgqdhOAIFoSSdspukDNw8P7vufYoaNUbvI6wbCganUuyEfAmDAgss28NHj6bOU2Fo9dRMmXn6N5l2Z8MP891i9bTY7HcjFy8XgWjlnAxys+pnOvriQmJLFg7CzyP/UwLYa1JOcTOe0GT+rRnAqie+l67muAYPksetfoz7nNx/FkCKdqxxpUbFlOMQFCFwrNpvt06uauhy8pmQHzBpIupzgXm8r6af9PzO75JhFEkqNSDkYsGWaLnkJUKpc1tr+/jS1rNnP16nWy5c5BjQbVyf9ifpBqASXyc6tGL0JfG2qRlxnkVZIpqfNeMnMJwaQAOdI8BOd1Fo1aTPSjaZm6ZYJNF6rcrmTopbeMpTSJko8VXynqbBtCBNFvuKmTtSYJ7mTWHV1nRwCyOCdA22fbk75ANMPXjFa96+Vk5389x5Qhkzn4xdfkDMuOecEkMTGRGrE1qdG7pmruZBe4SP4B1k9bxbtvvcfQmcPI92xB1WdBdr2UdsTxP91gQq8J/PrVzyR643i09P+Qv3BBsmXOoWq3FW0ggMDyq6ZGZ+LOUaluJTJmT29v56v8lgtTgiw/XDh+nuUTP2Dntm28XO5F2g5vr9IYdnWh3WjHDAbRk93sXXWAaT0mQ7yfbMXyMGr9SMyIUK5bbS5lkXg1kQNbD7Bg7AKyZstMt1E9SJ8vg4oIpcHU9vk7VHfL6VPnkOeRvMRO7UGa3PZeDGMbj+bAp7uJTBdNi9gWPFzhMdLlSGcntR/wz02Rm2ISQjsFChNk6czoNYPtc7bj8hiUrPYsTfs3JSJrOEGPRPW62uRoWtuZ7Fy1g/Yj25KzeM6bGg/fWR8Tu44m7nwSZLWYtWkW0Xlky3WJJIUVg8Obv+WTDzfz84+/EJ02mvI1y/NcrecwU9t6FsPyqEjebk5mNxT6eedPDO05lHSpMtFvRl/SFpTdQGX3Qj+GpBVDwj0B4KJX0L06F7+5Qp+GscSfvoZl+ClWtRj1YxuR7ZFsBIKyoZeLcfUm8s2+Q0zfOpWYLNJK2Y6+B1UczIVrZ5h1YI49H4Hrl67x/tz32LR0Ay4iSRtIzbXTVyjy2hPEvh1LIErKqkPNvrw6x7/8hT7t+tGoTSPKtSpHUIl/ZedTsK5bTO81jYOffkP8tevkeSwHhYs+SZbc2VWaTTY4k4Ztogvwuvwcv36aYq8U44mnHlN5/vNnLtg+ImBx9tuzjO00jrT50zBw9kCVthOW4/st3zFv2FxeavAKlZpXvql5kiAq/nQC/VoNIOj3UrlFRVoOaoURLnoEu9opmBDkyHe/MHvsLLxX4uk9ojd5SuRTKRTRTH37ybec/OoX9nx1kJ9+OcKQaYPJW0x23IV3Br3NyvmrFYtXvU0dXn7jOdLlTIcr0hEp3ku3c/8ChNBa4rvkY26fqTTp34bIHKnUIuuW2mKJdjyyyZDOjyt/oFe7XnbP8tAmKbbDs1QNf8kSJWg6qgXpC2ZQ6t+UjoE3X9RtnlKV/ygh2x+/RlXcZ8nOaR5FZSbHJfHjZ4cZ0WIMEQmpSPQk0nRkQyq0q3hzK+N/OiBkZ8WAH81jce2nOFoUa8ijLxdl5LKhStlvCB13w97RslqbqpSsXDwEfkI3F4DrR67TvVo3rpy9xKMlH2XgoiG4MrtIMrx4tDDcyTrvz36Xz9dvY/Sb44jKmSrU3c5rd6mTZkzS0OaGxY2rN/hx52G+3nOIvZ/t5ezJ80p/4dHcqgZcOscVfOFh+s3pp3q9Sw24RGGCH0S4tW/HPubPWKA2TmpSrwnP1SpJVJYo5RDVds9uW68gH0khqHcU1Ig/FU/30h25kBDHpA2TyPNMdpXfvX4lgaVzl3N415dUL1eTopWfIyZzjF358b/sfQecZFWV/vdepQ6TEzlnySAYQVGCcUVBxcDuGhHUNYLgGlbXiGIOuOZ11//6U3EVXFRERQmCkmEGhhxmgAnMTHdPh6oX/r/v3HuqbtdUd7/uflXdM3Mfv6G7q16479x7z/lOprWHgCQO8L0Lf4ArfnYFPv25C7HrM3cA5kRS/InduKLNEa74xhX4zqe/ha6duvGGj74BJ55xEmgnFUuqU9p/e4cMoypLDgDf/+j38KwXHIf9j99PzP0pNXXR+cvS7fPRWx/Bh/7pAjz5xEbpr0ANnnUKqPgXgwR7Hbon3v6Rd2HvZ+4llU3rnh2tmWH3uO412Yb1GFLTe4FzHA/H+OIHv4C7rl+Bsz94Do56ztEIe0Ip281MHVYD1IPy0sQi1mRMDGZkMaXv/ev3ccVlV+CCiy7AoS89RNq/s5snAfj7Xvw+bIj68NX//RJ653Yj5dqoBTjvlefiuc99Fl7yrlMlgJZuEmYoVEeqiB+L8dV3fB1///P1KHaXcdHln8dOR7GYlwFYtK4tv2oF/v2cj+Oz378Qex3JOBhb7MlaFaVoaDXA0PohbLx1I/502VW4/dbbsPyu5ajWqqikFRTjIsJiiHhehK9d/nUs3m8xysUiRgZquOrSv2DZ4h2wy647miJudgGbYlKaDW5ibgSzaKM7tTyYMpdSKIkdZxfvvtiUdh6K8H8/uxw//+ElOOFZz8Wp//wyCZAMWNaCFjgJ7gSuvewaXPTxL+DM15yJF77xhagsroghUQDeSIibf30bPvyGf0e5p4RXvfMVeNlZL0bX0p7tsDlaJyHB6Gdt0wCBwjhmHfcqmQ8wVDI+yYpotYEJ8uPKJxo3gcPmsKnD9Xo4lGM0ezMFy42TaeWLdqREq1K8HJN4/hMJPzJCrhbg4Vsfxjc+djFe8tqX4lmnP0M204TRcAwjEIFZw8jGCJtXD2DxvjsglihmatElUxymmiKtaFU4tjtkDweaVBmUF+L+m+6Xbox7H7QXgl4Tk0CfX5gWMNg/hDtvW44jjjoCxS7GDJiWuSYywfpGyCio2NOpqrSrmXfrW7dJgowG1vdLeeRley5D145dwnyZO33vnffhmiuuRlfQhXkL5mHfA/eWsrAhyy5LzrZNLRRjiokpUIAgU8V+CyMp1t73BO5deS+Oe9GzDPCLCnhw5cOY3z0P85cuEIsOCzXR3cP4j2Ia4IbfXI1Hbr4fu+2zNw4//qnoWdSFtEQfLjvTMXiEpmm6goq45+Z7sMMeO2Luonn1cssyEvq2teDMzO3jWfFkXe8Jg2+5N+gTk66XQb33APcjBU0aR+JfD0fEnmCBq+laaPL3WWW8iqDHBN1Jx1L30L2qn2kXZ3Hwm13Bkr+X/vhSbHh0LZ5y5GE45NhDUenukrHUWK5QGjQyroQxOXbjSgywSTGU6WUpc4Lbaop77roH+x+0n/jaTfqv6fex+u7V2G3v3RAFDMBly2SuMWZKmFiYqGI2hXmHGNUkQiXpwup7V2Pd4+twyFMPlj4ivIZF2Wh1Y6fZm/56Mw477DAEcwiuTYBjKTWVGrnR2EdFnkXFhmLXlhcn6Teu3SB03LxxEMODI+iaW8YuB+wq2SQsUMb3lcqMJndQ9rVJh7KlJyV+yEVilj51/mayehIWSpLYCjo0zf5f98R6DA4NYNddd5a6IWmxIHxYasokgVgvL//F5Vi6bBmedtzTsHS3pYiJCqVahUSNGMtpXMSGhzdhaHgIO++zg2Q01LtYzYoVv+0PYhsHCAlqaQ0lMbMFJlXG1hUgWzARAjZQL2GkrOl1zs0iv5tOxGYDWteC5A/T+iDnTK3sJze/aMDiyrDMiNpsVJAUPQblSHWyCQ4jME2VNfpn+T7DIZvS0PjA0H4iIAZpJbaCJIU4mY8xU0bsEseRSAyFRllbcECxF/OeBFfSl1mKR1FwUhNS3mFcHbRSMujQMtuYcQSko8nSEIYmVhurnol9lFUqDXgxPk3jHxULTMhqezWE9CMzqMwWQzR54U312G0JbLpxQrodpCeAOFpFQAn+KzEIkjEZprysaP70emgBp2KKiLn2Ev/JgEY7Xv4omWwPVrM0LNS8uwRU1oNHzERtzxaEZjAs4JwFeSQI1RQjEC2VNJTsHdtLhOtU9lJiioLRic0FZaN7WRVTCgU57bXH2hYGfJtZIrgV8znr+nB5FVNpES6RKYJBaM3g+i/aQl0qANW1ZkwRxiJoazfYMHo2mzJWQlNV0YhuZs6wSZF5Pq9gcS7uIWZO8Tsp0RyY2BuTBkgjXCq1BGjxkvWuLydxAwRTDLotmB4Isj6Z4mBOIlnZt8I0ZDT/JUnRCGINMOCJFvzYEg5IC1VTkVBypK0XUzR3+yb1QZh3kbRoOdGucgvSCSBY9Iq0LvB+sYmNEv5CM4z01SZA1Fxsc3+2/JbUbbvfo8BkbARMlyQf46UMcuYvBB7SKZZB13z+xHxxIr7pv89OgW0aIAgZ6EWQLmAUSPYDQd5MVyLmrdrtLdnBdTav/vdqdQSVSsVkD4gya35S6E4dIBihSAFq2hAYX6lURqBw5U7Igj2klgOFM9OzpFQBgrQqzJjaWSydDZVB0JoSm7asYSCR2CZ8i+ifsREMGDS0km3IKOeadbnQxB/XJEBIAZIEIpnW73KNaN3CzMkkORCSPrKMXaOaTWonPQs2/8xUZTOquPH7SplYY441lk5DZxbXMZ/bio52jUssFxtkpoxmj6W5FQploavoglLIJUHJAUtMmWKFOunORxt0GqMsVZBIIxMPofPNeS4SsERVhCV21zNBlQRA2hLYWxAaDKduPTCbRRaIxKCmsUkjZCaBmRpjbJKlQi2Y2jfXMjXNkilrZM8RWDZhzIeJPZA8E+4H21SMMQYikLlemXUgxkPOc2MtSfdEG0PBOzAGQf+WYGBaO7gfYvb6YHtjK+irIygX2F7UeX9alHi97GMjqWMBR4KMTEix9VIK+qXwlkrFtq06icV0YIYvFbnWaQ0z+8lk6Bi0bLeMZGjw8bLcbbNYsykTCRikYDUwhvLaVD8UAMU2zWrhMduvjgFM1pEpbdzqUPwgr819Zd0PnCOxK/Iyvgb3iLaaZqdHGQmvMtZTw0NTDNeG0FWiybSIxCpojDcRktWobJAfmr3suzlmF+55nLnNAwSTHWO1VFnv0srRFhAwvdalUplRxVvqgdTQjcaQk46YcrEby4WFBTY/2bocpChLhumVamvUQApgDyrZddSK1Rpg0yFNLUYdO8GRPdmYMKzWYtMCtYCu9FKwoMkUkTN3sFYLg5Yaf2rRJ1FnyChIc8tyeB8Oi6K6RMYjEeM6Hofd1Kt+m5r9nDfRapqmxe3oZnmRKU0rlhmbBy5j4xhsGoXJobRCi8iGtiNjgam7lmjZAP2/nBvTeyM0AQumDrwQwWigzUdOKyPDpG8dp4iMsgHzxhxu9GrOjwnCM0alevdNq/kbC4/Vh602LpM0IUAQuGGCGK21gfdRdwFrn5heP0bomdVptHgzwcapYKIkRPLVu5Ka3WO6phphaL43+0GSmCWYztzXrDeCTO4V7gParqTLoa3LEQWkAZ8jZaVM+3BbwMikUFFrt5qyAHbrarOYy1gtjKtS4YG6SAgiOECjGFBDMOeZVGXjUmiUJzFjN+M2lVdNmIFyixYuBk2zVkLo3hRLqBmglmG2LEJwkPBgjk0Zh0E8trIm4y54joEkhoYcOsdqCrkZawQ/9RaETnKAbRogGCYl9QDtQrNpg1qhjFvU1iVoCFCX/I7JLU8JkCa2RKkBCKabod3r1h9oerZPcFifvJSRlXgE+l2txJPuR7yp6VsploI6QDLGRLNXpa6kLcFqhb5aE63Z0vLzeu0jta6Y0APLzO1JMmoBYFadkfGYstYMEBW7jQhaLfVq/dQyU5Zt2zoGqqEbRuPSo/G7YWxkwVI+0bhKFPKIadVUdxPzq81gJa2MH7fB0Kz91Lh+5BrjfwhQsWyY4zaq35YAoRGHMNGUbU/fSx6+mImtHNU24Fa0SZyABalGSllIqa4mKZBs/OvjCQZdyya5yJi2eW9TNN2YsxvLx64OWWO6BxREqs5szR6OS8u4rcwVzEgyxQwIJrmz6LAwlcFYfcCIW35u7pvQdC5ryfjLjKODgjxGJHmBpvmTWefWJOZoCAoEGjyK5hFzb2Ebdbca72CtFNblaBpfWVekWN/cvWPuoM80LgjDM2SdO4u1mRsZMNBw6dg/t1zesgWN9da8h7nGgBDL92Tude9aGhhGYlyCtjeFtNf2AKGjLGSbBwhmMdKMTCZhC3rUjW7cTiZfXo+xNkWufcil9mvDd2n3jVUGjI/SsraJEEKdSRAekGWwSYt5Z0XrJaMbCI9w4gCUF4i2RQsJUbzRkM02NhqWYV4uRLBRzRpsZnvb6UBpnhQ2K5cStVgTJNMcaSJUHUaDwuQxzRqRjQWoC3sDQlofRt9nCJgZv9H+ebYEbdGowup8ddZtsEu9Er3VeEz3QNsFT5QZFtYhSGCDHrU0WC1xi6GYmBJ/tKCASDDVUlXENnRfCRbWvHqzFIzLXMAc0/SsVWgc+uqeNeufkoZWMiNgqKUqGDRup8bSNEJNLYpWMFq/t0UCVriOnnA1dIk7rW5zshVPrdA2vR+seCOwlEHSpWjifcz6M91MCR+MjGyG4qO5UmMP2CA+uz9d8GMsGjamyBJGd7I1edSBDr82dgOyI/cdLaBw9lyr3aejtVFcxk4il1ptx14kJDU+Fvs0FxBZbUSNmvaVFVBIi23bEt5MaQbFyW/E3CiwTQMEoZLwJqPRitlOFFYuOXobedDs5i66Zr+bo93nRPaU/kGtGyoOP2oTVs2ihiHm+WwCxxr2xEpi3oKeeKOtGN+q8feZFzfuFMOebP8HW9nNOPwceKQBZRpRLJ36TLCnq4eoIVZJY0IEG0ZNsj/zfAryyAIyq0EJq5LqOOZyYSRmDIaJjs8MGnYQvr2tASO3IS2sqi+xEOYQ46rlXap/SZCmCrE0Bc2/Rk9hvwdLLwkWEzZqbRmt1kuj+Y3wsZzWylZ9G6sVGt5vQKoCUAGeNimFBb9sKX/jAZCp0wwZa52ZgKBbAHurDUsLablWV63Z3439ZZsiyaLj+rABAnXhZscta9JawyznENWikVhjpspep8Z/gdrWgsG4S/1cXAwi/CQIqRGoq1G5GoMjvKCRaqgWAt0vsq1dViHZndyrjTPN1WpRNIXSDCg3dJEAUiWguNDs/nG1dZfAjc1eH4a7/+uEkPkmL+D9uM8bO9pYIPg/Ox/iTnLawcvfpjW1gfd1mLNVb4mtbfDbPECw8sAYohm8ZyPYWZmLm5ctXHWDGdO5ORquNlvXP8eZlafUM4q4AcyGpAYraYkZwx3UWCf7jExGIpYKEgAu4iwx2J4xPgZImDQifUtlVnWtzbpoG4DCRFuLHmQJYv4yjMUEn9E9bJidiSpzNBirnxjWTBBkRK/pL2H0D8MybMZInUlZka7pCy1or2loGqxh4g1IA+s2cGpR8LYmiMuOQaLEjKXEPN2m4lnNU1oWi6/CaLexgCK1pLiMygWTHiCMniYDfI1YKpgIfrsZhWqksSBCE5+g0JWCs25nsIBeTs+CuDh/Yh53VFe5Vq1K/FwD9XS0Ev5q16FJIRRQYWMMzJ1Gg1jpsGQTF81LGetb3UInWIOg1bx9yQJgk8jDOhBGepvsA9vDQPa/BbBSZ8iMtSDWMAe42CebH/Y9bVVEfQ+zQnVtNvnEpMazU0lRYXh975lZG08cN8NjzaCwbE3GbZOgLaewbh5lepZmZqYNQJF0TcN5De+yAN+8ogXx5ld/dJAC2zxAcGnZYD0N/9rsWG/O7pzO5E/yNvnTw6qMYxLVYf72PXOnf1Pq4ZbkdN+66dv6V/aX0T+mMzPb6bXZF2T7V4arArurTl19zdJnrPMbYnAiaTWVt9eF0rg2y3o1V41z5uj1N8GJme8zzqoej3qN0Y6mubnGx/PMJmaxXQGE2UR4PxZPAU8BTwFPAU+B2UwBDxBm8+z4sXkKeAp4CngKeArMEAU8QJghwvvHegp4CngKeAp4CsxmCniAMJtnx4/NU8BTwFPAU8BTYIYo4AHCDBHeP9ZTwFPAU8BTwFNgNlPAA4TZPDt+bJ4CngKeAp4CngIzRAEPEGaI8P6xngKeAp4CngKeArOZAh4gzObZ8WPzFPAU8BTwFPAUmCEKeIAwQ4T3j/UU8BTwFPAU8BSYzRTwAGE2z44fm6eAp4CngKeAp8AMUcADhBkivH+sp4CngKeAp4CnwGymgAcIs3l2/Ng8BTwFPAU8BTwFZogCHiDMEOH9Yz0FPAU8BTwFPAVmMwU8QJjNs+PH5ingKeAp4CngKTBDFPAAYYYI7x/rKeAp4CngKeApMJsp4AHCbJ4dPzZPAU8BTwFPAU+BGaKABwgzRHj/WE8BTwFPAU8BT4HZTAEPEGbz7PixeQpMlQKpvTAA+Gsw1fv46zwFPAVmlAJJkiAMw/oY0jRFEJgdPdbveQ3YA4S8KOnv4ykwgxRQPMAhCOtIGp+koWEmHiTM4AT5R3sKTIECBACynZMEK1aswB577IE5c+bU70SgEEURisVi/Tx+pgBiCo8cdYkHCNOloL/eU2A2UsABCLAAYTYO04/JU8BTYGwKqIWAAGH9+vX41Kc+hV122QWnnXaagAV+TnCgVgaChUKh4AGCX1SeAp4CDgUUELQCA+N954noKeApMGspQICgwp9WgeHhYdx111249dZbEccx3vCGN9TH7robvAVh1k6pH5inwAxQwAEBNEo6IQh0VCLgB96SMAMT4x/pKTB1ChAcqLDnT3U58I4333wzfv3rX+Owww7DCSecgLlz5wpoUHfD1J/auDKTi8EdVF7IZCqDd80orllFx9fpsel4midxKu823WtIA/5zg1mme8+t5Xp3fXLMnV4HSicXwc8E7XQdpjYwMUaKAgKEjD5wApvaNbbmYKp2PWes+7p8YCbmQp/Z/LPTdNiWn6drTDVrmtO3pcPdQ7qfXWDQireRFmeffTb+5V/+Bfvssw9KpZLIgbHktnvfiWiXCSDwJkQmnIyZnBjX3KLCcKbAAWmiQll/n4nFynlxQcFMCceJFlo7v3cZ8kwBhLpwtoK40/MgVgNqG/ylECIRKwL/A4oI2h6g6IJknY+O08DSnmPhMRNgWfnR9grW273PldfqPu/0Gmvn++ke4k/KEvJ2vp+u47HWNT8fHBzEb3/7W9x9993Yb7/9cPrpp8tQlT56L65L3jsrmM8EEJoX/Uyhc50cF0W65pd2Tl6re7t0UZTXSabULBhnSjh2mu7Nz1OgNhNzoAyr2fzXScZlXAopEKdiLYjjCGGpiMSmQkmCVIcsCG76VSf3gmvFcZWGTs6Dy5d0XcwEDWZ6P7bz+e5e3xb5nWuVVjq61oCx1rOCB35/5ZVX4u9//zve+c53oru7e1RKZJZ7ufOX5TJpoAAAIABJREFUGSDopnvyySexefNmiaDs5OGaS0iMkZER9PT0yBBmworAZ5IOvb299THkmV6ShbYKEGaDiyPLeNt1js6/Iu92PWes+6pliwFE3JCdFgoKEIIkRRCL2oCUpgTGHFiQ0AmAoMxb56PTFjV9PumvlrVOAgSuj5m2JHV67Xf6eS6vV6t2p8fQrucpP3etwq7cG4uvtFKQyIve+ta3Yscdd5Sfe++9d92iMBnrViaA4ArhG2+8Ebfddhve+MY3totOY95XCUiQ8qEPfQhf//rXBR11GiDo80455RRcfvnldYEwGcLnRbxf/OIXeMELXoCurq4Z873n9S7TuQ/XJDfQIYccMp3bTPlaCoZXvepV+OlPfzoD88BI5xhhWkDc1487bvgbDj/heKBkcqNTJAhgfbUdKIZw7bXX4uCDD8b8+fOnTM+pXsh5IHC/+uqr8cIXvnCqt5nSdTTxMmBsp512GqU0TOlm/qKWFFi1apVE8rsCb1silWtBoLuA73rkkUfW3dljgQTXZeDKQ6Y9fvOb35S4BAKFyVrcMwMEnYS//e1vAhDe9KY3dXxeFCCsW7cOF1xwAb797W/P2EbkhDBy9Kqrruo4HdwHHn300fjNb36DJUuWdEQwuW6Vxx57DG9729vwy1/+ctSzO621kR5f+cpXRGt897vf3RE6tJr0l770pbj00ktnYD0kQBojjUMMP/ggLnzHu/DR//lvYM5cpEGMqACUkpKplNQBgPD+979f1sW+++7bUVoof3jggQeEP/3hD3/o6PNf9KIX4V//9V/xrGc9q2PP5Tv//Oc/B5UmCoB2Hq5Lk/yPe+6cc84ZFRTX7r1/xRVXgPz/Na95TTtftX5vfecf/ehHeN3rXtd266BL44svvljmlWtqskdzsOMtt9yCv/zlL9i0aRPe9a53ScaDWrzHC1r0AGGylLfnb+8AgWR4+OGH8bKXvQy0KmngCz/vtIndAwQgZlhikqB23z348jn/gg/89CeI5y2Q2IQkTFBGaYorffKXeYDQGYCgYP373/8+1q5di3PPPbcje4/PpYt3r732kpx8VvbTAPZtDSBw9fN9n/e85+GPf/zj5DfDJK/ICyDouN3ARt57w4YNoljTyvX85z8fu+6667gWeA8QJjmBevr2ChBcZPrQQw/h5S9/uQTEqP+/3QxirOnavi0IBAh0gEeI770LXzv73XjvJT9BlSb+lGVXExRQQqOa+xQXfcbLPEDoDEBQIfCDH/xAtOr3vve9Iqjbeej+p+l7zz33FICwYMGCelS8Crh2jWGmLAgUpnx2u5WfPAFCczyMaymgtZVpkbR6nXTSSXUrUPO8eYAwxZW8PQMEBQGPPPII/uEf/kEsCC4waPcmajVl2ztASOllSCJrQXg3zrvkfxDNn4cgDRBK5GKpE94FmRoPEDoLEL773e9i48aNYjqmr7ldhxsUXavV6gBhW7cgUJieeOKJ4rJqtwKUF0BozoZQd4Ib0Mg5ZLGlSy65RKwIH/3oR+tB97qGgiRJUt5sIuTH74lOr7/+etx+++3i43Oj59u1KPW+LuHol2EMwne+8x0ZQyeDFDUQkYuGqPLPf/6z+L4VzbdzATXPEZ91zDHHSKDk4sWL2z0FsjncOSdAUAuCG23bTho0v6Qu+G984xv1GAR3LG0nin0AQZHGIKhZr1PPlnXBpi7M7ln1OC56z7n48I++i6inGyE/N8URaExo26EMiXNPgMDCLRpI1raHNt1Y553rkvzp97///ahiMe0cB9+b2tiHP/xhPO1pT9uiUE27ns3n0sXAOv3ve9/72vWYOn/T/cb5VgsC/dluime79j/v+7vf/U788meccUY9cK9dz1N+S7lHFwMtCJ06SE/KN87r+eefL+tpMvLWlZfKt/UemuqoAf4El3Q9/O///i+e/exn4+lPf3ojmHHVqlUpNzRRoJqJmxmc3kg3oJZz1EE054C3k4h8Fp/Pf+Vyuf6oTggFl9B8HiNEOYYsAKtdNKEvkBkMk1k80xlLM0ioVqtS2tNdfNO5/1Su5Zg4Dv7Ms8xo1rHoPuAYKpVKx4RSY3yJyVRIQ3RFIYojEUa6S6gVIAAhDWheCNsKEDiW5vQs9UtnpeN0z3MBNE3g3BedPLQYjfJD1draNQblecq32/Ucva+riCn/U4uFjqHdfJj379T7uu9NbVv5bLvorLKN99dCSaqYuwB8OjTWPUJ+rY2dVH6xbABrJ7DQkh51FwNP5kXj5VryInfxt4tQ4923eVNoq8uJLCDTHWur++tnKpzzroM90ZibN0u7acDxuMhU/57p+AMdBzexCxonol+e3yuo5s9Og5SUGQwCAoqIogSFlGkLpgRCaOspsuByOw93XaiW2W5/ePP7NFux3HiZdr57877Q/dDuPH2udxcUt3v/NwME1dxdX3cn3IudqnHhrif+3ql3475x5Rp/J611P03FYtI8d+6a/etf/yoZDjxoLND3lPVFF4N7cauHK/MbS0ts98LkwJtNWK5w7MTzWzGYVkhuKpM3VeY1E89310orq0Un39+lWydMnGPN00zMgzsWPl+EUbGAiFkkNtpAKyimrBUCBiq2DyS4wF1NmJ1gqGPty05omc2AxLWgdEqRUj5IWndi77lapz5PtVEC43bzYlcWtftZzXKn3SBBgbVaEhQQNIPvqQLvViDhYx/7GJ75zGdKRgr/NYMQAQhqGVBUMR4j1IXfavO3YpRTFX7N1zUvDH2+a9bL61lZ7uMygHa+93hjaR5DJzaM625y14DOT7s30VgCwXX/ZJm/PM9pdsF1glG742enBbYfCAJjSWCoQcrsBSmOxGqKTGagC6J9QQgKFjslGFvNnzsP7Z6DVvd3Gbzy1Hbyhub93qn972rw7vt1wmLT7ObNcx8330uf5crHdj5P792s7LhuXV3j0xnHfffdJ7Uz6J5+85vfLNUW1R3WPJ+TzmKYzsC25muVcC6am8gd04mF1YwK82SMzQyvFdNrBZTyHEPzmmmFgl1T50xprTrOVkJiWqZmp2+z/poidtovBVInka0YaB+gp4G/8IfCgSRgiKI99Cb6t4MZ+NVUIUTz/mildOS5LloJwyzCOO8xKDN3ffAKktstMNV64DbfaTc/UCVS6dhMTxcoNp+7NfP/2Tx2d85dPlTf4kEgLgsmF7A64z333COViLPsBQ8QMs58M/MZa/O7gZ6dEFbKKKclhMaggWoKXFwMRnIXYqtOY4pCM5J0WqcpI2rl/8yy8Kf18KaLXeHYSjDys+muBVeuGwuB+UQAGgMETSUEFKWRYYJYvAm0IhiRz0SGIGhvjjzH1LwOOT76MnX95DU3rea92cqo9NHn5y2w9X7cH0J7a2JXOvDvvN631Xp110DzuylfyPOdm9d5K2uhqzB0KlYgz728td7L5cfN88Q18O///u9S/vzkk0/GvHnzMvMjDxAmsSIUsXMTuF2x3Fs0m4DaySBEFLDFrzbkcdp7TuK1xjzV1YaV4bSyGNQFlSO08nj+eExRmY+b/qO0mK4wnuzYXfeKW1FON+p0/eGOEUEsBfK/UR/SgpAgClMU5PMQtBoYiwBdCynCNCRKmeyrZT5f10qrdCx37WS+4QQnNrc519Ndoemao5s127zG0SoOpx3vO9Z43ec3WzdbWVmm897u/Vq9t/KBTscJTOedtoVrm917+k7sSfLFL34RO++8M5773OdKjIHrSsgimzxAyLhCXGHJWu/XXHNNyytVgDJlhDUC2imsdEwrV64Ee2RwIbA2Q16HK+D0WXfccYeYqOi/YjMeNkfiwmtmzHmNofk+3AyqoXEs999/vzQ0YXrhPvvsg4MOOkg6Knb6UOZJbZX5xBwD8+JdIJllQzaPe5TlQNo22k+sL8B0chTWbP0LBA82TDGwJZjTAAV+1j58MCq1k8Kba4QVNl/ykpdg4cKFuQevucKQ9eXZH+bRRx8VCwY1pAMPPHBUL4h2lALms1asWAHuv8HBQdkPBxxwAPbff/8Jm+vksT5dIb169WopBcwuuww6U74zlTU31tiYk//rX/+6pb/avYbl15k2P5Opz3nQd2u5hyquGqh666234qabbqq7EtxGfsqns8olDxAmsQo09eS8887D5z73uTGvJPF32WUXPPjgg20FCBwAUSKZErucvfjFL8Zll102iTca/1Q31aa/v19QKJt+cJHRZKym1bPOOguf+cxnhEHmadJsNTren4KAjbIIDnjQlMvP+W/p0qUimHbbbbe2mne3EORWcLOq5DOe8Qzp6nfDDTfIGKbDKBUAiGxPWNPAPtmxGsWSo2DiDApiXYit+YD2gwLiwDgabMhibuuj1Y24NgYGBuT92auDzIrrM28Xg5AjSQSMnXnmmSKgm/3iLFz1X//1X1Idjt/l6YZjaWN2USUjVqYrMC0IxIzLcRG05imgx6I3Qelxxx0n6+2Vr3wlfvKTn8iYsgqBrAviZz/7mdxf38l9b70HvyNgYqOudlltso53ezqPNVi479hNluucTbRcV4O7N5rdw+PRyQOEjKvIdS9QO6FwosZOQcSNqETXnxRUbMU81ZSUsZiBMiEdDxcCm2/wb2preXYTVKsBG8EcddRRYPdGagas2Lb77rtL7iyruPFgBS52tsyTKbkMSBke2/hSM+dmICB5xzveIZYDBuB873vfk25lRMwESgQRLuPKONXjntZq0+lnjA5mFTJWJjv88MPrwmM6QoLNluSwBREJEKI0QRASCrCCIlAMEqRRhCQoo1AIgCQWa0Ics8wyU88SBMUEaTK6zskWJuhJRCnqtVzv7n34NzVItj7m57Ty0PeZ98F7f+QjH8GFF14oMQ5cj8zhpuWOlUW59zgWgpM777xz2hq1viOFHjVpzi/3A5/3xje+EUcccYSsQbbW5XioyRMsLlq0KLdXdwGOS3OmqvEf19npp58uAGG6hwv0dX1z33/5y18WvscqiupKcJ/Fc/l8NgHKe+9N9522xutbzYPyQl0P/Mn5ZwMmtjinTMpL7niAkHHV6Cbp6+sTEyI1CAqkf/zHf9zCfOoyk7wmSmSEG5iWptJm+bTTTjPyI03FgpAnQOB9ufjIdChwCYx4fzJjBUXXXnutaEx0OXz+85+XhjF5Hs0CmUCE5b7ZUvd//ud/sMMOO9S1JVpRSA+6WyiUyLBdf2he49JN6/6kQGIVsscff1zGwx7uql1OHyCkCBhUwHkOA9BiEKe0DaQoIECapKbCAYPl4gjpUAREMVAuAT0VBIUCEhZBsz4GAQxhuKXZPyNAUODIR7qAkK43thxmzXqle7sAAoUzhT8taGw684UvfKH+PqQ3XYBct5yPV7/61fh//+//Cf2mOheuNsyW4l/96lfFjcTnHHroofUCcnR1POc5zxEA+9nPflZASx6Hy1NcDZ5FbmjJIB04xle96lW5AATlKW5MFYE45/g//uM/JD1uLCtFc1xEnkpDHrTcmu6he02tkO7YORds1EVllGucP6djrWxFFw8QMq4WXfQUQmRMQ0NDslnoStA0I7ewRTvQszIJ/iRAeepTnyptXrmJ6YcneszTxcDnMC2Gfn0uPFoLaM5t1jwprCm02RXsN7/5TUaKZjtN6c5n0npAqwDN1ewip0DFpQtN2tTiaXIj82ZdfA3MyfbEic9yLRus+89GUV/60peELkuWLJG5ydeCQLdBINYCBQjMXQiSGCHLmIxESDdswIPXXoeRaAhPjFTx0IMP4+iDnoJ53RUs3m9/9Oy5J1CqAAUbiEC84bgpDPrIlueoTEsFFd1P//d//yeCmu/O2vwUkJy7dgEEBl9Ro2X8Cy03rYJ1+T2BA7V4xgqQgU4VIJA86sZi3jj7AVx88cV4y1veMsrkTtowYpz/nvKUp0hsRF6H+478nZYKWi64BrkXuCfyAgiuhYh7f82aNZIvz9/Zf4ZutIkAlxvQnBcNtrf7NCtIVNgIjsnn6O5luiIPN2MkT1eaBwgZV5xuGDI8+le5+fm7Hso0OTnqn29HZTEdB4Uxm9F86lOfEhRJl8cpp5ySO0Bg8BObhlBbp/Cn6ZTv6GqPRK8svEFhTItCXodq6LrgP/7xj4spbdmyZeLndJvEkFmS3jT/0v9JoUWfKQNFmwHNdMfnmv1Y2lljMT74wQ+KRYOCMj8Lghmthh5Qhpt4g8RYCao1xCvvxV8+8xns8synY9/XvhpBby9QKIpFYeSxx/Crj38Czz3hBCw97ZUAAzhDkxopcY3NICEjcUhTpQPdPGyWxYPv/atf/UosOLS2tQsg0JJEAEgNnfFAzVkNHB8D6thtlOuEQZMEb1O16OkaIjCgBk0XCq1pdGdx3ekaJU0IFglOGCxJl1dehwbo6t573eteJ9YCdnHkGqRVI0+AoACA705aM86BB8ECwZbGKI31fq7FMy8abI/3UTpS6WEzMCqDtNRRBrnKj2tlystq4wHCJFYcJ4A+TwoC+h3p/6dpmUyQk0fT4mte8xqxKvAYywSX9ZHKhF2mRibxn//5n7JAqLlTaFNbpcDM28XgauauqdE1cVJTZHMPMg1aFwhWpip0WtHFHcMTTzyBhx56SIQ/LQmuxUbPI6ChhYdBa2xjyrgMnpfXmFzrgQYgUpuipnr00UfjW9/6lgCEvCwIbMMkAsHUR6TdACx+StcCalVU77gZv//IB7HXAYfioA9cgHTJYiAkfGBqY4pgeAQDf70e13/6Yzj8zW/GkpecjrSnLHEJIesiSDokSy2xa4OpnDCZg/QgQPjhD38oJvV//ud/FusBzdE0e7cLIHC9M9aDMTG0cLnrk+OnwOaYuE/oCrj33nsFvOW1DlzFoJlexx57rMQfvP71r5cx6DOnG8DrujloKWQQJi0IV155pVgsCEzyAgjKv/TdaCV7z3veIx06CbwJkGjR40FLJvke+QDfVd/TA4TJ7KTW57r8j/Rm7AfjO5rXcd5KkI7GA4SMc6iLnVo6236qGVU3hCs0ySjpp6Rg0tSTjI+pn+YKInfyaUakBYOR2dddd53EBfAfNSQG7+XpYmges2ta1tSyiy66SDQ1BsgwzYoMJC/0mpVmbrAUBfUHPvABEQoEExoklrdgUCZIgEgrhTLvr33ta6LRkXHnEoOQsoaygQiJiH2mLAYIaD1YuwH3ffLf8ODVV+L4H/4IpaccjrhUkngEllZO2Z8hKQB9fbj7g+/FxpX342lf/jZw0B5ICjaAkRENAWMYinLvLPDAXZscGYNV+b7cE/yObi9acQgU2gUQxlobrhAlgOYeodWLLoY8swpcbY1riy7Hm2++WYL4KEBpWeKzCRTd2hBTVRpcUzOzeKjN09RMix2BKYU3LQh5BSk2m7bZvpuWE9KQ1jq1ZmgaLy0pBIoMHCVv4pH3nsvKD7al85TnKj07TVMPEDKuJk4UN4YyGf485phjRFuktsTAOKJsCnBuHm4W+kmnY9JUFM/78T4MBKTmzMAkmv3f8IY3yCakBqUAIe8gRZc8yhRVc1ZmTFMqU6woFESUtbEgTyvQop/RL0cTN59PIU3worTLOM0TnuZqRW58hF7IKHbOfV4uBtCdw8DEgACBrp0QYcSUhioKf7wBV7zhzTjutBeh60MfRLpwqQlepHcBNYRS/6AMDNcQ/+oS/PVdH8BhF1yAuWe9Hom0QjYWBIY98nfp1ZAFIdiXbbam6HqlNWkmAIJa3Lg+aXqnCZ7mfwJYuuSmq8E3Lw7NWKLWTmuVvj999X/6059Eo24uHDVVBq+Cgu9AEMB9TlBAZUTXO8GppjlOuJAnOKFZ+3/e854n78Tx02Lw9re/XdxIy5cvB59LMEyXA4MX6W5y3atTfefpvsO2cL1rjcmbl2WhjwcIWahk3QXUjCh4GKVNNK3ma96Cm4MMg4CBaYfUICi0mXIylUN9qi4Tpg+e/6g9MP5AwQcBAgO1GM3cbgvChg0bxJfrmr6oOZ544omSc860r04fHAsDtRicSK2KgIUmZVoP8i6Q42pWiupVK+ScMXCN2Qz5WRC0MBJ9ASkCRirWEqBYw9A3vou/fvazeO7734fgrHcgKRpXShAmiFBFkIYIkzICBjJefx3+evrp2PO0l2LHf/sQ4iU7IQiKEs9QTCJxSyCW/tCZQIKmN7ZqQUtX0EwBBM4JhSeFNt1+jEFgTQIV3nkKK96fgpApwAxG1HVA5YGZTrQ0Ll68uJ7xM1VrorufyHconPlMxgWoICZYoKBmFk9eaY7q3+Z7ve1tb5M0ZrpYmbXEd9SDihMtJxdccIG8Ky0opLt3MUyfEyowdLMYOqmAeYCQcQ7HMvUowlNtklo+Tf4sEuOmV2V8zKjTXHBAcyUBAIUfNeUFCxbUNXUCBGYb5F0oqZW2TqbIZxEk0IRM/yeZE9+bhZQInvJkwlnoRnBA0KQuBRZKoq9Oj7zH02xid/3f1J5yBQgSd2BjECRIIDXpjJv7sPIdb8eaK/+IZ3/mM0hf/VqgxJoHoQESBROvkCa0IiTAXStw7SnPw9zddsZBP/ghCvsdjDgsSknmchIhkboKjETIhA+2SLlVWpM2tCBQe+60i4HP/vGPf4w3velNAg5oNWDhGK3q57rqsqyrLOdw39NqyP3IPfC73/0OH/3oR4UGBIn01XOvtIrhyXJ/l67MmuI9GQRNbZ7plboWmV5MId0OC4LrtlGg5Y6dY6DLkXuOc/6KV7xC6O4BwmRmuPW5riLWLn423ig9QLDWAQb4cJM1b2ROEKsE0q/drD22QnI8h4ViaNZkUBSBAlH+WAfPVy3XPUfRO9E5g73IDJhiySBABgS52qvrYlALwkSbk9/TZ0mLiN7LfT7fmRHiE5UK5n1YmIbvTK2S2gMZxERHc1oaQQYZXPNBOtAywXduFQBFgEKNhge1NqbbMQ5iKofSjDEFjMRvFij8m1rU8ccfP+btqcURIOTlYmDNA80+NC6AFCE1/vWbcMvLX4bo3rvx1C98ATj9lUhLXGdFBNYSYLACz68Bd6/E3044Hj2lMg74xS9RPOoYxGGIKAAqaSLVFgkNsgKE8dYzLW2cg3YGKdJipxo51wXXHl16rHLKvxkrxNoHLKaVx+EyauUR7vpwY5AYk0GwzOOTn/ykaNaTBSfNgoGCl2XUGfzIfUuNXvkP9xKzJjRIkRlH0wXFqhCNFwynY9R9yXVPgMyYCLpclU7THUse8+fvMTUKeIDgAAQtaqJBb7qw6ec799xzR23yVhtePzvjjDPEzMdUIKJ+DdrRKVLfpYIAVwg3o0Qtm0nT9Wtf+1qJknd933wmo6ZpUqfGRAHNz2jqHyv+QQUhBbIWNnI3O3//9Kc/LQBBxzjWJldGwkh+au4cC60dEx3N/mAGdTYDBKULI8GZIcGDz9NrWahK89AJkuh2mU6kus47AQLN1O47K82ouXUSINAFIA0akaJoYwTSZATBkwO4/eUvx9A9K3DsV76I9BWns+Y00pRCnkWVGdDI0syMWYiBu5fj7yecgHK5Cwdd+iuUDjsSKWsi0NpgAhEmLcRazTHp1AmAwGdraiEzVuja++53vytgnGb2H/3oR6Jp5324glMFI5/BteqCFqbiMiWSe5Kg1VUEsghMF+Dzd6YzMwCQ65yBiVqojM/mPid/Im8gOKcSwbWslpPp0EBpzDHw/Th2N77ATe9koTQqUrQkMO1a92mW953OGP217aOABwhW6DA9jr0TmjVv/s0Fz/KiXOjaqIga/VgMkmY+Bi0xWIlm72ZG5eZs855jNX7i/Sl4uSHdClnKpFo9X5kWN6ia2VtpAbyW/nqe18r8ychvpmu6wKHV81SoskiTCmjScqJD76tgh7RvdR3Po2WAYEsPmo9pRmbtBZp1yRTpm2XMwUS52eONS+lKFwrrKbhaof7O5lTjaaV5WxA0tVEsAaykyQqISQ3BwAjWv/dc3HfpL3DsZz8JvO5MpAQIYPpiiIT9GIIEIUqMWARuvwnXv+BFWHLwodj72xcj3WtvAROFgOeVxJIgIGQyUYotiNlJgMBnsTAT1x41a84RhRQ1WbXa5SWcXI1e5sJWonRJ4CoNHBPdDXR9EVQ2A/+J9kdzqqBatXidu1/d+yiP4DgYA8VCOgQU0zl0P2l6MVOItY21yyvJ0z7xiU9InRJmWTFoUcfZSZ/5dN7VX7slBTxAsDTRxS5s0pY0diOQudjVv8zvKdBYvaz54HcMIGKcAM3i//3f/93ynFbCxz3RBREUkHq4m1LBAH3w3MhM7SMo4TlkSq3yZfU+zSb+sTYHA7xotiWYoIujWTgqQGCRJDJpBiuSMU50uPRWpteKls0MkelkdItQSyKNqDnRHTJZBjzW+JrH5Z6XxWTaDoAgY5BYxRiJiPAqAlZVvvjbuPbCz+DZ574fwdvOAkpdSCnwGXsgtQ0SIC0iiELghr/g2tNfjf1e9Wos/dD5iJcuEwtDkRkMaQm1wDRzmm7Dx04BBBccUBhRi6bVjoKUR94R37ou6NKi1Y3AlGmN3HMKGJR3cC/SxcL9wmA9zXDQPZ8FtLiaOe/LmiuM72nmU3ovxjywPggth0w5Jj1oudAWvxPtx1Z7TwEPeQCtMrSE8p20QJn7HnSFMpuLIF8DJSfzvpMdnz+/MxTwAKGJzs2mb1fTpemcGgEXPgUBc4NdrYHXMvaA/ngieArMiRrVqNY6VjxDs3bvjo/X8m9W1HILJSlwGA+5uxqRPsN9F/2dTIk+fv5NsKPxDy5gYYoj6cKxMCgrS8vp5uePJ7CV0fD+BAM0tfIz+lzJOPm7awrNwoBbPc+di2aNkfecCYBAIU5nQYGiO2V2Qgiig3AkQXjNtbjsrDfhOa84FXPPPx/p3KUIwlQ6QqchMx5MASQMDmPk0p/j2vP+FUef/0HMO/NMJD09iEP2c0gQJiXEYSr1FeSYRKpjK8FCYeUWStKKb3myNFaTY1tjAnFmCnBv8pmt1nAez1XBTDDODA38Tq2BAAAgAElEQVQKRLo0/umf/qleal3XCP3vzKjheqXbjO4PF9hnHY++S/Pa1nu570oXHdOsGRjNQE21cExnL+i+oquEyhBpztK+2hhKARGfRYWE+55jYiE3pphm2S9ZaeHPmxkKeIAwCbpzw1NYatdCagbMHKDGQMTOwDbGH3AjMV6AG2WqdRCyDosbUtMcOTYClLwOvi/vT+HPXgvUHKiVkDErc2JxJJpTtZJknlkMboYImRABFxkv6U2f7Pnnnz9mMJYKey19nRdNWt3HNQd//etfrwcpMibDdQ1NZQwGHtBbYGopUqiznXOhWgKefBIPfJqFkv6A43783yjudTDStICgxHTFBFESoRgGQF8/bjz7LYg3bMCxX/o6sPcBAgKSAoskMcvBZDPkYT3gO2qaowYpEiDoMRWB5QpXtawxLoXVTHkwnZBBga32WjOgnsrzVRDqvdigjYGzfB4DdGk103MIDigoaWGgi48ZDtqrRa0aUx1D8/pR6x3XmDaQYnqnNqaaCihxgb9gRVsZkS3dWXuFfzP2hxUz9WBQJnkP+R4tOIyDcsFDXu87lf3jr5keBTxAyEg/ZQ5kfoyQZt4zNz6Znzbo4WfcrNwsZCDUbDpxMK2SFoS8KynqO9OsyAJNDIRkxTRaRZhuyWA07UdBEMF3ZtxCnj5HtZKQydB0qdkFpO1YvS4UvNA1QsapjK5dc6FghPcnQKDGSDcThYUGk00bKBIXBEA1iFGm6yApIYhqqN1yI67+t4+hZ+dd8bQLPwnMWyRNmARIMFxxcATVP1+DGz75GRzxnrdgzgtfjKQ8B2GB0IMtogsopAUkQYpCwqqNpnjSVA51W3GPMM2RAIEaPgFsq3oJWZ/hCjo+gxH9jAlicCLXxURNmGjNI5Cdqrmd43QDg7nuGWekwYLcD1yPLP3MDqK0LhAcEKzTPejuhzyFpQsQNAuI49IshukABJ0bBWSsf0Klh+5DvgPnlIGYdGuQ7/Gd6VYhnbXVs7cgZF3hs/c8DxAyzo0KAS56MiamL7EPAiuJcXNoTfhTTz1VBAQFaZ6CcqxhclwMHKLwbkcvBmUy9P2zSBN9sGSCtBgwHoEMkEyJGkYeUdPN7+l2JuN7MkiUwkYjxpVJutepeZX16dk3g+/QzrlQGnEMrKSoaY50vUyUJjrh8rPAQDT8NEESsJ5igiAtosgODUODqN12O274zvex8IgDse+pp6K8dLFJfagm2HDrHbjlx/+FQ086EUtOOQnoZjlkYocI7P6coiQWCimYJP+fmh3BjWnRSopqQaAwmc4cKH11LTCoVzNJ3Pu2WgukL/cihRhdEFNdBwo69T3JA1g0iBY1gnM2puL6JzDiPmQ0P+MBXBfhVJ891hrR9+UzFCCoBSGrS2y89dfsZqNVhC4+vjMDeQkOaFUkXdkXQl1/+mydrzxB0YT7xZ+QKwU8QJgEOZvNlapZqHbkBhZ1KkAnDy1hLBIQ+GijI2XE7vNcHynvwXNdgT4J0rY81RW8rU4YT0NRRq5z1k4m5bpCOE4FBToGHeeUBEQKMf/T0VC0fRmSlLEFRdMCmg+sRsDARtz/hyuxYeMAlszpwto1azBv550xFAGHPesZCHbYWQop2apLQECYYe6T0IzM5k4a6zCFiVM3Gy/lGtAsAtKA/6bb2VQrN7r3dYXgWADEFXIc21TXgVqy3Mqc7phcgKSuBH02wTStGC7/mAKJx9wj+hx9tzz2oI6V99K97dLS3Xuu8qTz0I53zYtm/j7ZKeABQnZa+TNnkALKnGZwCFN+9HTGzkJJAjrYfsHWKwBdAUmKlPEFQSiuBwYwhiMRUIsRj2xGzDLA3XMRdvcAxQAp+2NInSUTdyB344ViMGBUI+NNWKZ5ahaEKROnQxdOZw46NET/GE+BWUcBDxBm3ZT4AXkKNChAPZ8QociyiKICCzZAIFaERBo5MceBnxUo5/m9AAFaBIzBgBYC0yw6MnUS6JxIzP3S0BRUkpCFacQf+DnzFPAU2PYo4AHCtjen/o22IQow4kB6JFh3AoV/LMmLAgtE7PN7pKGxCLDnowh9nsMUxgBpUJT6CAxK5OfFtCTnss1zEpj7F8BeDCY+cYoxitsQ1f2reAp4Cog+kk7k6PV08hTwFJgxCkgnBpZDTkKkhchCAtPbg4WNWCbRFEHkmSwtbEIO00BMAmItMJK/ZoEEXQt0S7CFNK+NUUAZsQAGehxoefAQYcYm3D/YU2AWUcADhFk0GX4ongLNFBD7gPgNWLeAQp7xCDZAUbwE/IKuBRNjQFhQ4N/8xsYXSAEk2zVa7k8rhFgiamKFKMRlU33Rnj/VQD4/e54CngLbFgU8QNi25tO/zTZNAe3sOAUNX/0HDn2sc8IELkzhlts0qf3LeQp4CngXg18DngKeAp4CngKeAp4CW1LAWxD8qvAU8BTwFPAU8BTwFNiCAh4g+EXhKeAp4CngKeAp4CngAYJfA54CngKeAp4CngKeAhNTwFsQJqaRP8NTwFPAU8BTwFNgu6OABwjb3ZT7F/YU8BTwFPAU8BSYmAIeIExMI3+Gp4CngKeAp4CnwHZHAQ8Qtrsp9y/sKeAp4CngKeApMDEFOg4Q2CyGtd8DNpyRrnK2EqwtIiu15VMWkZ1tlVvcUnQTE3b8M2bbu033fbaN67PMsPQq8NOXbcKd4kxKW2kaxdLR+oE0m/KHp8DWSwHTCM0crGTKo7mnydbKMjoOEFgzvi78bQVY84m0nJGa8mxhOzsPnf7pjm62vt9032vrvr4hqFqJLLPFt9aNPqMzY7e86RJhDtO+2jnqiMH5TJpPSceYLYc/7e+E2TTd1ylJvcUzx/uOt5ruWFuMp37PbXmsedBuvPWRJ11bjZWSyyzwuvwSaWbGJEpwiyqmM7ofJ/HwGQIIdoSB0R5c+s1uBtyCodSJnfW72f2Gk1g72/Cp483lNvzaOb9aw2pgftO97gIt6TNhOGtrYd3yO3uHOuOYzLUuw+7EdX6sMsG5z9UsoSubnFG5VSAgvdgbbdfZ+CyQz7bOcuYdBwh0MbgMQrmC6V5vj/q+zSp0W99xNMdxBfNU79uO68ZgjpMGHs00yGus7bpvO+ajA2PdOvd5zqI/2+0aFoNEdndDHXDhQNFbZbKR0581WylQBwUWDACIQ6ctu+NOn62vMNa4Og4Q6ooCURZ9kfxAnDimG51rhhxD52hCEa3sDyocJ/pOBYoKK/e6UXqOo+E09CIzEPfa8b5TIKDnj/fMqX6n4xnvPXQcnRhrlvFsTWNlO2TvZsjK5EatMAevUuOSBpNpijAwzaWNSbZxhevQUXOta2u0Bt36laOvbeyfhu3CrMXxr2us1y2va+z1zo01y3iUOuPRrhN0zTLWLPO8NY3VrCiu48guOYmek+6qQCIW8lTasm+tLdQ7CxA497FQy9gR6tpYYzvyNzHLNCvAWbmSP89ToI0USANrTmzjM7aVWyeiADCEoIUfNrXivjkcx434aiZEO76bDrFn23jGe5fZNtZ2jGe8e7Zrni1EZSN2LvOSuBQ09iC1LdcD1z4+nZF0/NqOAgTK/Aj1PAYhLYOVCqLop0ikR71lKLOWpM2ad/OcuVaLyXzX8bn3DxyXAo4mI9quObnANevTGCZeO2oKDIFaGksIciFURpkIH+CnJRQRih93y6PZjuae0Y7vmu1drfAJP5tNY51t4xlLr2vHfE31nnnOM+WXaLvkEVR8NcY+NYG4VCjkeVspz+goQCAlk6SGICwgItXiEAWECElVgoeCAQ+zN8bfNYeP5yoY77vZ+3YTc/3t5YzR5m7XqUCTuAcIGddBCsTc24UAcUq1KkWY0P4aS9AWFYIwDRGQs9bFrguwW7naprrvmq9T0eoC/lZxMZ0az3i8xY+1PeujFV0VPrjQq7EGgnqGnbNu0gBhHFB7ENAbFcw6Kon33AOEjNxCw5gTDAXA+iRGVChhxMkZFXOkkwrl3th7HLKT2Z+ZHwVckcG7LkKKRVtx0FF+lBn/TkaxSsQ6QNtrNQA2BkAfgBqZp/1H5cvv7U7Nin/OdCnQ2npUxY4oo4fmb677gjEq0DIuUQgEwltpKG5nLQhC3RT9QYAr163Fk5UKRopitEXIgKVUQj7EitDJQ9ONt3ymDWoSU1FkQpxSjtVAmUQDJQKuDJOdoVhT7CASeBkj5T+5IkSQFD1L7OTkTvZZggg0s9lcLIW9kKCYAIcWCnhqd88stnJN9oXbd36MGLQRprUYG0oF/HndOjzRXZGArmJaQCkOkQSRLSHQrEHnoc3rjmxogGlg4pvMnm+EP2pQ5OS+M/c1fMECncANGtTcePPThGKodUrDJZvHo/fk+CY7VrNSW1+X/1hNbEmINIwRpOTbBSAkLIzEMlRMCojDxIxJ6tuYWBSea8IFDA+lJckIUwWLOl8aEqx2fF2r41mDxvrOXeet1lbzvXXtMNhwNF2VK1g4gLlxFSfMX4pldCvEgNT504JqpIsHCJNhMin6EODn/f1Y09uNakAmwcAOy0wCLqixtYqJvmtMaytx3/q+dYBQL96itozGPSggzNYOUCCQSakJGYdTWAcIPMOYS1NuHBQQyIqpyeYIyCyT0KbEGoY4ns+u09+NNZ7xfH2GjXX+Pdox1larWC1aQZCiKwKeGsd4dqUCwjzBhxp/51ocfaaDXdvcBwbyrwpCXNE/gFW9XUI47qNiwj3SKD7mAvXmIOVcvvPQfDKMeuJzrXsoLtQQ0oWUlo2CF0ayN8pxEdVCTDtSHVCnaSIuOimURRdUEEhKIBVEchEKUx4F+YXrI7R+fCqQ1Matyd5lAE4NK+FHTYyzWQF0vx/vO93bLfmCfQbfY9HwCE6d04slSMGk3QYrqJcFm5iWs/SMzloQ7AalmfHnA/1Y09ODKheILIUEQUDoRaJ22k/vVkjcEhxw7sIkQC1IUQsilAz2RVWwcUnQbyLAJkUpCRCFBRTEwFoQ4cllrouyhgjFTJUiO02DWbpCOzqshhVIoZ5hYmZFVuIUx0QJjquUPUDIMC+SzrgFQOixFrUApYS7vlGEMMMt/SmziAKSyifzF6FAa1FcMVYh/hemCAoFjCRVICgZThjQthAjZiwKQpl/WlXFPiCh/5YPC/AwUj8NDWKQYEDhu9aOPy4d8uedUs+rhcZWSBMsHhrBy+f0YrEHCNNfnVwCBAg/GxjA2p5uVEMz5TQ7iViVRdLs+Z3+c6d7Bwp/+k4JA7pSiv6qWD9iVAQgEBAgTRCkBSQhbQWM0+Z/xbrB2sCKWHK//TH7KEBtVk20ygs4U2R4XJGVGDg2jnF82QOELLPXDBB+2z+A1XN6NDpBXDY2RCHL7fw5s44CxvQvKlUaIwrKmD8CzBkZQlxIMVAsI6LOVwgQEWgzyj8gpzTZa6I4KbeXQFUCA7MmCCKMaT9FQXp3GBfFTIWwj9VjgQBhyaAHCLktzQZA2Iy1PV0WINBkT4BAd0Nn4w9avVirEahbwSxcukNoOCshtmCmGMcoRzWU41jQcn9XBXFo0rvop1MfpPFC+nI7uS2oHG/U8FQ3XCYGIEjEiQcIk6R1AyCkWBUEUICguUoFccNRc5zkjadxel7dVKYxhK3i0tZ21Oah23gKiTcwPoPdV96DTT/7KXbecQdsOuBAVHt7UdxtL2yeOwd95RBRULCxZgQCiViTyEtjWo8lvksD+4wbqmFNHtXxoCM01GiR5oe56h1dK8uGRnBqr7cg5DIpJLpxMWzGGgKEIEDEamqilc8sQBjP508Rn8SpNXklKAUpYoYXIER3XMOSkQHs+MTjGLj6Ojw5sBnp687E+vk9qIbcEEUxSYvYSQIkhUZwVC5E9TfJjQIaT+GGSRmhkqArBo7xFoTMtK4DhBRYFaIOEGgl5L4pJAzi9SI7M0Fn2YnSkVc0/kBiBkaSYRxz43VY/eGPYPd9D8DDz34enqxG2LhmPQ54+jHo3mt3RPPmYahUwsZCiIESkNAdm6QoFOmO4v2Y38LqhAaam7hGxh6E8n04CxRIZeXkFeJiGB7By3tNDAKVQx+DMI2FqgDhkv7NeKJuQTCLQQFCpw3wyqKaAYIqNjbs0DTdEH8Zg3JjLKzVsNPgCEpr1uMvv70cB3Z1oXL11SjGCcILv4hHl87HUCkUdGyC3WoIWRjGKfg6DVL6S3OmgOvcGu1iMDEyZetiOM67GDJRflyAQK3TCoFMN8vppLEzlnJ6wLZym+Zumy3eywQQUoDHKMQhakmM4264Gg9+5CM44lWvxfJXvhYjIVDsX4uBhx/B2jvvxqbVqxGUSjjilJPQvc9eGOqag4EkxFAlxWa6X8NuFNICGHqQBjWx1lLspnEBhQJBwswAyrGCZD1AyHnB1wHCwGY80a0uhtEAoYMWRwWDLd+yXuRCUpiIcCN0pyl6RyIsGq5i3a234PGVK1CaNw+7HHok9p+/CH3f/iaG7rwd+Mo38fCSRRguhxKrYMxldEiY4lCdfsecp3GbvF1WF4MHCNmmfzyAQHMyXQyEzV5oZ6PnrDsrpcWX8QI1lJMQEQN4r7kGj3ziE9j7jNfihte+HsOVEOUgEp7Z07cZhf5+lJMY969YgYEnNyCNEhSLJRx07JHALjtibVc3NhXKSIIQBdEUE5PZEBTFWjFbChKqIcMDhJxXpetiaFgQjKmKwXszYXxvnaYn+NgsSgBdcYo51SF0923AwH0PYvn1N2HXPfbE/s8+Fk/2lrG5Mg+LNvQj+N63EN54HdKLvoxVO+6OkXIAVlCQKgh0t4azu1ZkztO91d2ueS1YESbuIe9imNx0jgUQbAmluouhkwBh5iOcJkfD2X821agYRQYh1hI859rr8MDHP4Z9X3MGbnz9P2Kwu4jIdC4Sq4BketUiLEpSzOnrR7m/H5Wkhquv+APicgG7H3kIlu61F+KgjMFiBRu7imKFNRw0MLEKM3C460aVO5FZDFL0Lob8ZqRVkCKzA0zQ33SKCLn6X2O8WuLCfNIIOxn9ufnWDcyhC4GLviuO0RPFWDwU4YE//RF/++2v8eb3vRvrlu2AdT3zMMDI3AILvwTY7cl+RN/6BnpvuR7xRV/BwzvtiRq/t5VkCwnPjQUde0aVZU255sT2O56aLQgaIsUsBh4+iyHLnLl7z6Y5NsUgKECQOggSqDa5+07nbMmSYjCc3fESHa9FziSVTcNSRz/FHeLovWuL/1iboCg4crJdTfKnuXr0dya/c1R3yfp1hhsZLdVAVi3spJwq23f6zIZX3Ayv1Xia36MpmazJ5WDGY8pnF2MqPylqcYTj/noD7vnkx7DXGa/ELa//R2yuVEzgoe1sqBGpaZIIt5dshjTBgiqweHAIQ/csx0+/9iWMDI3g6Be+FEee/gr0sZheEKBWKGJTqYQqSxkzwNUU6Wxw9oCVOxs0kwBHKVY32i3BNWDOa/AU85n5u1Wi/ViciGNfyjRHH4MwnW3pMo0EfQhNkGI3g/iASNJZGIMgyYKZDiPqdeE3BL9iTf6MUwZAor4QhRlpwSPWzw4KkqIoee4swhHHqNC0lSQoJREq1SGU167DTb+4DLsuWIjdDj8YwX57YF1PNwbDMuKgKMEz3CS8ZpeNfUi++XXMvenvSL74DTy4404YKQXCBBlhY1rcKgJWlmPeoWE6a8UtnQ2+BXXa+Z1utuaHTv+ZnGdJc6vnQDNVNJBmJ1p5jJoJ14Vs3LQgc0kgSRcNs0lk/nMse8yxaFeAVkGKHiBk2pr2JDM/UjCsCSDIPpwRFwNXVIxiUBKZ0VVLMC+KUIpHMBxGSMOS5Oa3KvvVJPMdQpj9qibnBthpwM1xvxuNJZxarFvgDGdcWqGxUairISbH/y7zWFs4QZtBEisoJkENxahb6hOwxsGR112POy/8NHY987W4+TWvw0ipawIAaJyvXCTdUYxuRn4jEv5bfPhxVJffj5W33Yr18QD2fupR2Pdpx2FzbxfSYgVVFDFcIHAAqiEDyI2iFqVMLif9iiIDKPyL/F6qPTYKGoS2DgMhASs+GqRhwIg0EDRRk+Mu+mLigxQnwxUmPJdTlAdAMEWZFfsbxi6fUMBov3lZDrRMGLSKtMgioCZtjWmVIpVt7m3KNLYIc6tVdG/aiKF77sG6lfcgLZWxz3HPwtAOS7ChUsRQsYgaCiilBUHFsYGikuazx5P9CC6+GKWbr0P65a/i0R12x5DY1dicxpSULSQlSeUctezqba9d8rV2fJgzOv1dG56ZWoAg1kdDDaaSmrljHYkAVSmYkqKSpIjDEMMFzictOyxV1Ti0utqEi2+CEzxAmC4F3ett5dEWAEG1+BmJQUhMPn6YxtjtsceRXnopCpv6sH7RItQKIYKIgD4QYTPxkVWdmfhOW+MZYhlIUgHuUjE2LGKXh1fh8dtuwW5nnolVL3oZBqntZ6BlzQrlEjPDhCck6IpizBmqYmEUCXB4fMVyrFlxJ0oswBQAi/fYA3P3OwBDSxZjoFSSEHA2SmJmBHMhQsk6Mx2ExZggEoIVPA2oMOX9DeVN58VY1gbBK61bPBIFDmNMkAcIOa/cvAACJ5fixMACo5Vr6VtjJ2gAgySVOl+2N7eUC5crgiBGElfRlRoXwpw1a7H+ruW4b+UKzNttTxx4wvOxobsXm7pKGEqAsMS6B6yHlKLINMeAeQkGAXdFAfbaMIj44m+i55brMO9zF+KhZbtKsRBWFSukpvyoAITQlFwafXTQzprznE7ldoRIgtJtVkh9k4YG+BVi2coYQYThchGbi2UpmFIIWOe9hCQ1JVrlupwcNh4gTGUmx7pmlgIE6ZyTIqnVcNjyu7Dq/AtwzDOPQ/X1r8P6noL4vo053B+2cYIhRN004ionpn13RPM8LXtxRTK4okKC9b3dWFXpRki/qmQ7jM/fqM2L0m5Pk5JI5LFpbErbJ0AlBXoGh7BkhNVoh7Hyphuw+vbl2H233bHrQQcjnTcfm3u6MDx3HvpKJQyGpikYY9uSkEXtOM4UlAd8N6l2K56VEKWYloMUtdCokOXYlHmObSXHsVaDBwg575O8AAInmyyoSMeE7Y1gY2HqfUHMwpYK36ajlu2DIM2T4iqWRDUs7htC7eGHce+Nf8fm4RoOOO54pLvsgmjBIgyGAarSwJNogszDaBbSXkqacLB0qDGNl6ICdhwYxKb//Dbiy3+JJS99BTb0zsOIVE00ZZjNeLhkBWbkTNmt6HZN/QukjKkgBdZxN6bZchJg0XCEwtwupM9+Bu7fZW9UGDEd1oTZmPZYAvNkPvI4PEDIg4p6j9kJEILYCJ4kBg6//U48fv552Oekk/DAW96EJ+eXEcespp8ly0gjluoha/bFXbfnVL8ThuMEAbj31O/cnw0Xa6Pq1GgXZj0mQkaZ5TspojzK5dF8nVjuWGZZCl4BQS1AUmSDJtPKO0kTFLlnyf0mAAim1oGxrBrLknE90+VYDpghEUmQY5lAIWGPG7a4Gcb8Wg3B6lV46LrrMbjqCZS7y1iyyx7Y9fCnoGvxXAyWS5Itt7bcjSQooiKVbAOEURERrQshC9ultnFYKJ9xxJQpWQ4PELJQaRLn5AUQVOQyOEZcBVxMFjQYm5ZpEUL/tSw0avrVGuYilfoFczf34cHrb8TAE+vQtXAuFu63H8q774HN5W5Uy2VpSc2FznsLCKb5SRCndp40T2H8Aj8jAumpJVjw+OOY/8i96CuUJUCxxFr0UlNcAYJulsYCdMVbpyMQXHah0zjeePIa66ja5k4AFF02pGtXlGK3227GzZf8HPu+5/245YQTUSwWUQ1rJke6Xk0i20bOskQ9QMhCpaznzD6AIEKMsUdphDQGjrx9OR7/wHnY4+STce/Zb8W63oqk00nfoaZl5cYgWL2jTojmFTjV/ZPH3spzPzePR1zyqtpYkE+RTqHN0spsuEdNnZyRApbXSyM+Q/hxF44pnqXzQ/qTb9PiauIJOB/k46bJE90E/Nt0WZ1bSzCnVkOZIGJgAJsefgBr7rsPw/19KFcq6F2yFLsdfjhGFi7AUHcZNbHkFtBfKWO4EKIYpyiEtAbTuGSs0ewvYZwS42dNeICQlR9kPC8vgMBFYhYrkadxKkgnMfqVWJhI/NlAkiRgj7E5UYSFtRHUHnkYT959L9Y+vBq7HngQFuy/D6qLFqKvu4KhAoPfaNhmOg1xpGkaYvJvaUkwFb24Wmk1kOcJ+DBxD0S+5ZhNaEaQMh0noKmK4yqAPjbT0ClGIPfISLBt+DQb3tUI+ibgIkBIE/RWExz8l99jxee/iIPe8R5cccoLUKpUJJisQv+gkNAQMa/67B4g5LnYZidA4A6UzoNxhKNvvxNrzr0Ae590Cu45+y1YP6dH9ryrj49JERF429Mm1nQBDfIzJeNpGaCwZkEjckwpjiklkxkgbrrdaqr4eKuLfFapKZFIJjNSlDPGDBBoROzbI8OIUUkMijMAJBRLAwMNC2ks7ZfnDVbRQ7dB/wA23LcSq++8FcsWLsKyxUvRHYZiGX7yoP2wcZc9UQ1KAgiikJaEAtKQHXdrdno9QOjoKs8NIFhDmaagSeVumroSE+XOxVMOafofwoLNg+hdtwbX/uIXmFPuxpHPfT7iXXeTSo59XSXEUYBuVjxEhFoAVK3hmmmOqi0YjcKY/UYZ/9igSbqTGRM51duqRdBczBWTCSRo2Jiv2Pls+zoaqVyN966Hado+FQL2mMpE8x6AucMxDrn6z7jvws/jiLPPwRUvOBGVSjeGAmosptIazYNiGcqJoh4g5LkuZx9AMFvUaJ1hMoIj77gDj517AfY66QW4721nYe2cuab7pA2Sy0aNVm6EZt27lUnf1fVdv35DTJrnt+u7OmdzXjOrW6MxRh2d6eFoM5CEWVKZ4l6mIDc5BeMCBKIBTYUUsGGeYSw+BnBQdkSFFMM2M63khHGpshgx1iAhjzVu366EFuMB7L65D8seWIXVV12Hm37/e6wvDGGHc96Kyn42CewAACAASURBVCn/gL5ir2Rj0MpbSIoSrFpkW2rJPBt/3N6CkG2XZD4rL4CgumMhMho/3VY0HXGhdsUJuqo1zKuOYHj5rbj5yitx6NGHY96BB6G2bGf0VXoxUiiIwKbjIAyK0meBXRgD/kvpV2PQiukqxuQoG3lQBwf6fBV0hu3wL1PPQat+uc1HjJVhYn9cZmJupSeK6dEZu5SelvTGVCKOi0gwbyTBoVddgxUXXYjDznkb/njyiSh2VTAiAKFkasCHbPJCgJAhTDoDrTxAyECkzKfMToAg9fzTGEES4ag7bsPq8z6APU8mQHgb1vXO2TLDaMz3bQYGWfz6KlhdENBO8NAMAlqBGT2n+buJMzSokNF6MMKMAOvUpcZvwL6NtJIA7Yl1UJMKbqyB6n6UzLTUBBLWc9bkPEYNGBsuR8lgcT6B/SBEqZM0R2Y/RVg4OIS5a9bhup/9AksWL8A+RxyO7p13xGCliDW9C9BfnmNlRw1hMUExZjp10dROsB0kx1vyHiBkZgjZTswLIIjBX1ITA5RkUdGCUMXceBgLN/Xh0auvx+Bj69C9+x5Y9vSnoW/eHAwxmlXSYKypylbaaKQ0cRmafqPUUIkguTRN/j1N39RYbS8Gmz8h6TEmbBEBXQjCfEqICrG0fpb6B2FkBSIRLd0YfMTEmyYbRbfSsyQLhUS0JkhDaowwZzlNMH8kweFX/QkrLvocDj/7HPzp5JOBnrIABNbLkMwV2cBiNM6FCB4g5EJGe5NZChAIQOMEaZzg8DvvkBiEvU56Ie476x1YN7eMkdCUUDMFkyY6mrV9Pb/ZguDeJ+t3sjmcC5v5RdbvFADorbJGTGQACNZlSrcM3au1oICi7Gv6703tErpURQsf77WpgrEmjYAL47YlYJDYL6YuSiYBLQlMXTRkYfoheTXrHpirCEQSVKIEPVEN84eGseamG7H+wftQ7O3Fnk97Bmo7LMHmShHDBAAooBoWJX2afCSk1UJiLKg48p4m44EWDA8QJtoHOX6fJ0AopUBvtSrVDln0pLDucfTdeTuW33objjzlBejZ/yD0l7qlzehI0Wx46QaW0ibAeIXQxiuIZ8CmvFCVTRCGtl4C/V/0q7X0TFqpVs9RsH3OyVyo3UoMAx0XBgVzBEVJc5zYe7mt4wduO/EFy0GGbEy7tAjQjzhnJMJhV1+Juz7/RRx2zrvwx1Oej0KlIsGjFZvBYNxKrDGRj9PGA4QcN3q9INmWhZJmqg6CWK7o105jhFFiXAznfQB7n3gKVp5zDtb0ENgzYsnUSWns0lZCYjsH+Lb6LcEA47ak221aNkqVAHeGiBsBK3UnRPibujTki/KZfG+yFwgQmGUmaYg2m4H3lNvJdXyGiTUQu0EhQBpHKFNRYGE7xJhXHUbPmifQv/IurLjhVuxx5NHYkaXwu8vSVZcOj2qhgFpYrFs1DBwcPZdSTCljZJO3IOTJM4Ts+RRKYuTpTpv6sfPKFdh5eADXX3MD1tcCHHbGK/DEzouxsWsuQ1kwTI2AC7BAQCAVPepJhmUbkmREOI1Spld5yGhcnm8dC0TFDDrkwp740NRHBsyUUGaRnwCoSRYDP+NzMrRKm/hBW+0Z6mIwYl17KNqgUqF5grkjNRz5p6uw4vMX4eB3vhNXnfx8lMslKW3NFEgxIoo6IcbFXGjhAUIuZJy1FgQDEFgptYowSnHUnSYGYf+TX4Q73voWrO9lx0AWU/NHNgqY8nTkmdKrNqTLIQaSCOy0ZJRvmuwp2pnsSC3dugRpXRC5bFKbxY3A4G/+s8Wshskvec8YUncmpeU3rSFhmiMK4t7oTWpYvHkTKqtX4++/+R02DQ7h+FedgWinHbCx3C3lmeNCgCpr3licZ/Lb8jk8QMiHjvW75AUQSlGMBQ88jHs+/0UsHNqE0uKFWLrvgVh0+BEY2W9PbJy7AMPFCmphDUOMN6BhmkjXgkXJ0xW3gclBILpkQQ0W7zFmMRNNwINVEmkmY8SsezTrFVoHfJgBL3J1GWVWZpN8W4OWJeJWB2FvNpb1bVu2IohFRV6cEcvWgiAMnGZDAoQYR/3panExHPzOt+PPJ52EcrmAvkKIbqofMh9G+5goACrrEvYAISulspw3O10Msr/TWIKZD7vzdqx5//nY//kvwJ3nvBVrmeZoU/NiqV/ijwkpIJWGTMYW92IprSGUQG3ta8EABXLKyFZMNbYAU6nQWA2VB2s8polDMIXomMZeDkpSt0Lq3oQJukciLBweQWnjWqy6+w48et992HW3fYT/Y5ddpLDdMBhsyFgCa71gUbuiWZPlyFgwMpY6GJcEHiBMuEImd0JeAIHCdmk1wk4b+1BKqhguAH1r1uDRW+9EdWgIO+29D4I581CaPx/xjosx1N2NEQYjWgtCRMtUEIBuCgYqiomL+bWi30diaeDCN0ZwWiG2fM8tAYLxtZnoei7GkqBcQmXJdCAy5p/G+e7ccEuIYIxc5tmNww0kck2geobxxzUKnIwHZ7L6QrP6LCc3VgMKtAmNGadkoTAGIUnRW41wyJ//grsu+gwOf/vb8aeTXoiwq4CBIEC3xHbY5jIh3Tfj+wmzrlAPELJSKst5sxAgpKxLYsZVS2IcsuJOPHHueTj62c/B2re8AU90daFS6EZEabQto/Ms05fhHI2jMhq5SXssJKwmQHcD2zwH2FwIsKFSRrVk+iJIGWvyWRuUbPrYmHgk/p9pzlpl1cR3sXJtgp40RM9IhEpfP6qPPoJ1996F4eE+zN9pJ+x6xDEY6J2P/q4uDFI1K9LWS5sF+T0VDvZoSEVJozuEVRKNcpHhJSc4xQOE6dNw1B3yAghiLuTCSmqI6IMqlDEnTbF4ZBDzNmzEgzfciL416xDzxEoRBz71KNS6K8D8BRicOwf95SKiwDTmkBKbUpGRFgTm8trkuaQgAY2NmPuxV5SKZfrIGAJDt0JAU7iYzmSpin+OxZOKbP840ZHD4p3oETP1vboYhLKaJK3VMGmxQYrekQQHX/0HAQhHnv0vuOqkFyPtDiUGwVDPZopIR7l8tD0PEPJcEbMQIAiGNfnzjEHa44EH8MgnP45FCNB/1JHoKxQRxBXTrUVS7fwxPgUIzo11lVYA6VLLugUooKcWoLdvA8o7zUfx1FPx5OJliKUPjWl8IM2d5CezDzgnrEXAAG7TaZFuhkpMFStB18ggipuexIa778Fjd65E75weHPiMpyPZaScMdM3DxjCUnjeFAtBF3ptWhc+yX4Oku1tlhIqEiWYgr584CDPL7HuAkIVKkzgnP4BgWm+Yev5G05cAliBBJYml0UclilAZHkDlsfVYf+ttSIYHsW6wH8HiRTji5BdgU6VbWokGaRHD5RLiYoA4oanM+KvoD4sTLrxGG9BWoUkqy43VIBWrARf5wpFY8vqDYkEah9D/JtnC9n5Kti10+e0iRMFAqnpAkm19K0KahZJqCQ685mrc+KUv4tB3vgd/fc4pCLsDDNNUyAwRSXMywaM+i2ESG7Bjp85OgKBdROkXXzAygh3WPoGFw0MYDkJp4IO0YjuIeoCQZamI1Y9wPa0hCllkqCCK2w5DI4h+/nM8dP21mH/hp/DQ/vtjMLSdHYsR4nQYaVCSvipxHBsey6q4FOhxiHJUxbyoivCR1bjt91egp1LEbgcfiDl77YO+RQuwqVxBLSjXXY1qEeB4jBvJBKSaZnqmiJ7yWdNmPMvbTXyOBwgT02hSZ+QFEOqZsdYMRUWfyW8aKcvVIKEo/BlF6OHPkSH0DA1i+N77sWHFPQjiCFWk2HG/fdB75KF4smsOhopdiFihK2SLUAnBQZXCy7Quk3cVH9motzarTYRVClRqMZZsXIvib36HvsE+9JVYwrWEgH3TbYEf18MwurejVoh0H6BPa7Wqp/udGfnoY6ruB0Mdc4w9VpNGZr6XiPZ6X3jjGxQaRgl2eOAB3Hvz33HEuefhnmcdL3Xe2daVAZ9MdTQ1JZo6Y05qNW751r7d8zQIOOrS2QkQxANOK6Fm3rEgThyDRXfEL23tU/mtqrzoOfvuI5yK1lCxAtZMcXuWtg8D7Lh5E5Z9/0cYuew36LnoQiw/5EAMUqCTe7JcespQ0DICVi4k1w4ilNMaFlSrWDI8jAeu+jMGVz+OuYuXYuHBhyDeZRcM9HRJNlocFm2mhLHUMl7EKAumPHKYMJvCKCCS/m68vGbOJR3eVsTNgaQeIORAxNGiLp8sBgGGpuqJqXjF9sDSxMcsFpqQxBTNqFg2D2E3RfYHZJ5snKJnZATJmrWoJFWsX7ESqx64CwfuszfCylxU9tofA7vuhPVhhCAoIiqUELJtqRV+YkprARA0XK57pIY9Vt6JVe95H57yolNQOOEEPFHuMgs7sSNstC3bMs5glHxuEtZjfmerk+i4mn2oLmQW2TzGfaf6nWCCJvvKqGc631lfJDeqAARrraFLRqpNBgEqSYBSLUbaVcbGHZfg0fnzEYRGOxA7jO29IWDDZzHkvEvzuN1sBAjkA4FYGcO0Kq5AcgUKNGYbSU1OKd+bn4aZByVn8z3IgoVmYSLZCpVaKuXtd6gOYuH3v4/hy36N3gsvwt2HHIQRKkmSARkhjWhZLaMQJehKqlgwUkX48KPov+de3HP3ndjn6cdi4UFPwVD3HGxmenMhEAsvS+mb3jYl4RMswmTARiLu4BqK4iLSKovkJ6Z3A+MONFg8UwfqTGT3ACETmbKflJcFwYSyGH+1IEXJW6bZ2Wxu870x+bN1cLFQksAkU7SDCZCB5NPTusBMg+7qICoDm9A1VMXv//dSlIIYZ7zsJaiGJaxauAhr5szFULFQbw86ykRl/2AOf5zE6IkDHLL8dqw9+13Y7aw3Y82LX4JV8+dKlUZ2LU8NlB1FNAUX+mFdnOal3OdhFGhlGJjyfa3bRoqtMDDRdNukmVdrsBMQkGnXghSDQQ1x2CXNr8oxUKUSUa/HmI+90McgZN/HE585GwGCGXVEPzkj7un6DgsYDBOULP+QwDhr1Zr4HbfvM7TBUlFKKafSe6EckRfHWDbUj6Xf+08MXn45ej73Gdx70AGoBt2S0UD6diVAuRZj6eAAljz5OH72/f9CZYed8MxXnYb+3l5UK13i9hlizZowlLo0otawEB1TUZkRph16tYmUsFVTXZWBzjwI9vivobvQ/qup1dOfPw8Qpk/DpjtYC0L/ZjzR04OqlDs2kxYwaNBGs7by9bcaihEN5iqat+p/ienZ3KVu0pbURnOGmJJtRDM/603YQTCWwJhyHKP25DoMPvEIugYGcOu1f8V+hx2BvZ/+DAx0d2OoWMJQGKK/CGnCRHM3W4hKamQSoCcewf53LMeGd74XC896I1a/4jSs6u0RQcie5m4KVav3bNgqcif+LLrh6LfUDewaVgxoMoVMTG6JKatNK4JUo8z9bey6sGvQmC1NehV/VmLg2CjC8ZWSaJ+aYSnjdDwrzWAv92FuNTdkxE0ggHhVCPy2vx+r5/TU405Y994w8U6+UGN2mFXEiaWW2ZR53MkBbbXPklREcQ8yvTHBEJsdEegjwc4Dm7D0Bz/G0K9+g7mf/yxuf8p+iMMyepIEc6NhiVFYzl4ry+/EYcc9A3N23x/RokXoL5cwyBoKVtEzReq42fkJ76w8vrHh3LmzyU1CU34+nbWlronmNeo+j/FSS4eH8PLeXiwVGaS96+WqurTp6BLPcUUFqVG9O3aQ0fchwCX9m/F4rwEIRtfg1NtWm7Yh0ljCczKDdfh2HTy41/N7BhJ2i6nMQAoJvGEL0CDGnGgYOw6O4KGbbsKaR1cJEKCVYu/DDkNlj90xWOnCSBhiuET/OFNrCijFw3jK8pXYeM47sOjsN2H1y0/Dqjm90tOhK2F5z8ZyGe8dp/qdgqRmOulTs9zXFXKTuc59prspmp853ncG1Jmjs2PVdCuTcqUMwvR7SNEVA8cIQCh7gJBpExqAQNBMgHDFQJ8AZR4EeAoQ6gm9zqLI6q2SNTLOdSJb7Fin6j3b4rrJePOaFvC2N1aa/an4xNI6OUhCBHGC3YYGxMVQu+z/sOTTn8UD+++FrlqKaPUq3HvbLagNMhV9T2nD/FhvLzaXKtK+WQW80qmuMAgdTUiy/NYJujprXPtDNC971mxZPDwsAGGJ7RDROMcDhExswj2JYIAA4WcDg1jT0y0AgQ16pMqg6fxdb4jULCDaZW2nZlpgjEJgRiIVvZKiROXSukFT2IIgxdzBzVhYHUH3yAiuvOy3CKIEu+6+G0Z6uzB/rz2QLF6CTeWyFAo5YMVdWHfWWVj0jrOw6tTT8djcOVJvocQKYk15++5an8w7uvRphVCnet92XLe1jFXp2KjvqHoAm4ABx8Qxji97gJBt47MAmfH7rw6AK2hBEIBgzMxhUrQCwXb4aULudRtTi8XdbHEaNR41ObtIU09wzNFbvEOW61rd0wosK8O2JE07njkLxlqfAyl8FCEiQODcRgF2GhjAgh99B+kvL8Ee538Ud83txvKbbkEcRXjmP7wMg3MXob+ngr4AGK6UBMVpUyfbIqdORxcMjHbtNqq+tIqzHnP9TJV2LbLLaEFYMjKCl/eMDRDyi3jItuvyPKvjFgQy3j4Al/QP4oleAxBYd1BcDAIQxtIb83ztxr20FTHdjlHISFwTRFhBSbIZxNHF1uBSGyGWJi9sELK4VsMOfQPo3fgkosE+/OkPf0TP4qXY9alHY9lOu2DZ3Stw//nnovftZ2HNS0+XGIZqIFBEsi38kYUC+dQ3yPIkc44xYBp7QaOtN8tekdnQb3ps5AFCVnpylZumagoQBixAML5iAgSpaNpJn3+WZ4kU2lqNwllnZ/rnCc+WoGE6/kz1WcO+AyzrH0TPJT/Bqm9djOiop2O3V56K3v0PwPoF87G23IUwLCNNYhTZvlkCzVn8rEH20d1eG1JhNnBOlysJQBg2AIEuBkbBNSxW+had5mPTn1u9Q8cBAh9MgPDzPmtBKFgLgkQWG41CrQjNUGEis/RYZBlPK5egebYJFWbGSFxbJEm6OBISxIJsJa0uKaDIeuCEEbZcKwFEV62GxSPDwAMPou+elRj8/+xdB5wUxfL+JuzuJY5wIKAooAgICChBRfD/nllyjorkcOScOaLknIMoIoKiIoZnQMkggggiqOQkURAu3+1O+P+qeuY4kLDqPpR7ve/h3e3M9HR/3V31VXV19clzuPPseVxc/Tnu7NcL8c9Vx29RkVy2mD9X1ujPWuyZ8ZEehL++WTPzskrm34U3gU4OBSpKD0LQ0ud6BEFYiI4HwSFmN9gVe6Mds3/8mmvtX0f/s8K7Hje4er0yMxL/jWv/+Lo6OWPgFcHgFm3jptwvQISlIPrkCeQ8cx5KwXtwOlsEUnQPTI+g4KpBByxQGiRn0YCzqArgLx/h5nRv5skYCsyDwZXek2kcZPYoZq6CJAhBi4PgbnSXGFYmpuBceBj8Gu1eFTkGXIIQbMDQzRRrUDaAQsFvJmfuovgCysrHW6E48RIdEELHOJFfgeJkRAJv2k5DqZloKyUFRrqhbR7LQDbDRFhaGqKS0pF4YB+Me+9DQv58HKMgEilZfIJkhhS6kWa/kaD6swLuVgo/l8H8iXYIGh5UDwY38P7gXa5MohpQDAJ9wgzgEdNAZTdIkSKlKSpbBileF132uzkehM+TEnE6MtzZ905JcShJ2Q36+L+idGnrwvWHliAI1/Eg/Dfqc6My//L8uWE6kj9Orq6qK5G8gEIGFHkQaCuhyEVA2RBp5wERhjC/wksPnNxMcYJW6fAmi9Iqc9o49qjSDiZ3JFwZd+AEIvHFq/rlL2B3UyJ41bC83pAhHRCTnnrFEoP0IPxBYZv5drK+E6DivaRk/BoehoBKlrrgjW6QYrCKIRQEQcTHu9kTxJljYtCKQBiXrFCiJHHsqKgpb6Dk6F0+A5JLoL35qhWAlywkg2JuVc4j4tcs+PlZcW761TEIfwHOLP7orSUIYie8+GQEQ2XaxUAxCI8YBqpIghDcuGP3szhF9RcV+CIpIWOJgYIUya18Q4IQ3Fv+2F1yieGP4XWDu90D18i4EsqfDqKjcyzcU1YB1STvghN8qNJispCr5I2l3VxUBgX6iYRnmd3z19ICv98eHrLGXKeg6+2CcPUCeRDuSEtF7UxBipIg/IVeIZd9IjS8n5TMHgTKmS12MdCAoLMRMkeuu1Bn5m+XRbgryi8PpT9+zc29KJSC2FlPpZBfgA75oI+IuBZ7aSkhCGdUdFKM0iFMxIDJSqIoXM4Lxpk8xPoqEQhbCfA1biG70lzT4C8A+T/zaOY+dX//4/0s4MpMOK5ezRTUz/24MQiCugq6QDEIjxgmqrhBitKDcJNReOU2x9WJlwmCINPOfL9iPmT23VzujevPdXcuXUtGXGueBbuKfTU5vdbY+W/X9Wbj9Wp83L9vTV3ZXKJX8XZCDsHmGB5ekmVvAil+IoHi7AXxEac40v2UoIoIYrhh8VZTymQZ3OdqOfBHx8Afw5XPi+HtMOK5y5vpxRZP2uVWK0oEKZIfRBKE4HrxmneRCk6CipXxwoPgdxLjKOSuhy4OOWJBHexE/guVcR6lN3EOBYvOJicSILisblIyDoVPAKPqsJrg/wv1IbwPbmpki4OxVMpFbpvQOH5B4bPMiW1STnD31MFbaxf/dXz+l0q4mnoIUkhWj80xCOUsC4/7fGKboyQIQROEUyrwZUICzkRQPpBM24kz5Sv5XxpnWaGtYq6IExLJa0CLseIcBEpnLU5mJeVK8px8rpZNJ+bScgQlP6LEZ5QcjbaFC9l49RbQK43F65GhvxdJam9Mup8JQowkCCHoDBtIU4Ct8QlI9Hh5eYEsbbHMe7WD91ok4a9aj78vk05bFBt0xEkO4oAP8hoIy5H3ctMuBs7jTacIXrY2BWfMzGBF1hXb8vMhTYpJ620ivwMpGsM2oDHhcOlyMF6SzLhf3f6r+8Sh9NfsqlBhdyOPzh+tq4vdtdqR+dp/w4t09Tt/v6gp1irdU+eAezUVxcPCnDTejmHhjlzX0PhboydCMEdDVoST69JWcBHA9wkJuOTxiDlFHgQn1kf08u89OpdH642u/X78uDuTxFPXfvbPXstadf1j2F2NK3tanVMc2VvgZCoQ/ldxADR7XPk1dJW8CRTnT+4Fw9kzJIIWKV3zjT6Xe/Hybzfq51sxBkT7gQjTRMXobIj6HUFw8b19TcJbvouBupf+uT6CzBGrLkW4db6DkElCWdD/CAJE9YI4rPt/BI0bN/Pqeew6md1lPDnP5TC53REQCyaXzURXh93u7XLrf8sJQmbgyEObOQiEeNbVGbJuBdBX7Tr8069kgSel3p/G75/44NVj4/a1Bf5+dF3jIPMU+Tvm+9+PRNapQTCy89bm6r312LoYkMfk8l6MW1+P/8Ybbz1BIFbAa1aO5ylTq64QvldIkRso3pt51K+nsG/03F9B+r9Rn79S11tdn6xeV8kQgp8dV89h58nMi0X81T95rsv5c32j53aa68GP2t/feZMxcJ1h/lfe+I959tYThEzLvLRNMGPLX1ZG+R/T3bIiEoG/GYHfhwT8zRWSr5cISASuh8CtJwg36ovM5EH2mUTgH4iAdCAE3ym/D/m89rNyVS54TOWd/zwEsrJMuOUEIVihcd1h8Dv/ZKY7b1b4zZ69Xk//leeoetcqV9b1hhntbpTt7srj+a4aKX8Hrv88mfWPqNGNVveCquCN+vLv6OebyQE516+f4+5m2N1I9t4uuAY1qG+vm/6ZBEGaFLfXKPpfq21WNhlC2JdBEQQ510OIuCzqb0EgC8uDW04QbtaBGUTzWozzRuuXf/YaVehG8Q+huHY1A77ZOmwo3nn1oA22TFnXP3bq080G9P/w9RsZjVfAEsq5fivm843mlpw/f2z+3K5y6XpejSw23/8egnAtq+EauxqyGNayOVkAgSxsLPwtvSMdCH8L7PKlIUQgK8uEv4cghLBzZFESAYmAREAiIBGQCIQeAUkQQo+pLFEiIBGQCEgEJAK3PQKSINz2XSgbIBGQCEgEJAISgdAjIAlC6DGVJUoEJAISAYmAROC2R0AShNu+C2UDJAISAYmAREAiEHoEJEEIPaayRImAREAiIBGQCNz2CEiCcNt3oWyAREAiIBGQCEgEQo+AJAihx1SWKBGQCEgEJAISgdseAUkQbvsulA2QCEgEJAISAYlA6BGQBCH0mMoSJQISAYmAREAicNsjIAnCbd+FsgESAYmAREAiIBEIPQKSIIQeU1miREAiIBGQCEgEbnsEJEG47btQNkAiIBGQCEgEJAKhR0AShNBjKkuUCEgEJAISAYnAbY+AJAi3fRfKBkgEJAISAYmARCD0CEiCEHpMZYkSAYmAREAiIBG47RGQBOG270LZAImAREAiIBGQCIQeAUkQQo+pLFEiIBGQCEgEJAK3PQKSIATdhTZgK/R/WLChQuEnLRhQofE18Q3/yt8r0KFaAF2wYfJP0L2W86tiA4oC26Z7bNiwoMCGKMkCbA2AytcAEzYVTM/TD36IH+fvxbu5IP6/CZO/U6Hybxps2LYJQOfibJWeozraMBUPvYX/UbG2Qu2zAEPj15kIQOGSRN25YMVyfqWnxN/ih8IFUUv4NtuCpRBi1BYqxYZiK7AUaqeor23b3A76XbTD/c5FNOhOkjdKBG6MgE3zTMxjlecQzUuasDSOFWdeWFAVBZYJqJqFAM9xHYqlQrFsKBrNKTF3NcuCzYNXgeLMYSpVJVnBUoLmF31jQ+P5q8K0bGiaAhN+nlOKrSFjNvH8o7LEdLYVI2PuUM2pRJ4VzlSnueMKAgMGdJZFJhSnAIvmFn9HcgQ8F13Z5cosgySEQvWj+4QgoNnMM9vBi+UM3WfpzvwneSJmLMkLao2QXHQjSxJHJrAwBBQVJBroe7qXn+N6Cfjl55+JgCQIQfaLI1Z4eFs0wG2dn7Tgq8ZtzAAAIABJREFUhwaPULqssMXMNhRSqho0U2MFCB2gCayYGjSagCR8VFKEFlSN1TcTDyFWqFxS5o7wYIVt0OyGbWpCF2sKFF0IHosFjxAUpMZpjgb4eUBnZUwCiypnQLE8LMxMlcq0gYAJS9WhqkJxk3ASQiQAUN1VDSYJSJvpgVM7BYpKNRQ4sDBUqfY2VEsDsSKTxJDN4hAmtczWGRvbCkBTdCFUmByRoLGgqlQ6i2iHILhYBtlB8jaJQDAI2AYMhcYmkVVSxBYsIspMsmm8i/lN/6dxatp+WDQ3FBWaSWMYsGziE0Kr6XaAlZ9tqlA0BYYiSL5G99BstG0YfK8Fmq5E5m1FBUwb0NKZhCumB4qXyABZDkRCREN4WiuBDLOByTVTfdbWgB0Q8oaUr01qF1AVeg8ZFwoM24SqeVhhK7YN0zSgeEimCMml0FylOmk05w1orNgF0SFawuYItYPxotltQDW9bDTQnFVMVRAqajPNecuAonpYHrAsYZ4gDBVb0R2DgvAReNN3l42CYDpP3nOrEZAEIUjEDZ6mJjR38sIjPAEBx9hXTShhZN1brMihmLAUDbaflKtHsH6aTKRINQMBnugavGx1G1Bosjgkw3SMcofAO7a38GCsWfEVrPMpeKpxVajRGqCbLJRo+tILPMREbCIjVA0bXhIWZNmQkBAmiZAtlgI1XeHJzqaAxwJ0wf5JedvsNQBsv1eQC/rno28NLstL5MaxBFyLgUWjQkJRkBtTIV4khBUCjlAj/KiKxGNcOUfCiCBjcuUALOwX+ZEIhBABoeQEdVbZYmaFzx4C1rdQTB3E/cVsYobLA9UImFB0AzSoNdvLBILHMX1HSpC+UxUe8zRfSKEKWaDy92IymaxMAzbgNUlxA18u/xKBRAvPN3wGSg4FabaBMI0UJxELoaAzvHM0j9hzRzUj6WHBMP3QFR8sv8aKmerE3kYqXNcdMkPK3oBOpCTVC3icdmmOFzQAqPScRnKDyA15RQQGGhtEZDzQhBUeBKrBhZO/YcaIGeg3vC8iYyJhE4ny0FuEh4KNBsdjQKaPxYKG2iM8CHSR5KMwCqQXIYSDPKRFSYIQJJw0SVisODOHBEHC8Uvo/EIs8hfMjxZDWqLkoyXYdWaSZUxWP1kpJvDR/I+w+q0vUPHfFdCgQ0P4Ynwg+UBl8By1DajE0p1JxBY86UmLlLWzwkBK2wL2fLEHo5oNR55id2HgokHIV+IOBBSbrROWZY7HkaQUu+4dlyX5C0hwseVuKfhpy8+Y1mcm7i1bEF1e6YzwHGGwVaIVZGHw+gOQomBMu3FIuZiEWm1rovyzFVh4Mpdht6JYTuDfWaiQIKBvhSVCngOdhAu1xdCxfNpyfP3hZpSpUhbV29XEHXflySAKQko4lpNDEkQ58iMRCB0CZP0rCml3Gqk0eDVYpvg98VQCOj3XCXcVKoCmvZug9L9L8/i0aFmBnqE5aACr31iNTxZ9hDJPlEWzrs0Qnj0SNpFrmhtUtGt6Mx2xoJH3jOelDVslj4ANEgCqpeLAmgMY1Hgg8t6fG4NeHYx8pe4SJFlhfyN0S3gnXacB1YPmGdED2yDvowrFr+Dod0cwpdsEFChZGN0ndYcnh4e9IexMYKLjh5quY3zLMUiIj0ettvVR8elHAC8ZBuTREO+wdEGi2L/CngfHk8HLfpZYkdEVxB+KR4vyreCzfOj9Ri9UqFZePC90foYnkOpLtSXaQN/yZSZP5FsU9kmGzJJLDaEb6CEqSRKEYIF0WLVwiSmgtb3kw0loV7Y9Un0peH/f+1BzionmLtPxepul4LM5X+C1Qa+hdWxzbDywATFhufBEk3/h4afLw/bQXBHreTRp+BmSQoLLw1LI0qCJRTPdxg//+QkjG45E/R7N0HBITcBrCyOFYxToMWctVYRFsAXAj7KutWAq5AXxYN/qfRhedzhqdqiBJq80EdfJPcLuRLrVBtIVjG44Hnt37EHPyV3x+mtvoOIjj6Bmq6rIXjCa66ioOkz2Goi1URZGTlyEeL/jFgko2Pj6JszuNhOlny+LdtPbIaZALrHE4FgQwoNAzRTLD/IjEQg5AuwNozHqrJkrCkxLKO20EwG0K9MeaWYaVh56H1aMCSWgwdZNKJollvegYP1r6zG3x3w0j30Z3x7binBvdvxfwyoo/8JDsHU3+oYouViec2xnsURIS3cq0QYPLy8cXncQA+sOQMP2DdAgrjHsCIckq37YtgY1wDNYuPXJSievAS1pQGFHAMUxaJaGw18fQ78X+qFWi1poNuFFJvEmxf/oKlSa0KYBNeDBlHqT8MPWPeg4qROWLnkL5SuWQ/V21ZCtcBR0W4fBMQ8kb8ScFusCYoHVJSqWbSHlYAralm0PUzcxa/sM5L4/F8dScPwCt4/aL5YfRdRWhuXCDTTIKyOcMPCwlzOThRDyTpcF/lkEJEEIEjka3n7TgEfVoPoVWBaQcjwZ7R7qgOTwJKzatxInT/+CpfOXoPvwnvBGeWF7iD0Da+atx+xe8zDh1fHI/kAEuj/TDX6fgYVfv4roO6MFhbYU+DWx7udJt5krmGQpMItXxdKGAvzwxQ8Y2WQUGvVuhHr96sJQTV6/Jy+mkWhgx4ffYevX36DdyLbw5vFysCHZ8SQOvUReDIoO0PHz2n0YXW8M6nSqixp9q2Lnmm8RER2Okk+U5qUEU/VDC3jxSt2x2PfDPsxdOwefvP4J3pq5FHeVuhMzv5yNgJ4KDy2ektlApMAJurRME5qqMccQgU6goAhseG0T5vaehaZjmqF6x+qwNMtZQxUCiD68EMIuWjdKKsgOkrdJBIJAgMknqSxeL9dhB4TiUzQbKSdS0KZEaxh6AO8cfA+nfj2Nd2a/h44j2sIbQ6qMPA4W1i5cj7m9FmDUjOGIKZsLXV7oxgG/s76egxyFojnqRudYAmetwiKDwgkbcK6JtQhg//r9GNRgCBq2bYAGQ+vD8AlSbWsm7ERg18rt2LzlG7Qb3gFh+XwIUEyC4mH5E05LhE5k8ZFtRzGg6mA0aF0HtQfWwU8bdiPgVVDm+TJQvERaLCBdx8SGk7F3+0+YsWEq1iz7Cq9PeAs5S2THvE3ToXlEIDF5D9iroor4KRF8SZRBLHeYlom0A360K90OaXoqFuxYgFxFYxzFL+ITuP3cZhFbpRJxsIks8TorBWCxB4FLJoJAM18aBUGM4Ft7iyQIweLNVjUwauBIfLtuGzy6D94UHZ79XqSGpcJb2IPTF07zIC/3xEMYO3cSRTCx4vxq5hrMH/Qahi0YgQdq3otXRyzAuePn0X9Wf9jRAV5oVOHjmuz6didGdR0JKBEwrDTA42dXIQUDEklQTwNRpyJh5zWQli+AgK4gQArZWTqIPxbPk65o5Qcwe9lMDj40bODcqdPo2iSWy6AQCd95HyKORSA1VwDJedNw/tcL8IZp6DeyD56p9xx7JuwUYHK9Kdj94w+Ys3kWvBFetHqqKYYNHIV7XyiK9CiKpFCgm7qz1CDWPm1TEByxoYHqrrEbdMOizZjZZyaaTWiC6q2rcWCW+yFBJJZZnGUFx60abPfI+yQCwSBgGBYtzbMlbxkKxvSfjO82fw9bMRHu16HsMaCEWUBhD84k/gYrzUaZJx/ElNcmOYHFYA/CrF6zMXT6UJRqWhJLR7+F49+dQL8FfaDmIeVuw6JgZEvBz7t/QlynOLan/ToFPBqwAyZ0NZyDlSN+9cE4ZkHLDfjvNGGQR5BieEiHpqpIPH4BaaqFwuWLYfEH8xGw05jYnD/zG2IbdIBX8SJgpiM8JQzaAQV2Lg+S7khG6q/JSNf96D6yB2o2qiaIBLW3CXkQ9mLe19MRkS0MTas0x/CRr6D4c4WACFpCIAVOsRVOPXh9kEgDuTrJSynmeNq+AGLLxcKvBDD721nIUTSaA5+JuOgkr8hraenQaONTgHZymFB1DtvM2OnAQZnOribRYOk1DGYM38p7JEEIFm2atKaC9FQTSb/GI3v2HEj7NQUdH26LRF8qPvjpQyDSWX+0bLy7YCXKlCuN+8sWwdpFa7Fw0BsYuWAk7q1aAGnJ6Xh7zDL8fPAH9Js/ANnvySHcibTUYBo4e+A3eNKicPbULyjxaHEg3LHCLWDvV3swsfF41O/aENUGVGdrnyb+se+PIT0xFUUrFAdzjTBngY+jlOkeC5dOxvM2rez5YnBw/T68Ums4GnRuiKpDaoOjJW3g6J4j2P3NHtSoXQNKFDCl4ST8dGA/pq6dgoicETi75yxmDZqFEk+XRMP+DZlIcMwCb42iYC8RKyGipHWxW0JRoBoaNi3cglm956DJ+Iao0bY6BzVZFnkRxHII3ZcRiBBsv8j7JAJ/AAGKJ6CxSWNVo4W7ZAUXT8cjR+7sSLuQipYVWiFgp+KDAx8B5O53iOqKee/goXIVUKR0YWx4cz3m9p+H4TOH4/4G9yPtfDrenbQS3+/fhf6zeiJn4VwwyLVviO2RZw+eRZg/AidPnESpR0qIuemUe3D9AQyqNxT1O9VFgyENQHqY5+GPR5F+Lg3FaD5HAhQDyXFNGgVKip1KF88kwDYU5IrJgaPfHsHgqgNQt1191B1RP2MaHfv5CHZu2YmadWtDjVQx5aXp2LPjR0xdNxHZ8kfh3L5zmNhnOko8+QBe7t9E7KbgZRixl4ptfI651phEKaTETSDpYDLalmvD2ypnfD0LOUtFw7Bo1wQJAmq3F0hV8faMt5G3YG78q/aTsMNpx5SIPxCMhQOtHNLgBC/8gb6Ut/73EZAEIViMmTmTo07hNT0loCLxlwS0Ld0SSb5UfHz0P7DCxFKakg70rTkQB3b9hBLPF0fy0RSc3XEe9z1aBMp9AZiWiih/OAcDFav8AOq2bchzxrbTeQIqtJXID3Sp2Rm5I2PQtEszFKlwPxCu4Icvf8C4+mNQt2tD1I2rCdtnQvV7MKP9TKz/bB3q966LurF14Qn3OdFFYuskBxDSlkR2FwIH1u7HyOoj0LBLPdQcXheWh3ZbaDi88Sh61OmJ7Lmz497Kd+Ps2rNISEzFvc8UhJ3Nhmp4EG6Ew9D8qNupLkpWeIDLo8BMd3sXuyVNBXvX/IQS5UoAOYQNsmnBBszruQCNxjVG9TbVkJySjIioCJHaQedaOnkdxOboy5klgu0keZ9E4MYIsAVs0e4FoZwU2mnES+A2Ek8k4+XSbRHwpuGj/R/AotU/2sKXpmJInUHYtWMvSj5ZEsaZdJzedhL3VrwPKEZbj22EGVGw7ACKPVIEDTs2gUVeQVtkI+F5kaqjZ/0eiFQj8WLPl1C0QlEe8wc2H8DgenGo3aE6mgxvKhbl/cDMntOw9oMNqN+zDurF1ocn0gta+9dIUBgqL1+aAQuapvMbjmw+igHPD0KdNtXQaExTJhT03qNbjqJ77R7w5QzH/ZWL4NLai0iKT0ah5+6BP4cfekBHmBGJFC0N9drVRplHH+S59+3675B8MUl4DdgjQKREhGrTlmf/iQAWDVwEBCy0HNcavru8MGkpgwOjbSiGjdUr1+G71TuhRQK9xvZC5ZpVeKcXbRl1A6ZF7hdaeJDeg3/i3JUEIchecXYLwmIWbcP2a0g+noTWD7VESlgKPj78H2b6ZpoJNU3F1FYzsXfzt5i8ZTq2fbYN8wcuYA9CsTrFYPlFIBNvC/I58TkBikimyUjr7yJy+fQ3p9C9WhdoARWx47qicpsq2L3mBwyrOxwv92+GWv3qsHJNPZyK1pXbIywsAou2zwVyiQ3MVFbA9sNj+XjvFSlx5umGhX3rDmJYzdFo2KUm6o6oK7ZypRu4+MMFdHqhM0pWLIu4dwdhfMMx2LfvEGZsmI6IvBEwDZMtL/JSkDWg0jYN2uvt7C3nNUbTRuBCAPUfaITw6AhMWDUOd5cogM0L12FujwVoNJ4IQg0MHzIKpR8ohVqNakKNoD3VYgOa2B5FloXYJy0/EoHQIEAUlMarkwuASDNvS9RgmxYT+XalOiA5LBmrjq7k+WylW1DSFcxoMwNbtmzD7DXTsWfjbszpMxtDpg9FiUalHC+YAiWMdjDRlmXKVSLc7DRVAqoJ3VJxfucZdHqqEwc+tn6lDZ7t+Bz2b9yPuNqDUTu2OhoNe4mNkMBxP16u8hI84dnw2o550HJQsDJtjxY5EjhkieeKCIQkMs4EodoQQRBeaczTxggYSPwpCe2e7YAiDxfGmFVjMLXpFOFB2DgFUQUiYRpEOmg+W5zbgQwU02/j3NGzSL2QjPtK3ieMfb9j9JMAIQ/C4SS0+b+2TBjmfzUP2YtGC++H4F3uHknxHH3CATtcBE4K/8Hl3C1cWbm8EJohHuJSJEEIFlBaXDPIWricySzxl0S0Kdca6XoqPtj/ES4lX0KfVr1Q9YnqOLHtOL7fthVTt8/FLztPIe7l4WjcqyHq9quL9R+uw39e/xB9pgxBTLEcnJhFow2BtFMCAdi8OE9Wh4p3R67AiqnvwlsgHEt2vo4f1/+IuAYj0bBnXTQY1ABGmoE+tfrht2O/YdyycchX7g5n75BoGFkyNmVuC4j0aORiJVf+zxv2YWT9UWjUrh5qxtXG1k83Yc7khejSvDPGDxiPko+WRNzKOCzt/iY+/eRjzNo4D9nzZ8crXcYgJnsutB7RGnqkyPJI+5kpswMtL+hkugSAT+Z/hLf6LoXfA8StGIpSlUvg68XfYGbvGWg0rhFqtqsBI9FEn5f6IUfOSMTNGw47wtnRwBzD4EQ10osQ7ACV9wWDAGcT5eBf2klIeUpUDqAj0px0OgUdH2qPZKTh/cPvISmQhD4v9UWVRx9Hwo/xWLdlPWZvmYNzP5/HkCZxeLFLU9QaVg2bV23Fews/wbBZfRFVJILzklD8gUaeQFqXVxX4FRthacDKUe/ivfHvA3epePPHpdi/aT9G1h6C6l1qoNHwF2GlWOhfcyB+PX4GI5eNRoHH8gN+ThICm7YtsIWuwjbEDinXU39k6xEMqj4AjVo2QK1R9fDNmm2YNW46ujTrjAmDJ6H4o6Uw4r04vN1/GT5e/immbpmCmAIxGNt1HHJky47Wo1pBjRTJzLhczq7Ie5hFXBFv2yYvKiWFUnBm+2n0fb4PAraNCf8Zh7sfvRvQxXYpsTVSJF7L+Li5IILpJHnPPwYBSRCC7QrDxrY1O/D2a+/j/pL3QtMtaIaGU5+fxakDJ1DsyWLIXjIHbPIE+DUcXXsMh48cwvRN05F0OhWdq3VFozZ10TiuMRb2eR2rl3+AhgOaoG6vBsKTYNLShXB1ijynImXbL9+eRJeq3fFSh6aoN7gufvhqD0Y3GYlm3V5Ejd418MGrH+Ld+e9i1NwRKPRoIRYYZw6dxjebtqPWizXZ0g/4A3h9xhs4f/QCct8VwxHb9kUL6xduxj133Y1CzxSAN6ePrRdvYhhWznkfZSuVwuAVQ7Fq8kosn/02Zm+YA583DC2rvAwrzcCE1ZNRqPQ9LBREEDIJXU1kUkwDBj83GId2HkDTgS1Qo/vzgEfBxlc3YGbP2XhxXDPUaF+DLY7EY4noW7cvIj0R6DdnAHKVjoGqk/CjLRBOWulg+0jeJxG4CQKcB4EUnh/Yue57rHjtPRQufjd0Ly3t6Tj95Rkc2XcCxZ4qitwlcsBreGEFTBxdcww/7/sRM7+eibSL6ejyTHfUaVYbzSY3wZK+i/HB4k9Rr2cNNBncDH5dbG3UDZHwiDOd0lC2LZz5/hw6/DsWTWNfQqPBdXBg80HE1RqG2p1qouGghvjitS/x1sxliJs3GIX/rzAvW/y6/wK2b/gW1VtUhx1mw0wxsXTOWziz/xRy35NbJDhLULBx/nrkuSs/7n36Ps5rQqIkPFHHqjkrUZQI/8dx+M+0j7B8zApM2jIJUdkj0bxiG9ipwNj/jMS9FQtzWSrtsCAhxPzASRfNWVM1mKbFO7kOfLUfQ6oP5JwRj71UBfV71mMCo3jEvgWxtKI5iZ7ksLxdEZAEIeies2DxFmYViZcS4fN44Q3z4f0B7+OdhW+j9+yeKN+sIgcE0prl+Bcn4qfNP2Pa15Ph8/hQv2x9lC3zIIa/NRKtHusALVLD7PXT4MvlYQvftlTs370fRnJAZCHj9MwKkAKc3Xka+crkB3wKTmw9hrfGLMG/aj6DByqXwPhhY9F3WC9EPZCdBQIlSxsbOx5J5xLwr0b/Qqfx7eENI2EhMigmnk1AdHQ00i/68XLF1sgRlRNT1oyFt4AHmurBbzsS0OHJ9ihVoTiGfjYMX736FeYOmI/Za2dg77Z9mNV3Gl7s2Bg1htaHHU4xAwYHINpkhhHBCQDb3/8Ok1tNwD0P34Wx/5kARAp367rX1mF297loMa45qnasClMNQA3o+P7j7zGu5TiOmxizaizuejgvoNHuDhKzMngp6CEqb7wpAhyjSE4EykRGywCGgqT4RHi9Pni9XrwzZAXeX/AuOk3pgsdergSdgu7SgKnNZmDbpm2YuWk6soVHoEGZhihV6mEMXzkY7cq3AnwezNwwE+ExPpGuPB049MMBBFL9TpIjUwTl+oFTu37FXUXzQQtTcPq705g/5FX8u/b/ofSTZTB+0ET0HNoVOUvmZHc/WesTYicg/lw8KtV9HJ0nd0JYNCU50FiRx5+NR3TOaAQuBdC2fDt4InVMWzcDkXeE8zIjLRm2e6IVHir3MAZ+PAwbV27EtA7TMfXLyTjy0xFM7T4bzTu+jFrDXoDtE0swJIs0DqYSGRWZUlF+BMPL3hbFtLFu8Tos7L0AXfrH4q1V72Dqp9NFMCUZDJxuWuxIcs90yLxQKPOc3HSY/mNukAQhyK4w7TRxYItfxyezV2HZ9PfQplcbxB9MwOJFSzDi7TiUerYEu9cpz9ErL43Fvq8PYMaWycgeE42OVbvh1x/PonNcB8waOh2dp/bEE82rwFJpq6AG029h97Y9uHg+Ho88Wo4PeKGzGsQZTyLv6fuTVmL19E/gQzh82cNRoEJhdJnVEQgjgmHB9qh8vpNGLkmyAjw2fLnCofI+aBtWqoqez3ZBlDc72nVsh8Gd4nDHnXdh0qYxGdHT53f9itinY/HQY2Ux4JNB+HnDjxhebySGjB2KTz74HPuP/oT538yFGUXJ6mnvMi2PiH3ZnLvhoonuT/XEb6d+xfRPJyHmwfzCPWkpWPf6OsztNh/NXmmMGh3Jg6Bw6maPX8frfRZh9ZzV8OaPwqRPJiBXyRxuntkge0jeJhEIAgHTgEnGsW7zerhu+7BqwQdYMfFdtO3WBpf2X8TS15dh2JtxKPFCSZGz3ACmtJqGrzdswdyNc5ArXy70rNoTx3efQNcxXTBz4DR0ndoblZpWhOoVbnmasju+3oULZ86jUpVHYRt0/oCTZ4CWC/zAp7M+waoZ78ET8EGL1nH/Y0XReXJXIIq2ShqArsE0FOiGyNVAxod+Rzh0jx+a7YGdoqJvvX6w/SZiO3XCiI4jkKtADCZvnJSx9HBh7wV0eK4jSj5UHMM+GYFD2w9jQI0BGBDXGxu+3IK9P+/HvG9mwoxxzpBQFKTTeSmaV2Q5pENjaPmTzpYxvCKIMgVY2H8hvnhzNaZ/OA2vdB+Fut0a41/NKsNQxUFXnAmW9oqoHLEkI4mCGJr/xFskQQiyVzhhKO3xNVVM6TIF29/ciVrdqkNL1rHs1WUYs3gk8pW8E6N7jkS9WnWxedU32PntLszcMB3RuaKwZPgSfPbaV8h3d17odwDjyLImWUKpTb20vudkYeR4HXECIh+mQpzetpF6IhWxT3VEhQLlsGvzLtRt2RCffPMFYkd1wIPPFuecC4ZGmZBU6Cod3nI50RDlLCPWbiYA3Sp2xcWES5jx3gx0q9cZ+fMWxsQvx2Drxm+xYt6b6NQ8FoM6DELpCmUx4ONBSDmSiJaPtcG/Kz2N7du/QbXYqqg7kIIanUBISnZEBzpZfj6Y6rNXV2PuwPnoMqYTnmrxBODVM+I21r26FvN7zEPTsc1QnZYY9AAfGEntTD6WiM6VOsK+qOCuioUw9tPRYpuZjFEMcoTK226OABFpCiIUiX+Yehsq5veeh/XzN6JalxeQw47Cm3PewuAFQ3DPY4XwStcxeOG5F7D7y++xafN6zFo/Fzny5MS7o1dg1cwPULBYQaRnMzDp8wm85ZeXBumYFo4nEjkJTTsdquJxAhcVUExgypFUdHsmFqULlsaOrbtRu0ENrN35BdoNb4+SVR/i+UwbB0QOFOdcCMo6yi5/5yyDdKDLI51x8dxvmPn+bPRs0BsxufNg0upx+H7zdry5YCk6vNgNfdv1xYOPFsewD0ci6UQKmj/yEp6u+CS+3fktXmhbjRM0ZaQ691IwM6V5pqgoOq1SxB1woiUmChaUBBUdK3dkT+q8jfPw9ozl2Ln1O0z/fCbsCBF8yDGHNiV18sr4w5sPzH/sHZIgBNs1FBrAZwrY6N+4H058dgp9F/XC4e1H8faC5Sj1ZHFEForkID013ca5b+Nx8sQvGLJ4ED5d/TEqlaqMyZ2mw0Q6ui3ogYr1K2Du4LmIujsaTbo24aNgKZUqERFK0CqyCVKWEVpzVDDq5VE4d+QcOnePxcTYsajftRGMaAUrlryLuR/NRHiBMJH/gI6kdcqiHRfCCqBUzhoCFwx0f7Qrb3kau3wMWlVpBa83Ag/UKSqSJ5kaolLDsX75BnZJPtzmEZw7cwq/bvkN2z7bjlyFcmDqV1NhRpto/XRzDJk9Avc9eB9MiseAjeO7fkHHqrGoXqsqOk7tBMvrZ8HIaVpNYP2i9ZjfYzaajHkJ1TtUR8BHgY0UvuCB4geWj3wTn0z6BJamYea2achZLMY5fCbYTpL3SQRuhACtjlMaYDofwTnl0ABGNB6O/Z8eRI+F3XHyu5N4Z94yFHmqGHz3RcBr6PCk67i48zccOnQYw9+Mw8drPsOTZf+NyW0mwm+nInZeNzzW+FEsGDkfWqQHLfu24OBdPimSsily6mHKlUx0Rr0dAAAgAElEQVT/VYAkBSPajsa5n39Bj/69MbTVMDTt0BjePCqWLF6CmR/MQfb7yINGXgPD2YYpDmWhOAmxrxgw0y3EPtwBEZFhGLdiIto+1QG6paF4nSIc5BumhyEiJRpr3voSZR4ujic6PI1jx04iftclbP5oM3IUzoaZa2cD2YGXnm6BYVOG4L6H70OAd2o5lr+TDZH0PX1PwZfHPj+GPg374MF/PYi4t4fh+O4j6F67G9r364znOj4r4iTofBlKfkY4ywDF23ZaSoIQbNfxbj4LSFPQ4tGXEThqYf7GufjPa19g+eJlGLYkDqWfKcXM306zMaL6GOzb+ROUvAYmvDkRSWfTMLTRcChqABM/nIT8D+VHmyfaoWm3Jni61VNOqmI3f4pzRCpnIAS2LtmKSf2noee07sgWGY6xTUehYe+GqNmpPl5+pjmiPBGY8v40ePP7HOslIBKWEO83TZGAyNaReioVHcu3xQPlS6DHlF5o83g75Lk7HyatGcfJW2wrFSe3/Yo+L/RBvjvyIU+VfBgwpT8W934T6975EsWqPID+b/VDqpWGFg81wty1i5GrcE6QzLISAhjWYghiovKi58zusCIVER0uskgzQdj46kbM60kEoRmqdawOv9eEl85wcLK3IRnoWj4WZ06ex5iPR+G+/ysqCUKw41PeFxQCZNf7EYCHM5OqsP022j7eGgkHkjBnzWxsfnsHli54A4MXDcCDNUrxLiAlGZhYZxx2b9kD9R4Fr7z+CvwJFuLqD4NlJ2PMB+NR4KGCiH2uK2q0rIoXOrwg8prQsgK5Cyg9MZ3joFEAM7DzvV0Y2W8cuo+ORf48dyKu4RDU7lgfDXvUx4tVX0ak4sH0D2fDl9dDxz6Kg42cfdYap2+mPYyAeclE63ItUOTB+9B3xkC0+3dH5MyVA1M2TILls6DqKo5uOIr+NXujQJ48iHksP/pPGIJ3h7+PVW+uQpFK9yLunThenqxfrgkWfj4PuYrkFG3mPCRCHnEUAp0Mr9jwpCuY/uJUbFq9CeNWjEfhfxXm3V2L+i/Ex4s/xIzPZuPOCncKbyZtwvQrUD0iPkl+bj8EJEEIss84d7uiInDWQOzjndidPm/rXLw7/h28uWg5xi4bg2LPFUOAhI9fwcBqA3Fwz2GMe3scIsMj0PPFnqjxbF1s2rAROXJHos+UAehSvRs6T+yIig0rignEGcycpQFyIfgVHNx2EH0a9cZLrVqibv9a+GHDHrzScBzqdK+NhkPq4dzBc+hatQvyF8qPycumQImh7VCUqpXckWI/Nh/TalDehmS0fKg56rWui9qd66FNpVaIuTMv74k2w0igAHu/2IuRrUcjMjwSc76YjfXvrcfrkxajb4++GD1qCF7s1RLRufNgyrAJ+PDQKljhvIEBE/qNQ/6Yu/Fip6ZAtM2nO5OLUiRlox0fKjYu2Iy5vWajybgm4iwGOv2OT8UVKampvZM6T0TSxSTEvTFMLjEEOTblbcEjIKaYOGmVBicF93V6vAOsVBsLdyzCu2Pfx/KFyzF00WA8WL00DPKO+YGhtfriyPZDGLp0LLLH5ECPxj1Q45k62PnNVmgRCoYsGI72z3ZE7ISOqNT4MaSnpfGuH0v1w6AYHFOD7ldxZOdR9GrQA/VeaoBmg17EgS0HMKzBUFTvUAtNhjXG+ZMX0POZrsh9Zx5MXjEZyCO2ElM8kThenaqtsyfTPGOhScn6qNG0Opr0fRntqnRAdO7smLZxMpCNSImNAxsPIq7ZYET6wjBn9UJs/GQ9Fo16A3169UHcmGFo0eUl3HtXIQzuOwwf//Ih7Ggq2oTHTW/qHqBGEJtA2u5UtHmuDe4rey9GvDsSdqQ4rfXSiXi8XLYZ7r2/CKZ8PA12XpIBJrzsQZFLhcGP0H/WnZIgBNkffOqgZePSkXjEVuqC4g8UwSPPlkPa2QAHNY1YNhwPPF+CgwQVA0j5NRlbP/oWFSuUxeCuQ1CkdFF0HtsJP6/7EUNbDUf5+x/G7l3fo8eSXihbryy76PlwF44YppzoCg5tOYQRHYejQqWKaD+2PbzZPdjz+V6MaTAODXrVQe3+ddkN+eOWvRjbfjwiI3Og/dCWKPN0WbHcwOuYFBxFddKxdto6zBs5DxWefQx1W9RCXMv+yFswPyZumAKDEhrSfRR9vfMw8kTnwe6tu/Hq9IVo07clHq/+BOb2mYHtH+xAnpg7ceDUPrz3y3tAFDlsbez57keULllKbDqg8yFoLzi3RhxwQ16CjQu2YG7POWg8vgFqtKeTKGlrpBOApZhsJZGFROvCdBy23OUY5OCUtwWJgLNOSLE95L4HkHQiEZ0f7Yz7C9+L0k+VgZ6s4fUFryFuyTCUqF7aOWhIQerZZGz4cD0qP/oEBncfigJFC6DHmG7Y/80BxDWLQ7mS5bF7xy50mdcFFZuU56RGREIolTgtmel+4Nj2oxjRZgTKlCuDDtM6wBvtw4H1+zGwziDUiyWC8CIT5Z+3/ISJ7cbD582GFqNboNyzD0H1ia2S7tGs5FDYOHsLZg2ciseefwQ1W9bFqDavIFfe7Ji4aQLMiICIXTC8OL77OKJ9kfhx5z7MnTIfHXq2RaVaj2Ne3DxsemsLCsbcjZ9O7sN7p1YgLTKdow90JgjOke4kkywFyb8koV+1vrhwLh5jlr+CQv8qyKfa0hKCEjCw//MDGNViDEpUuB/9lwyEnYsuqSI9s/zclghIghBkt4kTYm0c/fo4etfsj0kfjMWyOUsRHh+F9Zs3Y9Sy4SjxTHHy5LNS1vw6jmw5iikDJqNSjcfRqFcjWB4TWoqGL19bj6VDFyHNn4xOc7vi8aZVHBcc7zWAaig4ses4hrcdjlKPlEV3imwOE776Pav3YHTD0ahS7zHEzu4qMpTZNnat3oU5vWbj4ol4VKpaCS90fAH3lLoHEdnDOeCRtmeOrT8OCSkX0WpgW0weMg2X9l3AnYXyYeL6iVxOQDOh2xqMiwY2LF6LVe+tQvtRsShe5QGR4vW8hbHtR2PXmt3wqwG8+cNbCL8rDKZKwUyKE/xFhISCmcS+b7J5OLuiH9j82hZM7zkHzSY0Qs321cXOiUyfjDMdnSjwILtG3iYRCBIBOkSJPIEeEW1vA2e/O4Oez3bHmOVj8O6CFQhLzY7NazdgyOKBKFmrFHviyIVOJPjY7uOY2GMyKj9bCU16NwYnKPUD619fhwWDXkUgzUKHKe3xr5ZVYNBOA4oHopNUTQUn9xzDyNYj8GCp0ug2vRsQbYJyNh1cfxiD6gzDozUroMf87jzP6WCzn9b9hOk9ZuDsyV/xSLWHUbNDbRQsWQgROSlFu8lnI4yvNwG/Jf6K9sM7YnzfCUg7kII8d+fG+E0TYBNBoDOfbRVGkoEv31iDj9/9CG2HtUbpJ8qKREYXbUxsPwm7Pt2FFE8Klu5dCt9dHj75VSXvI89dWipRkPZrGmb3mYktX2xHr7F9UalJeVhhFIQojldjIyRZx/vjVuGtGW8i33150WdmH9xTtiBsn3PgE23/5NMhhUeBUzJneCqC7EJ52y1FQBKEIOEmVUdbGF8fshibP9qGV7fO5fXLMbGvYPun36JchbLoOa47wotG86D/dvUOLJg6D1MWT0HEXZEwPCKyV6HjZQNAytkUDOo4GA9ULI52A9qJGACaOOnAkc2HENu2LXr07Ytnmz4PK8KGRmt6poofPiMPwmg8VusxdFnYDQgXDN5Ot5F+LhU9XuiGhMNp8KsWUmNS0HZUC9RsVg3JpwJoVLYRhkwfiEfrPYpfj5xDh2fbQ4vX8VKHJqjerQ6UaHHU8rj+k5A3Ry60HNiSCU+GIich4Ae+X7Ubo0eORNysoShZpSSvkdJzvBGDcrfDhMfQOX+7ZdIWRwJZweqZn2LJ8GVo9EojVOtU7XcEIciukLdJBP4kAhSsS9n+NE4TrqUrWDZsGVav+BSLvn8DVqqFyT0nY8uH61HqobLoN3kQIgr5+MyEHRt2YdLYcZizdA6y35FDuM3ds8xZgaZjeOwo3F3yHsSObAuL5jtpwQBwfOsZxDZvh659OuHZ5s/B7zWge/2cUv3g6qMYXGMwKtQqh96v94UR4Ww3NBWknkpH31p9ce7gRQ6s9GdLRfO4ZqjXph5SfklBs/LN0HdcTzzW6AlcPH0RHR5vDyTpaNC1Pur1rgNQ8icAk+MmIHt4DrTu3VYcFEXHOZi0lVHltM+7PvkBw4cPw7CZQ1HmiTK8Q5ozuZLyptirRBtxjYbg8I8HMXj2EBR9rqQ47ZX3NtN9lJfBwSOdgo2X451JK+DTfXi62bNo1f9lKHkVJlQioNkSCdU4xfKf7Er52C1BQBKEIGEmwRI47UfjKk0wdtoEFH3uPpGGNN3GgQ0H8OrkBfh594+4M989yJErJ8IiwvBMtf/jnQmqoosdECodg0wCivKdK/j56H5cCFxAy57NkbdAHtCev+kjpyP5QgqadWqCu4sVdDKTiUAlSpP8039+xJiGY1C+VkX0WNQdNp8Mx/ughCs/WcPOT7/HlvVf48XezRB9dxRHAuz4/HsM7zAMSze+iWx3Z2NPZeLpRKxdvg5vLVwGJd1G7ph8iMoWhXuL3IOSDxcVZzco4cI60NJ5o5Npqjhx7Bek2MnQ86lo0b25QJCPYyRjiyK2TXgsHRfPxWPRpMU4su0wsivZcf7AeSReTEDswo6o0qiKzIEU5NiTt4UOAU61zOsLNqzTJppVboohk4eieI1SgsCnAfs2/YRXJy3G/u8OIE9MDtx5Zz54tAg8XedppCIFutfHMT2UBshQA3y8MSVEOnzsGH6zLqJp52bIXygfk4NZY+Yg8WQKmnZqiHtK5ueAXo4hoO2CtoVDXx5GXK3hKFu1DPq92Qd2uMUHwXHCIdoFkKRj9+ofsW71BrTs3QzZCkfwPPxh7Y/o12IQ3l63BNkLR8OyFKRfSMOat9dj2dzlSIlPwl133onskdlRqFAhPhXS8tLOAnA8hFh+tDhR1PGjvyDVTIEnjwfNuzXnwGA+sj2gYN/X+zF2yDgULHg3usR1QgxlbiSvJUUdc0CH5mRc5KOv+Dh5JQnY8e42TB04HYFEE2Y2A+XqVkCHkR0QGeODTtTJot1NLskSiZXk55+HgCQIQfaJHQA2rtiAFQveweT3pkLPKU4444yHJjFx4PC3B7F70w84uvcojp44ht8SzuPi+fMU/gvFFAcw8WmKFvnWVeQulgtjlo5GzsI5oVoq3l7wNko/WBolK5Rky50TDLE/js47oHVAG3s/2YWRL49G+ZqPoN/CPixIyE4g8sAntNJUsygPukiTyq68dGB4u9Eo99hDqN6yqsP+yb1HGh1IS0zHzq924tC2Qziy7xBOnz2O1EAyzp+Nhx3wQKd1RMMPrx0Gy1Lh9wVQp1M9vNzrJSjZnOAptjqEJ4HqooklTNjpwI5Pd2H2wNmc3ZEslN4LeiMsDx19GST48jaJQIgQsC2T3dy0yWfzu1uweMqbmP7xDKg5aJzTnBZKEwEVh7cdxt7tu3Fo50GcOn4OFy79hgvx55FOB7LxOSF0CBPFzFgciBtzfwxeWTIWee/Ly0pz6cK38OADD6J0uQdh+dI5/wGdq06pl3kVzbBw+KtDGNhwMMrXLo9+C/rA9BjQbB0Wn3FCSdRETA79LTZE+HlOjuowHg+UK436barCIjKh0xwVwZfp59OxZ/Me/PDNLpzY9wvOnTyPlLRknLl4ljM50nIhnedAcUHUCiIONVrXRMt+rYBIlT1+R/cdw/uL30f8hXhUb1gDFf5dDjblPNEpx4o4IVYsFVDdDN6eTcxCs+l54V248PNveG3i6yhWsihqtq0FMxtlh6WjoEXuE4ufpYwUVJ4kCCEa4iEtRhKEYOG0gCUzlqFm1erIViQbu9E1clXadMY5rb/TOj9ZBeKoZp4vlIXN3ZXAbnbg2PcnYFGIv2EgskAEYkrmhKFZ8JL/jZ7ziNMdLcpgpvKuaXbj8fq8pWDje+tgxgOV61SGJ6fGk5bWCHk7lWPIK8RWmFeQpaQg4VQiFs9cgq7DOpF8ylgH5FtoSYAsFZqgdKAT1Y1dBU4bBOfAxV8uIul0POdlIIJQoNQ98MWEicOgnOPb+GQ5knxOW8mbwEe/BzTsXv8dEn+5hCr1n+RT72R6tWAHnrwvlAiI1L8UBBzAkjlvofrz9RB9XzYxf03KReIkInIzjTkkmtItZ5xoKJbUmQQc/+4EtDQVlteCN58XeYvnZeucb3Duo5MX6RA2JeCBQunDaU5YJivJLSu3Iv1iGh6vXQlajEcEOVu0RdiZV4bCW5Ypp0nADMBnhyHhbDwWTF2EXiO783wmGUPpnd1zXPjtxNDp/VTvgFi6zNhNoADxJ5Nw6fQlUFrJgDcVBUoXgC93BJP6vTv345t1X6Ne/TrImS+7mKsaLR+KgGSSFZS3RbgAiMiYIqaBrrBMNAQBomOdiWxR/Tj+WvxOsQcUiO2KCg6OduRXKPtalvXXEZAEIUgMaWLw8a0UmaxRnjFOZyTOTXAsYZ73nIpFRDDT4Wb0YTkhsq+KiUFz1SB3AlkeIjUrMXpX2ZKbjj6UplQINEp4ROSD1vrE1kE6cElENF8+q4A9COTiozvoFDlx4j102upoAIaXEhOJA2TElimdUyCLStowdLIE6G+d656xO8k5nY23ZzhPk3eCyiI5KmIKxZorey6oFF5jFB8+wpoeJblMWSOdPdZBQi9vkwiEBAFnxkDjOARykVMwrUhQppKLkDIF8pmkYjy7xyqzUqR7WRlSkiUnv4eqQCd3Pa9aUHpkcQSzOMyYFLQ4hZGe4eyClBqRdCQRZ8sjMiWSHcCWuJj0JAfEnKEJIyx9IQTEGQe8N9gJCrS1FOG1g5frJtrl5ElQbHJsMmF3z38jRc5ZWqmlps7HRPMmI83k2CGa0RQbQN5K99xmUvhu6mhqDpfhnLQgGiO+ow8vXThCQyR6EwHbJltKGidNoiUO4XkgVOk58trQc9KdGJJBHuJCJEEIElCaVhTLLNivmMicdpTOkqdJ6kTlCrrsuMvoOln/PEndCWDx2r4KivanpQYiGFQmTSQR+UTX6DeTBZYC3RZno7kRPRwc5CwnCEYgJijVQzwv/nLNHFbYNm09JGJDk5SEjaD1biIUDmFwjYJM8VfMQVzyz1aNIAJCADjkyI1GZsklYhBIsLD8YXwcQcXyjYiLiI6WIiHIwSdvCx0CrNwz0v9cLlcVJraYg2ImOfH5rMbEE8K1zkqO57Pj+ud7BQlw73LHttgoSFrYeZVqCMVo6/ArKrwOqRbRgJfPcSDyIEoUlMUxC2Cz3DHEdmBOnqSyLCD5pLLlTqSCYhzoO1cGiOv0Xp0NBCFPbMvxUGZGly174frkenNFhOIXhIMQYiuE3sj30PIC73hwyIwIVragk/VgaULWOATASasg+oBlELX58vXQdbQsKRQISIIQJIrMddkVb7JhwBHKjkeBFjQpiJFzpHPkrzNB1QC734W44dAcJ6JfuPZNssJZ0NCSAE1Kn2Nu0x5mmo1CTHEiIRJBjhdCJBZyMytZMFXX6qEpKwJ+XBEnBJaoG/kPSDXrDtHhic8RiHwiFHsjWH4y4RBWE30hEh0K9kDznAkIu0VIqDnuDnaRCI8Hb9W0FJgqLcPQmonIS8/nTRB9oOBHueYY5MiTt4UMAceFYGmkIGkN3rGAaRrQ9hxHFQuvHRntQjXzfHemmyC74j80jtnT4FBd3rbHE44Iv5ispJSF94HOV6HyKETRYMUbIA+E6/ZzFbJrgJBngwIp6aeQAs7RyTSXAnQwO3v9OCGaO+eY+NBLnf3DPD9JjoiTGfnDXgyag0Iq0JxkEeA6PNgTIIKeeVnTsRrY80lchN0eIvkZ5TphicLrB85R9c5p9XSeA/si6X7yLFDWeCehIuEkgqMcTiUJQsiGeKgLkgQhSER5OrGAEScm8lxj9zodz+zkDGTFSheZPjimNy9OOMt1zhocu/loP7YulKbjwuc1RLIQMoSQUNw8DW2FM7LRX+4Spxs7IA5wyTBgXM+fMJS4TiQISG4Ja4OtnYztXkIciuNYRP50MXPFwSzuhwIyqSyRq0DkORBkICAsB1e4KiQAhYeBT4BjVyoJZLJw+PQZZ31S+g+CHHrytlAiQIeWMRkX6+X0MTgYkD5iyY05O62p07GsDkkXFi+trzv61iEbpkZzmSxzir+huescd0xeQybMwpvGXgNnnZ1HvkUhPxY8DpkQK/vuWRE0hzihinDh08mO7GkgazzA845Pc6QgZj63heSLxnEUZN9f9s6JHVNi1UP4OLhpzBuoPs43Dg5s6fN7HFKS4QYhokIznfdfiCVLqq2bQZm9I/SfgLOESudcCEQpKJuXL/mcGZE5nZdo+GwHvgM6YxXKTpZlhQoBSRCCRtLxtQsNKwgC/1dYEOIroWwzHHuXPXxXvEV87W4cvtHMcBW0WDRw33dlvO9Vz//unZm+uKJiLDUyLUW4b3CDCkQ76JOZ7IhvxDW3uMvu1Ez3X4WHcGs66eukMAh61Mkb/xsIkFNckGIx6oUl/PtFL7F056jVK69nmhxCLWdE7LjuNed+d5b8Xhi48UUuub5cG1L8zlzh12eWA2Kx0627K3OEJHIjIDJhlqmeV8olh+FkWroUT11baImyRWHC63k1XG55Qj5ciaWIh7qMpHAdOFEX0pf43xjiISpTEoQQASmLkQhIBCQCEgGJQFZCQBKErNSbsi0SAYmAREAiIBEIEQKSIIQISFmMREAiIBGQCEgEshICkiBkpd6UbZEISAQkAhIBiUCIEJAEIURAymIkAhIBiYBEQCKQlRCQBCEr9aZsi0RAIiARkAhIBEKEgCQIIQJSFiMRkAhIBCQCEoGshIAkCFmpN2VbJAISAYmAREAiECIEJEEIEZCyGImAREAiIBGQCGQlBCRByEq9KdsiEZAISAQkAhKBECEgCUKIgJTFSAQkAhIBiYBEICshIAlCVupN2RaJgERAIiARkAiECAFJEEIEpCxGIiARkAhIBCQCWQkBSRCyUm/KtkgEJAISAYmARCBECEiCECIgZTESAYmAREAiIBHISghIgpCVelO2RSIgEZAISAQkAiFCQBKEEAEpi5EISAQkAhIBiUBWQkAShKzUm7ItEgGJgERAIiARCBECkiCECEhZjERAIiARkAhIBLISApIgZKXelG2RCEgEJAISAYlAiBCQBCFEQMpiJAISAYmAREAikJUQkAQhK/WmbItEQCIgEZAISARChIAkCCECUhYjEZAISAQkAhKBrISAJAhZqTdlWyQCEgGJgERAIhAiBCRBCBGQshiJgERAIiARkAhkJQQkQchKvSnbIhGQCEgEJAISgRAhIAlCiICUxUgEJAISAYmARCArISAJQlbqTdkWiYBEQCIgEZAIhAgBSRBCBKQsRiIgEZAISAQkAlkJASUxMcHOSg2SbZEISAQkAhIBiYBE4K8joCQmxkuC8NdxlCVIBCQCEgGJgEQgSyEgCUKW6k7ZGImAREAiIBGQCIQGAUkQQoOjLEUiIBGQCEgEJAJZCgFJELJUd8rGSAQkAhIBiYBEIDQISIIQGhxlKRIBiYBEQCIgEchSCEiCkKW6UzZGIiARkAhIBCQCoUFAEoTQ4ChLkQhIBCQCEgGJQJZCQBKELNWdsjESAYmAREAiIBEIDQKSIIQGR1mKREAiIBGQCEgEshQCkiBkqe6UjZEISAQkAhIBiUBoEJAEITQ4ylIkAhIBiYBEQCKQpRCQBCFLdadsjERAIiARuDUIKIoC2w5tpn4qkz6Zy3V/d69lbh1dU1UVlmVB0zT+mflDz2T+LnOdr1We++7M9bjefX8EZaqn+276mbkemdtAZbrtud573TbRffSh9tHv1+qLzPf+mb6SBOGP9LK8VyIgEZAI/I8i4Co1Ukj0+/WU0tXwXE0kXGVJ912LELjPU/mBQIDfQ8qfnrtaybllu0rWVZi6rsM0zQyy4b7HJRLu/YZhwOPx8HvcezL/pDLcvzO3161H5vf+0WHh1sXFgf52yyOeZFnXJl/uu6mNVG8XG7ccqjN9Rz/dOgfbV7/rO3lY0x/tVnm/REAiIBH430SAlJOrfP6IcryZt+Fq0nC1xX0969e9j8onhUhKk/65Sp2+IxLgegZc69y1vl3SQc/Qfa51T8ra6/Xyd1e/O3NdM/9+sxGRGQMq261bZkLiejt8Ph/8fv81i6S60z+3vi4hoLpQue5zbv/8Gc+B+2LpQbhZr8rrEgGJgERAIsCKMiIigq3WlJQUVkY3+1zLW5BZIboKOfN3pPzc7xMS4qEoQiFe65PZhe7zefne9PR0xMfH809StLlz585Q9K5VTYo4PDw8o1y617XA3bp4PEQaTHbhuwTEtfKJUFxe0hDLIjf6mOaVRCMyMhInT57kMqKiojKWFdx2Ut0OHTqE/Pnz/67YsLAwxv/8+fPImzdvhmeFnqXnLl26xHWmd7gk4mb1u951SRD+LHK31XM2bHIJ2oDrtHKHtA0FtmJCsVVc/i5z4zJPTAtQnDU+W3xvK4Byk2VImya4Tc9ZsOgltgL633UHpXPh6mKpjja/3xYvpZc75fCv/JVoh3ifaK+zqgmL1v64DLrPgmJb0C0VZkZVqE30BOElKqHAgmJp/Bu/22k/vx7XFloZGHEFdC6DCqQ+EPVXxS0KuUB/j4PTFL4iMOBe4ucyt8ntT0t126oyLKqtwqL2wYJq2zAVqj89a13ZX4rllE/PUY+4byOM6J00LuiNV7fTZiwZH6eT3LpSG6kseteN+vdy34qyFVrLdgvjPqI+MLlO3GeMv4MF3Uqtc14qxpLoM426CNSnYpxYqmiV+N6pFfe97owjk/uRcOI+5uFJ16kdmjPE6B4qlQaO6DP6Wwxl6lu6IrC1r5hHKrdJtI2wFuMo89h0sRV9JeYH1YfGsSiXrHNUvWEAACAASURBVN/LozjzmBBzgPC73P6bzcW/IrZImZHC3bt3L9LS0lCiRImM4kiB0vXMH9c6d1399CwpVu5FZ7mAfrquclf5klIjEnLx4kXs2rULjz/+OCu7a1nrrkeDFCNZzkeOHMHPP//MZcbExHA5BH+lSo8hKSmJv3cVO5Gd9evXI1euXHwvva9IkSKOx0FhMkRKXNc1fj+1kepGxIj+uUsgbh/S37Rc4ZKNzFikpaVkeDaoHCpvzZo1uOOOO1CwYMEMr4y7dEPvXrlyJZ555pnfdRk9e/DgQZw8eQrlyj3MdSFsXVzdn1QfqovrUbheTMONxoQkCH9lxtwOz2YoAQ88pgmTJaUKK2BBV3QWSKZCriwNXlYJFkBC1bRgQYOi6CzgLNuE7vHAH0iGCgu6JwymqcBUNWi0TkcCkkSVJhSRYtkwFBseeBEgYWoa8GgW0jQbHkMoEZXfb0DRNBgBCx5dg20ZgAmYpOB1jWUgK1io0EwvTCUdikeBHTCgqToCJqBqgKkKkhNQPfAGTIQbdMFEuqawgrc1C35Vh256uM2Gkg6PFUBUgK6pSLNNKKqH28aYUNthQLUD8Nk+rlNAtxDQaR1UgW7RO7mlsC0FHk1njFRNgWUajj62YVth8MAPy1ZhajoCdjo01QsvNVMl4SVUD0ixagoQCEDXVARIUQRMKLoHphmATyMlrsHmPrQRRvglpBEbgBmuw/Z6kUqQka4IqPCpFpT0JCiWBSs8O9JUjVQoTMWG5mBqqSZM1YZieaBZKjTbgGUqsDUPDNUArDREqmHcHm/ABgJ+2B4dAY+GdE0XitVRbDQVTFJq0KA6BIH7jaxBw3RIGbUV/H6D7yUlKIiEQnhTH7Cu88BUTNjeADTCwNKgUydbBlIVEz7VBxgq/DpTAOd9NHb9iA5oQMAHO9JEmuWHwTrLhs+gcSz6TEE6PKaPR1XAZyJga/BYJhNoGj80Jql/NYvqocFW0+BXAZ/lgU71Mkx4/CZU0w/To8H0RMGwU2HpCjQa037qfxW2HgnLMqHbfjDW8EC1dHh5itD8MhAwbe7jcCKr6SlAuh+2LwrpPqofYZLKM4tg0dOo3hZsXxgMDxAgEgWvIAlMNm9O1v+MyHIVMyk/+meaYpnBtfJJCZFyJ8s2NTWVX0HXSRknJCSAlGN0dDS71E+dOsVKnMoUxEFF9erVsXHjeraIXQufyialR//KlSvH73Vd5q5F77rOSWEmJ6dg27btfF/x4kWv8A6QUqf6kMI8c+YMK2VFEWRn9erVqFChAivZHTt2oHLlymyd04dIBxEhUSfg3Llz7JkoVqwYXycLn9pCeFDZZM2XKVMGn376Kf99ZYCgiUceeYSJiM8Xxp4OKi8qKgJeL8VACA+D20aq20cffYSnn346IwhRtEGD1+vL8JCQ94FwTkxMxM6dO7leVF/69+STT+L773che/Zo3H333X+m6yEJwp+C7XZ6SFhmpFxIcJNSEgLHw3/bMFgQWhpZSY6y4ohbGwHFgqko8HKwDCkSHRo0eGwDtmUioOnwqxSsZEMNmPCCFLxQQkQUDPihqR6QbiFbiFQuyQQvvZcsh9RkWGEa/B4f1YIteq+VDjJ4LXiYmGimYy3SO8iiJFJCSs7ykipnHcMTESTgSbnb8KSk4vjaTbijSCGo9xdEuieSBT5Zt+QxEOLWgCfhAva88z6KlnkQ4Q88IIgRX3OsYDI97ABSftyP4wcOoHi1akjPmQt+Vtb0LmGWknKlW9latW14HAVJClODBzCSYHkJaRW6TY0jJU1Wvo/b4qGW2H62Mr3pJhTDRmo2n1Cq1EZLQ5jlgxJIB6FqEEHwp2JzrwEI83iQq05N3FPpCSA1BXaYTkjAF38Rn/Tuh0LFH0Sh+g2g31cIfl2BaqnwWKL+hgoYRBiJ5vDYAI0KGKYBVdcAw4RmKvCaAZxZ+gaObViLsEceR9kXmyNA7ktFZ0xZKBEhoYhydg3QmHO8O7YFHxEm+lYlq5u8JwrI68Ftsw0oJH0t6n/2C7DiJgFuKjQ2dWjpCqzzp3Fo85e4/+lnYOW8CwEiDIrfIbhUno0ww4/fvtmFhL2HUezflYHcOQGqF7E7xUMqFjAswJ+AY+s2IcfdBRBVtgRSwrKJthPU5H2gNV6bSAI1hixeGnNEvjyA5YcvNQGnVr6H81/9P3vnASVFva37X3XungwzzMAQJA0gOQcBBRFFURQDqAgimAUBiSoqmI8RURBzRkSSgoqgIEFyEpScZhji5NCpuqre2v+iPdxz733neN85913vol2uAbq6wr96an/729/+9g9cMOwBEtt3Iuxy4HLoOERNrwCmQcgKIHhZ9oUjotgkudu6aeF1unBGI7itSsJuNy7DRWTrdtY9+xTV2nei7qD+JKXXUOjX0lzqexbcvI49r79OyjX9aNi7L5VVktXvp7Afivs4y479K55OEvAEAEhQW716LTfccANLlixRAVQClwTdTp06sWjRIhVY5ffg4osvVplucXGhCvJxlkECsAAHWyvgJDs7m5UrfyQpKYmGDRv+nhHLdv+3Gr+8J4FUzm3Llq2EwxF1HJ9PSg12ti8/JYMWUCHBdOPGjYr5cDhcKov/7rvv1HnKa9OmTQosSOAX5qFJkyaKLZHPulx2l4BcmwTbc/UEsi97G1v/IPuU4Hxud4ElycNZ7YDT6VKBfvfu3WRkVFX7lHMVJuNcTYWct+xPPldZWamOaR/Do9Y1zpDIGsh7hw4dIi0t7Xf9hZQnNm3aoK5bmJH/yus8QPivrNqf8DNOCdyS1UgGpAkj4MTtkBpbkIAjgDMcwYjpZ4loMOUXz+Omwogo5kCyQEnGXLpBxd6DaKUlpDbOAb9XZU9Ow0H0RDGF+/ZTvWtnLPm8FZYYg6YeBMIqyMPaB6ZB5b7d/PT083Qd8wD+ju2JeJMJhKMc276JaEkBluG2n80qSjqxXMIIxFR2KdmbNxSyM3+3S2VxijIWJG8FqfzpBw5+9wPumtl0fOYZAhe2wBRqUwNvTAK7tBnFcOflsun6QZjRCAc7tSeUIKBDDuoUklcxIr5omJprfsYZDpJ6yxCaTxhHpU+gTpz+t+lpuwBg4orpisEQEIDTjSEBwyHvR7FcbsyoicuyaW0BQpbmxjQkEzeg+AxHPppLeWEBOQ8Oh+w6GC6PAl1+3eS7Ga9RN6UaF15xGZI4brtjKGcOHqT3rHehUVO+G/kA1Vo2p+XQYWg7t/HTiJHo7gBtp79K4KK26C4nbsOjQIIEaJuit7NPCfCytk4jgtvlQBcmQXPi0iw8lSEqZ8xk15vTSbv1VhpNeJiI36fAlGTYitY+W8ISkBZTzAT4YibRokJO7NyJFtXte2A5FchTGa/6XxgeDY8exW1EiFkW0YBPAT0EeGl+nOVB9n7yLtbhvVS/rA85o8Zj1aiG5bAzUEXraxb+UIyjCz5n37NPEalek7IGjdHVd0+++251bMOMUKOshISf1xFLSaHriy/h6dJFMQcSZOV3I6YJmJY9G+paHKpMJN9DE48Ah+07WTd0GK6KcvRBg2k3agTulCpoehRHqIxoRSnuallEPMIgCECQnUXUeglI1BwaHvkeFpXx/TOP0bVff6q0akds+3bWD78Tf81s2n7+AUV797L8yafpNuphqrfvyKEZr1D00bsUd+pCz7+8TGXNugoYuYR1UwyOS7FAfy0k/vMeVPHgtmLFCjIzs2jdug3z5s1TAVUCVZw2l3+79NJLVSCTwCcBtqiogNatW/9eXhD6/MSJEypAO51uReWvXLmC1NQUlZ3LvwsQ2bx5M507d/79c/+REl8+e+rUKbZu3UaPHj0VYAiFKhVTIcBDAq4Ezvr166vzkSxbgmhWVg0FRDZs2EC7du1UMBc2QI4vLIGAHtle/myzIx71U8oUqampf9OKaIOHeNlBGIQ4QIh3GMh3UNgkAQYul5uCgkLWrVtHu3Zt1H537tzJBRdcoAK/BPTu3buzePHif1N6aNq0KbVr18Hvt8sPXbp0UdsLYBEwIOcqDIpikjRNsTZr164hKek8QPjn/Sb8L9yTquE6Yr/Xm+XhK488eb669TCuokIin3/OpnnzCZYUk5BejQ79B+K+8Vqi6UnoTj8+KRVo4A4HCS3+mpWPTyY3tQrH/ElE/Q4SyytoVllJ1VAldQfcxobTRezes5OIz4uhx6hZWU6tykoq/UnsCbjxxyyqhUPk+jTufG061Zu2xqk5OPHLFkL5x6nftovK/hRAkGgjAEGy3ZhJePdBNt8/jAKHkz4vTcPbsvXZMqAEFeGvDSly2rWHlCRCHqHFXYrFcJnCiggAAF/uYXZdNxC330vjRV9ipdpZsbznUjVpC8rKOXjtTZTkH6XVnC+xWrQi4pbs36FOzyWHk/88JommzuKXX+eXhd9i+hIoswxMjwNNB48EBSNKtVCQ6uXFnEhI4XTATcjtxTTdwpfgiZRTLRpRhfLQBbUY/fq7GFVTVLnFHY3iPnyEZQNvokpmEm2nv8XuMQ+Sd+Qoved9TWz/Xn6YMI5A5+50e3YaxbNe5sj775DQqw85L76AmeAhrJgWEZZJ9q7qDGeZJVtvIGyAeTyXRI8by5NEZWIyDncUTyRGcPq77HztRepMfYLMWwbZGbNk3KL5MBXRj6myevmTjltivwUew2D9l/OpV7sWGY0aqvKWup+yeEos4oTycg5Ne578rxdTnlWPK995E6ql2QBBNjKE0TEgXAr+ZKzkqkQ8XhvUqKehAAWLQBCOz/uEY1PGU2PAEGpPeBjDn2gzV8JoKP2AgTMvj+W9e3FBp040eHEa4YwsxVjJeetOKVVJVi7ZvvX774084IUJCJRXcHj8JPSvvyWrYyeSn3gCkgP2dcWcHHnvLX75YTnXvDwNq20rwtJupzlxnmWcTCW5kDKbjieqcWLGDLbMeod2d91N9UYN2TR2NFUuuIAG731A3pTH+HXtalpPfYrMTpewdNAtVDm6h5y33iTxkksJOgN4DAuXlIY0k6hL2uRsxuOf+YpT+VJKkPp+s2bNSU5O4YsvvlCUfEpKigpkEiCFQRBaXIK5BPpdu3YpgCCZ/bl+BRLY9+/fT3Z2LRXU165drRiEVq1aqbq51OclkEsWL0Hv3BZAtYJnuykkiK9du5akpGQaNLDZh3Xr1ioGoEePHkrDUFRUpNgNOaYEYqHfGzZspAJx/CVMiLALwmAIeJFzkmPk5uaq80hKSrBZMMuiZs2aKtuPd0fIwyfeBRHXU8Q7KeLlEFPKY2fLL1JiKCkpZevWrVx6aQ9VWhEgJecYb32U61q4cCG9e/f+3cfBbvcUBsGtwMPVV1/NL7/8okobcjxZs3hpQ861T58+bNiwTp1/48aN/51HxD/yHTnPIPwjq/Qn30YeeFIDtbNe+4EudWC/YcKe3Wwf8xAJe3aSHJWHYwzdqVHhSCDSrBktXn8WvV4OustH1DJJ1KOwcAEbH3mYmmPGU7v/TeB3Q2kpuZMmUbzhZxo+8xf07Do4T+eT2LoNJCRS8c0S9j7xGA37X0/yhLFYvgS0WAzDq2G6/VIlVs81SxMqVgKOrY+QUoUWA7dkqtLfWx7k1ITxFC7/Fk+/vtSf+hTBhCRhb1VWJgFFApVNVztFZqcyTaV1kI1U2cSp6OOACJquvxmXx0ODRfMx01MUvlBE+NnygqO8nCM3DKTo2BFafTGXWItWan1sMRmqZCHb2zEvhicYwThdjCcpAc0nZYIomsuPGYni0MNYS79h3dTH8N54K21HjgYRF8n+VHnCxGHIeTrB4UP3+YkKX+0wcRpRvBUhfhszirJVy2l+732cWvYdhw/l0+u9D/nmhSlk186h5bixkJTEL8OGUPzLb1z8/sfonTshKhOHJcUMHctl0/hK0GnKKkkWKuUcE3PFj3z/1FQSm1xIl6efw0hPUsxP6NvlHBg9muzx48gYNpwyh0aCVMDDUYIHD1K2dQfVe3UnXC0N3enBbXnPlhCEVbE1KlLSENrEbQhgFZ2FlIpMvLlH2HzL9XiLy8mZ9hbubl2J+GVBRSxigwnJ7p1K7HdWn6ECvs3kqG+1lDKiMfK+nMOpxydS8+ZhVB83lljAh0MAjLBnDgtnTMNx5DA/9b+SGm3b0/D1WYQTk4k5BDJL9i3iAwtLtAGmgARhwERv4MAXCRNbvIDtkx/H5Q2QNX4sFemZ6jocbi/evDxOvfQqUd2g2vDh5Ay/g3BiglRPFJOgaGlVqhM4YuEQLc5ve9ky+CYKXQ6uvONONrz0MnUb1sVzz0h+euF5uo95iCqXXYK17yArhtxBQnoi7RbOJZJenajlxmM5cBk6umZguuz7+c96nVvzjwMAe9+2L4Fk7pJNS3ASOlyC2vz58xVAiGfgEvikxNChQ4ffA2pcPLdq1SratGlH7dq1WbHiBxXIhAoXUCGZul0uEK2T7UVwrvbgXDGfUPpS+xdW4NixY+zebQdbARwCCKSc0aJFCwUI5HykdNGsWQsFAgTQZGVlKbbhyJEjv7MJ/17QZyqgIeeQkZGhfsp5xtdDfgqbImsh/y6agHjbpQ2wbI8DYQFSUlLZtGmzuramTZso5kL2fa7oU8CVAIS4SDEO0uQaTp06o65DAJCsoQR/2V7uh6zluZqRn39eS2JiAvXq1fu99PBHvh/nAcIfWa0/6ba2Il1qlFIkkFKBA6eu4aksZ/vdd1Dtp7UEjDBFviTKnRZJpk5G2KRcc1F29eU0eullKlNTVL08MRzEXLCAjY9NpubDj1Pr5sFEPG78hcUceughitetosmsmZSEo6ya8ghpHTrTc8KjFH69iBPPP0XjB0fhvfNewgG/CoRSZ5ZA5TSF1jXRnfbfVX0/nimIEFIHrwSwbb+w9eabVD277XvvYnVqR8zjUwHQc1bWLqSDw7S7BlQ9W2XHQkB4iKnat03LBnJz+bXf9XhNi4q77qEyJVlR26LNsCnlGJ5QmLSZb1FRWUrLuZ8Ta96CqDi2ieBP4riq6dvBSgVAefBLKcVpYhkOvJrUog0lYvRFIuhLlrBh0kN4Bw2j3UMPEfX6lFAwdvZcnWePLT9lfzYIMVQm7orEyF2ymG3TXuPK8aM4NmMGJw8epcnoUezeuYVOtw0nkpyAJzmRzbfcTHKNmjR+7Q3MjAylS3BJ/b2siODx4yQ0aEgoIaBYIYdmKh2FRzdxLvmODRMfxN+2Lc3f+ohIgmRZMSJLl7Dnvvup8+hkMm4bgiU19NJi9P37ODLjdU6v3Yz3uqtp/dTjhLwJWHI/Bdmp87c7EEQ7YZj29w9hakwHfj1M0fRXOfrGa3iaNKP5x3OIpCYRFQkEOl7Nj2noCiSIwE+pZhyiw7A7UJyGBHGp01v4Y5UcnzuPM49MxNOuG6FevYgIeNWEiRCAYOLSIeX0KcrfmkZml87UfX0WwaQkW4yovhdyb0M4nCIo9GAKZa/F8EZAO3SEDXcORovGaDHpMQK9exBxC4p14y0LsveRiZzctIUL77qb9JtuIJacSFT0FU6hlwXM2AoXMcBxyz+L2LGigtUPDCMS1Ol19fXsmDqF2nWy2NmwJbVaNiO7ZRs89WpRvPxb9j75DM1HPkTgziGYLi+6w4c7EiaSdwivx0ms1gXEXDao+We94oE5LvITVb9kwFJmkIAaD0byft26df8NQJCMXYJlYeEZFXjl7+f6D8g5igbB3oeske0IGP+9l2MLEyDZvUPAovxWngMU4m19kk1ffPElikWQkoHX61alAgnAQuNL8MzJyVGAQISIch5169ZX74tIUeh8eQmDILS9UPW//fbbv1nCDh3aqWxdrlE+L8F/7969Z7UImgJHzZo1U4FePi9BX5iVeGAXDYKcu5yXnOfatT+rYF6rVjY///yz0nBIEI+zLHHtRNwvId4ZIQBh69btiikRYCA6EOnykOML8yFlCunGkO1lH/v371MiRbn++Ln8ke/GeYDwR1brT7itPJgl2KqHtKJRI5iWhl9q/Fs2sf/Wa8ksDVGalET1e0bgvepygl/M5sy7H1ElGuZYQio58xdA8wsJeTUCFeWwYCHbp04hY9Q4at18K6a0/Jw+zbHHHuXUhp9pMnMmwZJCfntkPE1uvZ2M4feRP/sTjr8xjSZjxpMw5B50r30+ookQqlhirARm1bpnuTCd0vtgs/wiiPS6NFylFeQ99STh2Z+S2L4LNV5+Gb1mdSKq3O9VnQJKkHa2XcwWytkiNcty4zLPqvMFTAhtLyWG628g0e2k7jsfQNUMBaDOSu6VVoKwzrEhQzh16iSt585Gb9lSlSGEPxfWQOrfQrXLY01a61Q3xVkVg0gmBGSIRkKyX384ir5kMRsnjsNz23DajR1N2O9T9Lzd/mZfsKyJqsGfbY0LxKD0wGGs8nLMSARHeaWqhRc89SQlJ49T7+lniSWn8tNnH2BUBrmqz7XseuEZMvr1JeHmQUr74I7qeMpK2PPpp2z+dR/dxjxE42v6EvJLcBWBoQNv1InzpxWsHjGc1Is603LWp4RMEYtGCK/8nn1330udCWOpdsONlBzJZ9s3i9Hy82iae5jgr4fImvYq7qt6E3R7cYlwSwKtpeE2bKBmODUMofk9LoxYjGRBWMfy2HXzAPx5R6k/ehza3SMICpkkHSrCvjhcOATYxnUeloOYw8J0RlXVye54kPthkBgLcXzOFxx/dBKNr72ZlPvux0oUxbjdXogIQaVef+w4GwbeSLUuF1F3xptUJicqkKFEpaYcTwSjImkRnY6UhiJw6gw7R4+jbPduWj/+OIlXXUOly4npCOGLaYQXL2XVU1PpcN89ZAy8gZDPgz8UVU0auj+AKVodPYJTtBoiwKysIHTkKFakEsqKcUbd+HbtJ/8vT1K1QS2ssY9SVlzE8lnvcFGPbqTlH+Hkz5uo8cyr0LC2+l55dQPXoYMsfXsGFYEA/abPxFu7NsbZ1s6/fVz93rr7X0QQEnQkANesWVsFSgmuEmQlsEsWLuWBr776SmkQBDCcCxCEDRBKfuXKlb87HNpAQOOmm27ihx+WqeAaLx3Ie+eK/OKsRFwcGO+gkMC4dOlSBRBE3S8eAGVlJSr42uLFLcoHQer0sj/RUAjbkJiYrIKqfFYycdlWArWUTM4N0nENgeAWKWVIEBdmIs6u2EHX8bsnxA8//KAYFCkfCGCIsx4CgOIBWnQIArJsF0RNlQtEKCkMiqypCBLjJRU5ngT9DRvW0737xWe7MVzqOmV95fzleFK+kPOXdRb2RYSWNWrUoH79uurZVbPm+S6GP2H4/tefsg0QJDOS30bJ3QyimkZSKMb+xx4m+fP3sHQ3J9p3pu27HxJLDeAqPMW6m26mwZ7dSmGtP/AA9UY9SHmCl8RoDOvLBeyY9DB769Ulv1oaQYdG1coKmuceIyEYofGstzh2cDcnX3qBjk88gfeKfhx45mlOzZ9HyzffIdCtB2GXtJSJql+C09n2S1Hf626Voav6r6jipW9CWiPDZTg2bGbnsDtJLy7gTEoaoRuup+Pjk9ESkqUDD8vlIGqGsFwSkJxKGS75oLAGdvCVl4jOpMQArtyj7L1xAJrHSaMFX0ByhgoMIvxSRzajUBrkwKCbOH34KB3mzsNo0ZyYy07tJfMXwaPLsEGC/N1ut7QIhGUPMWJ+D5Wq90MjKVyJsfhrtkyYiGPI7bR9aAJBUTAL9a1ulGSYThswOUxVX1Z6iGiU8sOHKV2zjpTGjZSOouKFFzA2baLY66Xey69gZGSCO4YWM4n95TVObt9KnQdHoffqjWVEqViyhJPvvk9apw5k3n031KyDP7sGoQQJsJLli4BTw3X8FN/17UVGx5a0nfUOKpXXTUqXLePI6DEkXHIRG60YXbp2J6tnT3wJAYqmTOXo4mU0em8mjt490JXGQwKuzdaoS5O+GdMWdMZE6OcGf2mQgumvU/TuB/grC8mrVYfaj79I9cu7q4CtuxzERP2t1COytnIf7S4N11mdQ8whx9GUOM8fCpM/dw55Tz5O/ZuHkjl2DIbfb/elKLCoo0nwP3qcNVdcQ5ZoEGa+rlgSEfDGRZsCUDW5B1YUr6HhLSti16uvEP1xPclpqdQdcQ/ONm1Vh4OIT0N5ufx47/10GzaElF69ID0dSovYOOUveFOSaTH5CUIpAbvjxrSwxN43HOHokmUkOiBQvz6OI0c4NPFhMgsL8co9fmw8ZlIymjOAVnCGg2PG4PMlUOPFlzHTEyASJHfsOKL5J2l0//1Y3XvgrlEHqlf9lwEEO+PX8Hh8vyvrJcjFVfSSqYtIMR7M4wChoOC0KjFI0BOQIP9LELYpeI8qU6xatVJl+gI84sE3DhLi5Y1zwUF8G8mk169fr3QRAhCE2o9Gw6qcIAyHZM5x7wURPcqf410MAhCk7TFeMpAAK4FaMnHZNu6XID979rxEeSYIuJDzjV+D6sZyeRRQEnZFGAup/cu1ytrIv9vbnu22UqZL4k8QVTqG/Pw8pZOQ48o5C4ASZkCuS65XzlFecmwBL4JHKioqlShRWAphNS6//HLFWggoEQZExIlSVpGfwt4IixPXgPzRiHOeQfijK/Yn2z5uICQZc8Qpwjrpd9fwlxby3Q19abvrNwwjAceD91NtzBiCfjeBYCl5z72Id9Z7SqS1q1tXLn3vfYJJySoLNhfOY8vkyVSf8BC1broBXH4oLuPIxMkUbthMkzdf48CWTZS88zZd3nkb14XNOf7Mkxz6bgmt3/8Ud+uWqpdeiF/pDbcrs5J9i6jNheGQ9jVpzdSULtFjgau4nK133oc//xj1nTH2njxBvclPEmndjqP7dtOyVw/MxFSiHg1dWiKld14UYZqtqhdZpgQRS5Mg4VZrILXvnTfchBWOcKr3lVQkB7DEm0Bl8y6con0IRqmx4isqKkO0eu8z/B06EXHKudpsgTADIsiTLFYEe3K+/liM4h1b2TdnNo179yGlSw9ifPhF1gAAIABJREFUPi/uWBmxJYvYOGkSrsG3037MOIJ+nyoleAwJ0HY2EnY5lU+ArEu8hU0Tal7X8USCFH8+n10vvUgTacGULoBW7TmRnEaTa/sQqF6LVUOGkqFB1oh7qTL4VhxOB0dffJkz775D5uBh1Bo9zs5qHabSOEjAdRPDG4vhystlWd+ryGrflubTZ1C4aze7li+n0cE9lP2wgsCQO6h57/3oVVMxPU5cwSBFox7ixI+raTRrFo4e3YkJ+FMeEtLJIoSMoa5HQIP4azi1GP5olMrVG9jywD20adeFY2uWEc2uRov357B113ayL6hBZqMLMX3J6rN2Z4SshzATwshIG6JdOpCylGIQwhrH53zM6SlPEGvQiMJWbQn53MoPQ7Fnps3SpJ4qwPvjMlxNc2j34buEk1LVexFlIiHfHdvcyi3fztJy1rz2ApFTpfS47Q42PjCcqNdF0u3DiSZXscsS6PhDBoZH7p0Hw9RIKCzAeOklqJVB47c/g4Z1iWjgkwJLTEd3CZ4z8MSiUFLB1smPkLh1G+6TZ0i/oCaHsrOg6YW0GHQr+vcrOfr+++Rj0fX9T3E0vABHRZgVndvjtpx0fXMWZtdORKWj56wE4T8iCf5fGIR4cJbAl5SUomr9EoAkeEoglEAmYkKpm/8tQBCRopQYzi0PxGv8os2QwBjXIPyVCpcEwR5cdG6rY9xWOJ6ZyzElYxahX40aNRXoOHhwvwqQEkQFpEi9XvYjAVk0DvIZYZUkeO/YseN3d8jCwkJF10tAF7Yk7hQpx5cuBgEQktHLdcdZBtmX12u7Fwo7IecvGb/sW8BKvE1RSgx/ZR3A7fao9yKRkBJ+SulBzlUYCAEhcWAg+5djLV++nG7dup1tFbX9KIRpEKZAdA3CvghAkHKJfX0a+/bt49ChA0roKQzPv9dV/P1gdh4g/P01+lNvYT8U7L5uXYyCpF/XMvHl5bHqmqtocSyfCneAmjPfwLqiHxU+J4FoOc6FizkxYqQKeAcvbEznOZ8QzspWorTYVwvY/Oij1Jw4kVq3DiDmTcJdVMz+MQ9RtmEjTaa/zP5la4gsmE/7bxejJXo5MHoMxdt+o8XHn+Jq0VA9qMsO7icxqw5GchK6oAAJiZYHywpiukwlTvcaLiXOy33rLfa9/yktRt6PZ95sjh7cS/Pps3B06s6KWTNxHtlN62EPktisCVGfMBC2C15UjHUsrzJtkmuR0oXSYZjgzj/NipsHUqVGddpMmwYpacqoSehARRFIwI5Y/Hz/cGJuD22fmIKvVm3VzqaLuYnPgyXtktJCirRI2u17Pumi2LCB9cOGUpxUle7TZ5DUtg1OM0JkySI2T3oI36ChtB0zmojbDy4PnkiI0r378LpceOs3JOJPksKITUtKloKBL1xJ8Xc/sP6V1+hz550c/ngmZeUVNJ0whTVPP487XE7D/tewY+1aMjxufBdfSs7oMYoR2T1pIrF5X9LwySkErh9IzJuMYekYDmm88+LUI/iiUaydO/l58K1UqZlFcfduRHxptLryKhyHd3NwzDiyx48nc+gdVEp/vkfHV1rJwRsHUb5/D60//QKjXUdMlwRzMVqS+2ADHWmrFSGm0PcJwhodPc4vI8dRUHyKHo9P5oeRd1OtZjotP/6CUHmMpc88SaNmDci5/jYcWZlEvU50acmU0oMAGk1XIE8N71PWEiYJYYMjC+dy8LnnaTloMNVuGwaJASUUlVKQYpHkS3GqiCV330Wt7u1pMX4cMTy4QhHl7RARpKY0Ak6Mk6f4acZ00jNr0H7g7ZhlZ/jl1huI+Px0/PhTSBPGKQB6ud1lowWUyZSYfWj5x9h22SUkX9SBeq+/Ryg5jahTTJMMvIalBIXCzLjLCtj96ssc33+Qy7r1ZMuLr9Ck60WcaVif3bM/wV+vBklaIjWr12bZ7h1cN+NVfE1a4zh8gvV9elLmdtF73nxCF+Yo4KS8Jf5FL5s9sB0EV69erYJcp06dVSYrdLYERQlYQu/LdvLdjWsQhEE4twZ+ro+AMAcSXOMBPB58/9HLkGPFa+7nfiZehojPN4i/Fz+2nK/Q+/E2TSkdCLsgLZYiboz7Esh5S/lkzZo16n3ZLu6aKMFYwEGccZBMPe4oaXcd2BqLcy2P5fgCBqQVU0oDUloQkad0I8h6yfrFuyjibYtSehCAIPuT8xaWQ65ZwJGwLvJnYUyaN2/++wAnuW7Rb/wjltj/2VqfBwj/6LfwT7ydLVIUKyGvcg+UP/tz81jd72oaHz9B0OWjzow3iF3Zl5DXSVKoAr76hryRo1R99WjjHNp98Rmh6plnGYQlbH3sEbInjCVrwE0YgURcRafInTSRwpVraTR9GkdmfYDj0B4ueOcNRREfHD0RqyRIvVdegTqZFG3dwk+vvUxmh85c/MQU9LRUDBH/ReWXSp7Rwi2AK6QTXLOOzWNGUOeqy6g3agy5d91FsbRbvTELZ6/eUF7M/jkfs/XtD7jk1lvJHHQLekoqYY9TlQAchu2iJmp6YVJ0Q0KMhrMyCEfz0DIyIC1VehHtACKtDCKKElcnqV8XHANpc4o5MQ7s5/tnnuHiO+8lcHFPwgk+ux9fpWy2+sBrGFhrV7PhriGU1KnHlXPmEErPxFVZiWPJ1+wa/xDaVTeSc89QLHeSYkoqN6xm7cvPEAskcNnL0wm0akvE51LnIh0GnmAZuQvmsfKDOfSbNJaUtm3YP/RWTuaX0G32AiK7NvKz6EKSk2j84AjyNm6kqDJKm6eeQfNabL3rAYy1K2g/53P01h2JihuhZNaxSnylQYK7fmHH559TcSSXjP2H8bftSNM3ZkKCC8vlpGT5D/x2/wPUfXQS1QYNIeYOYJjlBMqDHLt+AEcOHKDLvLnorVqrEoxksqI9EAAlplwicJU2w0SRVhQU8suTT3N8zXKueOkFqN2Ab6/tR1ZWOq2/WAjeZCg+xrJx4wkdPkGfJ5/C3bEt4UAipltCoIUWcygdhnIWNEw0jxhSRSjLPUqy3weeZPAn2d4ZPsHIbgiLW52OFhLxgqDFmPKqCC5eyo5Fi+gw7Xli1aph+L04YxZlB3NJSw2gJaRief04Thxl643XqfPo+ukczIx0sYRkw3PPcGFObRK79cJIr4rlduI9cpQdvS4nqXMn6r0xAz05QKVLvh1uPCEDt5Q6CgtZ+dhkQsEYV02ZjHn0AJseeICMDp2o98yzbH/5Bdw7tnIKLz2nPMW0Rx/i9imPE+h6KY49h9h+fV+KM7LotWA+ZWIK5RSPC9tR8Z/5ime+cVGgBCIxFbrkkkvw+ezWQQma8cxZugQkgEnmLp9NT69CmzZtVMb8txMG4xm2tOiJVkAy6T8ipoufm2TrEuj/6jtgT5uUwCxBOA464j8laMZbG6XjIc5UyPkIkyAgQVoe4wFatl+1ajU5OQ1VQI8DIGEuhFmQf5MuhjgYiZ+XBHC5LjmvuNWzBHhhOARwCLCSY4hpUv/+/ZXA8Nz2y3h5RACCaCXks3LeAtBkv8Le2MLHJPVnAQoC2ARsxLUhcj/izMsf/V6cBwh/dMX+bNsrT/uz3vKm92zPdEwBhPV9+9Hw5HEq3D7qzHqN2BXXEHF7SAhVYC5eRO6oB0mJwIFGjWn/5edUVE8nIRLFnP81Ox97hGMNGnO8dl2CTi9Z4Qpq/rIFf0U5TV6bzqljp9i38lua3TUc99Fc8qZMxZOYRMbTU9BTMnGaOi49qgJiSv0GONKrqFqy5RB+Wh6gDtxGEMem7SwbM4lqjS+gxbOP40iqwr7bbqF85z5avPk2xiWX4BJFe2UxufPms/el10iuXo02U57F1aI5kSQXuulQWf36RQvYu3yFKmtIq6JTvCHEBwIfMY8I4QzSysNUi0YJOzROplQlbIpNq4xVjeKT2nduPlrhSUJpfloPv5eW192A7rJnPLgNu9/dLdqFjev5eegtnKlfj36LvqLcl0hiMIr17VdsG/cQeq+rqHnzQGJJKTh0C080hCcmGb2lMua0+jkERRvgcOEpOsPSWa8rL4ouN96Mt1Y6FJawb8gdpLdrS5VHJiqP5X0fz6Z0zx7aPzKRwtmfs3vdZrq++DIEnOwddDuRvGO0+G4perV0VQYQEObHwfHN2/ll4UK6XH0lqQE3y26+mfRO3Wj25tuqbi8MVOX3P7Fr1P3UnTyJ9MG3IYbbgZiGr7SEny/qQBCnClShRo0wnB4Rvqj6vHIVtpw4NdF+GHgrIpya9S47PnqXdmNGULV/PygJ8e2VV5JZI4M2sxcQC6ThcptYJ3PZMnEKJTu3kd3jIpo88hix5DRMr3hyeAiEK5n77FPoJ05Q6dCIaG7bvtvScTgDqgPBbUaoGqykqh7hlC9AUcCvSgBO0amYMbyhCMbufQR0g9IGdblz2mtoVVIVBS2MgwAdJVYkhutEPjtu6k/QH+Ci2XMIZ6ThDlVy6O6RnNiyhZShQ2kxejQRF/jy8tly8eWkXNSO+m+8STQpgZBDnCcdpBkmBTu28+N7H9K2QzvqXd4HLeBD/+kH9jwykbqPPEpin+ugrIyF9w7jomF3ktGmLYtGj6Jnh44kPnAfwfWb2X3HrSRf2pucF16komoVZcP9z2tytB90cVo6njFLsJE6uQREMT8SUFxSUszp02do2NCeY/DTT6tUQJRs1tYPuP+N9bHs99ypixKQRQAo9Lxkz3+UCpdgLP+LZ4G0+knAlYApQVGye3kJCIgDj3O1DH8VEdodEnKdAoDkOoWal33EByMJOyI1fgEHAjqkPCGBXraTNknbhtoetRzvQpD95eXlKdAhJQFhIuR96ZiQNZT2S/mM7EeCurQtyt/jQENKDcImyHWITkHek7US1kXWPw5spKNCgIEcV2Y7iDGUrLGUguQ90TWIf8MffZ0HCH90xf5k29sDhqSuKtmx1N6lY8Bu8dt4VT9yTuRT5vFT++3X0C+/mpDbR5Ioq7+aT96okaREDA42akKbeV8SzMrEHwljLJjP9sceI3vEg1S/6SY74ysqYvOrL6pSRrPxE3CnZ2NIgBeRzfwv2T12Ai5/gPTxo6l6dX/M1GRMqbWrFjgnprSCiUGt5sBjOFQpw9y5lTWPPU5yWjXaPv8XyMpAi0TYPehGKn/ZT+tZM4ledgmmQ2YJWHgrSyl47xPypk/DSkmlzkNjqNL/GiJeCVgWrsoKyvfuJ6VaNk4JFGeOc2LlCmq2vQjq1FZ+BKxaxepJ43HUyuaiTz7H8iqXAEUoqExVlPeqVz6ImZhCxJtARAncRH8gttQmfqkrb9jAxqG3KYBwlRhQJaYQCIYxlyxig3Qx3H4HbUaPxfT7lPWuWFJLa6Uu1sMSvGImhsuNy3Io+t5VWkSV+hdiqbJGlOjcxfw6dQrujm1oMWOaot4r9hzEl1YFZ51aWMuXMee557n5/Q/AH2BP/+sxE5No8vk8YkliMqRjib+9mBAZ0sanYzmdOAtOsfjK3mR26kjLN99V7aSWUJVLl7P3wRHUHjuOjNsHq3vnlgEFe3bz84BrKEyuyjXfLqWyahqaiBEdDqLOqGoVFODlkSJMWQW5c+azY9ZbtLx5ILXuGooV8OM4fppv+vYhMzONtvPmE0lMVa2Dyi/g6BF2TJpA6JctuBvn0OLZV9Aa1iXk9OOSMb75eWglpfiya6LpJsc2r1camirtO0FKKoQj5M+YyZEvPqXehIepfnU/cNvDq+LttOIxIR4UltyDpAyioi+RtjspoyiEY+CTGRr5Z9hyU38iAQ9dP/sCs1oWlBRwcMAgooeO0XD2xzhaNScmtsT5+WzpfjnJ3VvT4I23iQbke+JWOptANMjhdZupVyMbT7VMLI8XraKMPePGEFy9itoPjSV98FCsglJKju4jrXlTxQ7sfu4FfHm51H19GgVLl5E3YQTZ94wkY+RYKsUITIvZZlX/opdkp1LnlgxXsta4kE4CrwSueICUIC1te+fqB+KixHjwl88IxS5mSUKvS0ugBM+44DEeuP/+pUiLpK1TkP8lmEswjVtASyCVQBxv0zwXJJzbJSHHiWsdRPAnQEcYCXnJ+R09elQFZcn44+2XAiTi5ZRzP39uKSN+HcIeSLAWDYR8XsCMBPJ4GST+GWESJLifWxaQ44sAUvQPcl7iDCllhXPnYci+ZY0FZPxtq6ishwCmeOnj76/pX7c4DxD+yGr9SbcVkGBnQy7V7y5B3H/sCKuuuZpmx49R7kqkzpuvY/TpQ9DtUV4H2qLFnBg5Ai8RDuY0of3chYQzs2yzmEXzWf/oZOpMeoSagwdIoR/NjGFWlkNCADMhibAMONJM/HqUwxPHk7hsFaWFpZyolki7L79Aqy+/KGraka3cV50MMoDJiS8Yxdy7j8VjRlM7pwHtJk3CrF4LAxeuUAV7B91I6NeDtJjxGtHeFxPChdvhxSOq8+IKDowbR/T7JZRUz6DL5/OI1qmtHO1chrTcycPfwKuZRDZvZt2Q4ZTWy6HT009TtWkj3CtX8PN9d0O9OnT4eglBr4jcXMqi2Q4kLiWak7hnT07UiDhsr36pM4gBVUpEAMIm1t5+G0U5Dbl67jwqAokkRnT0r+ax9bGHcdw2lHYPjaVSLIstke85VH+8eDlJPV2cF6PiFidCzYpyCvbsU8OSVNYbDHFsylNY+flk3z4Yq3NXKrdu5dcfl6tyjXhPaPn5fHz7Ldz6wAM4clqwsf81eHt0p8W0N9E90lMKYSm3OzSl9/CIuFKOlXeM7668guqdO3Phm2/ZffyWjr78B/bfez+1R42jPCeHBI+L5IjOmcWLKPhqEeZVfWn3wvNEZHStjMg9O9NAils+K4y7IsShuQvY+M67XD7sDtJuuoVIgtSpY/hOFbDkit5kZ1Wh1dzPCaWmoVsitPIQMKI4f9vPz8OGUeVMLuGu3Wg6602i/kQscbSMmureS9nMW1HM7scf5sjy79Eu70PPR59Qg52OvPg8p2Z/SPXHn6XWdddDgp+wLnoG+f4FMc2wsgaXORlR3YnL41DsiiFdJTKci5ia8+A+XsZWAQh+Dxd9NgcjpSrOsjL233ADFaeKaPrFJ9DsQqUZ8eTnsq1nb5K6dKL+jLfQlRhV5jxoeGQ9z5RQfOiAPavKtEg4sJ+9T09VA8uyH5uCVrUqe955Gy27Bp3GT8CbWoWKb79lzTNTueLLRRS8/Sa5cz6i8Zsf4uvaE8vjICqGYHEl4r/gWRXPvOOBNB5gz9UTnHvYc/89/pm4UDEOHv42mJ7LWvyRS/jbczhX2BgHBXHa/2/P4T87//jx5XMSXOOdC+du/x/t61xDp/h1/m1nRnzf55Y+zgUv5wKOeFkmvjbnlmDiwOs/Wre/3e6PlG5+vy/l5aX/xa7YP3L7zm/7/3MFlBGRFVOthW5Dpjpa+EpO822fXnTIO0q56SfxkUdIv/0OzKQEHOVlFLzxJuYr07CcUX5t2Yyeny0knJaCL1RJbOFCNj32ONnjJ1F74ABWfDaXVKK0vvFarIx0KiNRPJq055h4TuWxedidZOHmxN59VGveiNoffkQ0LYWotNWJkEcyNZluZ5p4JHBv38rcESPodvU11B06DD0tmahPdGBu3JUhDg0cSOnu/bSeOR0u7UHYKQ9ee0qgOxrDc+o024beTnneYdo9+TSOa67H8Ignv5QvNBzuML5wCSdfmk7xm+8RuK4ftZ94FJLT0JYvZ/2IEWh16tBxgdTDEzFUkK6EowfZ8tNK2t5xB6V+H15lkyyZt0wKtFsTBSQkRk1Yv5E1w2+noF49rp27gHBCEt5ohNg3C9kyYTzOQTZAEMMoZdusxguLCVDcKFeQk8yfcOGqDBHbu4ei3TvJbNOWyOqN7Hv2cWpcdjnpdz0A5UG2jRqFUVlK2+mv4+nWAyorWD9hrOpmqN2sFVtmvkrm+DFcMPQeyi0Tp1NElQJLIvZ0RzWhUsd54jjfXnk51TtfRNM33lYZtLTGli9byuFRE8m+9wGqXtGb/HlzODFnDu7SQpzVatH8i89wZlRT2bmwC0HcuET8aAVxh8Ls++RTNi34kpseGoO78yWY/gTCDvEFsPAeO8nSKy4nOyudZl/MJZqWrgZiKUsly0FC2KTs+2XsHzmU0kQfvb5fQzQrHd0lttQugYdqhoSrqIC9AweiHz9NwzfewNv1Ioia5D7/LKfmvEeNyc+R3a8/iHOn3LPKQnKXLyYtuxZJTduhJyWo0pMIWtVoZjXLXLoxZBqkhet0ETuu66c6QDrMnoNRNQ1ncSkbu7TDmZpJmy8+J1a/NqYew3vqGOt6diejfS/qv/nWWcOms46mMiG0Uuf4suUkJ/nxpWdw/MVXKVjzI62fnoLZtDVs38GuqZMpbdCQ7m+/iyn+Bvv2sfq222k3ZjwVn7zPwSP76Tbna/TGjZXntwBVh3H+cf7/81n7v+3Y5xmE/2139G+ux+5BF4BgG/CIEYxM1POXFrDjgfup/d1Sok4vxVf1ofGLr2IkpeAsKWHr8CHU2LgWXXNQduvNNJ36NCGvD58eRl+0gK2PTiR74mRq3DwYZzjGihEPkmCF6TD6XszmbTAcAeXA5/phKd888hh9ru7DqrmfkXVBExp88QVGQCYZyqwFeaAJve7FFzU48v1i9s6fS6vBQ8hq1x7d5yXmdigXPnECFLV53oABlP66j+azZmBe2kM5Jgp9K74Dmqar2njRvK/5bflyuj76MLEaNYkI8yrOhzGPGtnrOXqQZQNuJfVMAS3fegXXRT2V5bPrx2VsuOtutJQUDooPusOtRhxboSCuLVvRSspI7HoRPf7yF8yAzZKIRtFJ7OzAIxcJUQtrw8+sGzaEwnoNuPqLBYSTEvDK2i1ZxNYJ43AMuZP2Y8ZTnuCyfRCkq0I8ecVmOm4cJWyPIcBGaP4IbkcMV2k5v943itPbN9Hts09xN2pM+Icf2D3pYVJ6Xkbdp55AS0rFqqzg6OtvEJo/X5VJyoIVdJDgKwN+Am7x2VF2x1JqEOAlRlLScuc5kc/ivr3J6tyJFq+/ayfZ6FSuWMGvd91LgxEjyRKGJRxi9zsfKCYm67LL8DduQHDHHlYv+prLJ44mKEBTnCTPnGHVzLdwxkK0vf1WnNm1cHiSCUv4d8p4K4PE3BN82+dSalRPp+XshYSrZCh2RgSmMRnXLRbfhWfY/PwzJKSmkjP6EQyvtMPGbFZMjhPTCa/+iV/vugurbh06zJlNtGo6nvIg+S++QMFn73GqRScKG9bFcMp9c+I6nY+5Y4uyhm52/0ha3nKDGgkuWbgAE4Fquuq8MAmIVeepw6wfcB2GP5nus79UYFpfv45t9wyltH4jLp/9GZWpVfCKL8bJApb0voQaXS6i1csvEUmUrhQpRUWVc6XL8CrRrEMmDh48wJo7hlKlcQ4XvvyKOreDkx+ncNkyWn/4Fo52HQh5XSScOM6KgcPJqV2dwrUr0Lt2o930Gar9WMSJEbcwhOcBwv/yR/p/6+WdBwj/rcv9338wu7PLFtHJUBc7H9QIRKNEv5zPyXFjSdF1TqYlk/PSKzjbtCO6Zg37Jo4lI1hCoT+V+jNn4O7Rnag3EW84gvnVXLY+8jDVJzxC9uAhqkZrrVjDhofG4gp4afr8cwS6d8YqLmXd4KEYqSl0Gz6YFSNHUqdeI+rNnk3M7yN4dC9FJ0up1bYDIZ8T/cQxfv3+Ry66ohdm1SyiLh8Rl64CqMtKwB2L4KmsJG/gDRTv3k/LmTPRe/VUxkoOcfxDV8FVsnFvJILTEBdDPxGny55FIddvegnoFqHvv+XXUSOo1rQxxfVr02b841hVMtFW/MimB+7BqlmDDvPngeVRwMJyWmhnZ7Zrwhz4kwi5o6q1USZUigBPSjmy3gE9BuvXsvGOOzjdoCHXfDmfisQEEiIhjK8XsH3iJKzBw2k3ZgJhcdiLDy4S10FTmTzbMxikHVCBAxne6FJTIk+vW8GOCRPJyMqk5uDbyJDWqGefpWz/Xlp/9DGeNq3R3X7cUvJZu5Jtw28nKRIhYcBAak2eQjQhmai0fCL0vqEYIldMHC2lTBTFdzyfJX37ktmpC81ffw+HzEEwKimc9Q6735xB3dtuodaoUei+RFwhAWQmpkccKnVCn8xj46Il9H5zGuGqVdQ57F66TLUMNuzWDdPlwfR5Canxy8JYuHAYGoG8Y3zT91JqZFWl1ewFVEgngAhr7UkICjRJ941Tj6n7HBGjHmkBdYowUU3tIKG0kq0TH8G78kfcjRqRPGAwmX2uQHMaHHn+aYo+/ZTqD0+ler++IO6RapiUU3WqKDo6wY8urZROceSU9+xjS4uoABRpt+XIfpYMuoWshg3p9MrL4HGz+7EplCz5igseHEv1m2/GcnvQpNUxFmPfV/PJbt8Rj4zaFvGtlNRUGSCGU/Op6aPeaJQdT0yl6JslNOjTR7lfektL2PbQeLxtW9Di9VeJiGUvFr7yCo6+/Brhd98j5nXQ+J330C66iIjDpwadBR1Re5z4+df5FfgnrcB5gPBPWsj/ybux5zBInVYGMZk4NGn5A78wBf37Umv3AdzRCAWJSUoNnhKLkBIMKk/9ss5daPzeW4SSk9Vc+kCkAv2r+Wx9+ElqjhtHjYF9qDxwhp+mv0F7N5z8fhmVOTl0/uQjCr/6mg3TZtDtjTdI8ntZftsQajZqQuNP38PyJBD88jO27dxN14kPU5HkJ0G1FjpV1hgW0ZjUldUgmAjILAPx9w9VkDvwBop2H6CllEEuuwTdKeFCHsC6ooXVkEBLDIAMVdMXgaaaaGnpON0avhOF/DZ+EmW/7qDdG9NZ++47mFqASx6dhLZtExtHPYhVty7tFnyF7pcJjzLVTxcFhGJflChLMj+3HMOj2vjEgElxNRYkxKJoa9ezadgdHM9pSL8v5xMKJOCPhNClxDBxIk6ZxTB2PBGvCAZR90XaUQNRcWZ0qnJQzGngVNckR07EpYdxRkNoZeUUr1/PmTuNAAAWW0lEQVTP/nlzCW/cQHo4Qq0Lm+IePgzvxd0xRKgYDBP+6isOTn5EMRfJd9xN5siRGEmJVLhlLoEbt9JQRDEt2/Laa+i48/L49upryejYkRazXlPtnqLhz1+yklDxGRpdeyVhfxIxt1e8DjHFJ9/vxSGe+bPeY8+yZXScMZ3yzHScLifekLSYyvXYA7RFc2DICEzRWcjYac0gkHec7/pcQY3qmbT4bAGVGWlnPSXsoY/SmSBOE5YWlJmXxEQb4PBixeR+gkeP4dyzn/W330aVLh2pOWAAS8ZNpsfI+6nWpT0n3n2b3E8+IXvqc9S4rj96gtjcxvBqbqJmDIfHpdwN1Ugdt4z1FfcG6bqwxz9rCIhKwFURxjiei6dGuqL0o7nH+PWm2zGrJtDyvff58J23qWNaNM9pRGLr5vhSM3BWyyDqEy9wP/INkhHlZiyC0+FRxkkJ0nxcVgT5JZxa+iPb5rxPasEp/JEoOQMG4bxxAJ4LL8QQEWJpEUcmP0z0q29ISksj4/330S5sqr6jgj0iWhSnAgj/7F6G/8lPt/Pn9q9cgfMA4V+5uv9D9i31ZaHxZSZDTISAQoFK0NFDWKuWsvf+0WQXligAIRmheAVI6+LBatVp8/o0HF26EHZ6cTnBGyzFXLiQvQ9PpmbfK9lUUERBQoDrxk/EVXCGpXffRc069Wh87/18N3Uqrfr3o9bwuyHvOD/dcgvV6tWn8efvE3W5KX32JfYdPkjXV1+mIq2qGpoUVoOQpC0uYgdcda5ChctAIXBXhjl6yy0U/fYbLWbMhMt6qvKBPQbnr/SqAAIJPsJVy59VXmW4lGCufO7nrHr+BS4dORL/gOvRS4pZ/ehzRI4do3eXVuz/4AOCFzSkzdJvMDypBLUYLkdIZZ0OzXv2rsZwGCKsDKhBS2LfY8ikRJwkyalvWMeGO24nP6ce/ecvIuzx44tEiS3/hs1jx+AYMoT2D41Tnv1OmVWgJv1pBMpCRE+cxFUvk6BbLG1FwCkAxbaldkccuCMm5O9lx7gHKSmsoMNdD7D+7TfQKorwdb+UTo9NIfzTj/z04nPUrFuXqAHRHXuoPaA/1e9/ELNqOpUuA02YGXGBFBsmh4FPN/AcO863V/Umu1Mnms98U9HWcl7+iCyfTenL/TEE0EgJyZSJlTHlCnhs8hSOr15Jl08/Ila7rmoVtccmC26z75A9atp+SQB2yzXln+KbPr3Izkin5ZxFhDPEPVF0HWJQbbfoSinHdCg/bQUebNMlKReB/9QJNo0ZTfHuXfT8+DNcF1QluGkn3059hua1a3NBoo9dixeR+cTz1LhpgF2r98ikTxPDiOFSrpXSTaMgjCoFaA57YJfMvZQ+FjF9Eptk8V5wRA2Mg3v46e47CZyK0fi5x0jte7kSfoaOnWL/okXsnDeHWpqTjGYtaHLXbdC0JUGXuFdqquVTnEKF+XLHIGDEcBSWU/7t9+ye/jxVLmyE78KW/PrZl7g0Jy2fe5L0li058PrrHPhmIW0GDmffB+9Aika7qS/hvehiQok+ZbxkyfCos6/zxYb/IQ/gP/FpnAcIf+Kb94+duuJL1YNVaFtlD2xIVuhVnmu+SAmxdes4+dHn5P/6C9GKEjxJSWS2akfNQYPwtm9HhVcG3niwTF2Ne9469Ulcn35Chc9HRv8baDjiXqwq1dHCUY58/SXZZSWsmv891bt3oem9d2CmpuHY8Qs/3zqI2vUbky0udG6L4rET2b5lHT0/eo9Ik2YYkuXLfAPFBtjiMKG+hRWQ/FNmNrjDQfJuvJmyXTup++KL+K7rrx60f+8ldWSfUNS/7OKbhydRp0N7mo4ZR6xKMnoshu9MIQe+XMCxhV+QcvgQ7oRkqt97H0nZtfGmp6FrETXpTzJYaROVksPJYJRATlN82dl4g0Ec0UrbfEdaITdvYf3I+ymsl81VH3wIvkSIRDF+XM7Gxx/Dd8sttL53BPg9IGO3xY2xoIBVTz9F5bFc2k8YTbVLriYqIEFaQIWWjkZwHS/h0DffsOarT2jToQ05Nw3BU6cBFJzkwPvvEztdQNVWTVnzxTwa97yMJkMGqzR8x9iJVO7YRJXWHbngtkF4OncglpyAJfdVuACnidvQ8Z0s4KvLe9KgTi0ufGMWamiC6jZxqiCt/iz1eeU2KUIGFxCGYJj994yg4uB+UobfTu3RDxINyHTM/zybFUjkFXhy7ARfX3kZNaqm0vqTecSqpxN2StlGw23p9rgtNVBBwrWyuLJdFDUIlJVzfPanrJ31Blc+9SyJl1yB7okqkyZ9xx72zf6cQ8u+pXawkOTuvagmnve1aoFH2lDOKkKlXdLtImxp5EdC1O7cBcPnR5fajnhRSHlOgIIRxlFSwrFF37B9zpckJflpP/Q+vJd2JeZzE3M6cEUt1TIa3bGNPTNnEl6/VrFj9e57gDoDBxNMkumYOk4RzEZ0POEQ+v49bJ47nzO//UbHqy6n+tV9MZOqom/eyLY3XqNxt0s4fPgYh7euo+eY+0jteiXBtavZ8sR4nJaHGtdewwU3XAd1ctR4afETkdd5gPD3ngrn3/97K3AeIPy9Ffqzv68e5GLaa1vN2nP1bPMamX4ovf9eM4antAItEgQ9Am4v+JKIBQKEpX1KDGdEDCZks27iOnOCVaNG0aBjJ7KH3IaZkkpMHujlZZRu+5nl016jc8++1LrtVsyAR/nO+/buZdnAQdQwLWo98xyWESZ3yhOUVJSSee/9NHjgQdViKS2Y8uBWA3hMW9UvgUB894XhcIXK2D1wECUH9pEzdQpVr79RUbd/7+UxDaK/bWfhw1PpesUV1Bl4M7G0dJltqY7llXa7SAzycilYuoS8taspKa6grKyUylAIj1NT45aVI7RDI5icTJPhw6h3ZV/c6Rnkbt3E0g8/xONy4fD6SQlFqREqp8xtcjxBWvK8qsUyIRQkKximwJ9IUSABXQU9A0n8EoNhskIhLCtKQZWq9HlwguoMcOniEHiE47v3sfv7ZWSmJ9Gpfz9cDZuie/2qbz8QjaH/up+Dn33G4cN76ThoKFV79iaa4Acjgif/JDufe5qilSs5kxwg4cor6XjXPXhriXmKgl8y1YBAeSUrR42kUGZpJCYRlNq5Gqlsez2Y4kyoShP26HDRXmhahNQoVCsOUqVKGmb3zrR/8mFCPqmd/9/obgunFsafe4p511xDcmoiPb9cQKxKGkGnT1h8HERt6l8cLS3J8u3JpC5LwxMuZ//8BfwyfwE3jHoAq10XKv0SIGOqLOKX0kNFEHP/bo4umkvRL78pf/zToSC6buE3ZES00PImZTK+unkrOt4xnOod2xGVsol02BgxCIWJnj7Byb2/sf6LL0mKmnS4rDcZfa9CT0km4pOx0KZiGFwOJ6Zu4ROWovA0x196mcNfzSHfn8h1H87DaNoUA+m4KKE49wSH1qwgf8cmWrfpQMMr+mBmZRLz+dFMDXdpAUUbVrHp/dkkZWXTZfgQaJKD4fLjCIVg/SY2Pv80pSdyKcxIp8atg+k09E7VTnkeIPy9J8L59/+RFTgPEP6RVfpfsY1MvNNwiHm90yJiSP1W1OySrTuVy3DYjCiK1S1tYzI1z4oRkzF/4oIns+udHjE5RIvpJIilq4j/3B50PYJHM/j+/XcJ7tnD1ffch1a3PobXTzhUiUdaAiuC5H/0CdtnvknII2N8HfhCUao1a06H8ZMwW7ai3CHCNanFnyU9VFCyxWK2qtzCFwox/8676XlZD9KvvZZQcurvA2r+s9ukQFFxCV89/SwDHngQR7UMwkkBItEoLo+sgVN5HMSUMM3C7zBUvZ+ySigXVsBBdP0GPJZBND+faCSK1jiHwHVXY7gTMYwoLjOIMyqCNy8Rrx+PU0KqUNM6ODxnLWaFCRBTJGFFnESkrVO0DI6YGlmN5sGpOVXvvUFUaRs0v58DmzdhHTxATqv2OBMTiaV6CCekoMV8+DQLvfIUe79fxrbP53NNvxuo0rMnemoyhlhNmzHlSikTJ7VgiOjybykqOEVW32swMzMp89ngwBOTWQkmAfF7KC0BqYtLEBKRpiVeEFJHl3MUTYSABPdZJkGEr6Y9t8KXIlNosDKqEPJLG+XfewlAgOCGbez6bDYXX38NVrvWhPwBZQsuDIN+duy3U8aTK2c/XVlPm6ZBweaNFPzyC23EeKtqJmJtEPFI4cPCr9ke+GpioDBlMQOtIqK+B8LkUFqGcWg/zlCQyiNHqfAFqHZdP7TaDVVLrYqxkQhlBw6x7NMPKdi7l8suvZScSy+HzEystCRiRIlpMq5bDK50NYhJGK+YaCukxddh4i/5P+2dz4odRRjFv+7quj0JkcEo0SjiRqMgPobi0qcQfBAfwJVg9m7FB3CluHPlWiGLYPxDVGIyc7u7uuV3TnVGRHMHFxMGumGYSe693VVf1a1zvv9j/PzZ7fjm66/i/Y8+juGVV2Mc/4hvv/g8bl1/IV58682I/iiW4+fipM3R5Ta6P3+P6cGD+PL27Zju3In3Pvwg8muvKyaoz0cxLCciAddiF/HTj/Hdp5/E2+++E/HGrTg9rhVJD4l+e32TwDkksBGEcwjpsr8FHzyBcG7aRMAebYo53AaBfDelyKpEhsnVLaHRYmdywqkSSGtkBYYBBhCEFF3bx6AQPeClxPDr/dg/eBjXb96MMfcxdl3EQnBhIhUdyhH9MAtEm3YvcJk50bsc45UmHu7QRhtVUWScEAN8wpiWydMn/oDOw32J6E6JlaCeQVa6HON80gVB6Oai9sn7hSjzPsZ2jJKHaJQ33kcnIKUFNQ2jMKy00u5FSxg/wEnZZf4fEtMzHmdPgJyqUBl0LTT4N3KRtDE1VIe8EpEwhZxET42iZYlRfQpSdMyRcMy2+rjJ/MSugcI8EeCXI02jCNgg8767E67BppRpLlSIvHsnbtx4OZprx6ohQHzBJJeSvOvShIXv1JsgALTDuJ/lzsEqgBVJzAzLgPaBZhMtsRHIesHS4nbN8sxDZHAJNaM+phTSIaJNu9hjkVK758NG7qw8XLRvt4aeclIxL1wTWI7c4gK3ExaOuVYC5TM5dpj8NU7qNF6NJu1ViTLRmKmlMBhzJs6hjZNpiT5lBSCKlVAVU63G3UnUPc3oGkl8A1UxS5z+ci8e3b0Xzx5fj6s3bsbcdUq3LXnRbw2w2UUeq4umiRgXOnGyxvvoFRi7i6NyKqKIC4I+FRIvlrg2aY/ZgpNlpaEoVd+U+O2H7+NK08Uzz78Up0dHMWtNyYKY43QZVII7T130fC/GR+ojUlq+jZb5Yclf9lNtG/9FSGAjCBch5af9jMf9GID+rIO9V1OXUQF+ia57BPQZQvQ3P8oGwO+OO6JJyplXKB0AOKfYdyWOyujWzEH0PVolsQ7FAWU4BRprfnSxk3UAfVO59VlarYBIPw4Uc0tm/k2RHBcPUqnohbbN1ApwjMLaRpjeBQK1AxdjBMR5Dul1HMtTR5CdWv9ontSKwN0gL/cMOXLxI4hFy3MhS9VkTtAkYIKpHSCEECQ6ZVLnf25EyJjDBAko9HafFLvgcEpkbc1dpbDdZFixAIAbMxwTtRGwqJggOX4EILUPHiICUAPYnUDb8QAj7XGRstpcm+DQynhMyA5ABIhYH5ooMVbcB6wpYyAjw/9vmeI+GBSEqKwQEQQIJvOz3NQses6xtEMlDJYRFScVs3DgorMh68rY+UW6JLi7Xiyv6iEQCKo+F5A4Z6Uwd8clOJWXoFR+E3/Aj8BesQsOjcRNZYvUJJIFQcCq1rAfVEzMMrY7zkSauXIfuaGKLVz7bqn1EXxz1py15btBECffI5EPET+ew96DlHtPiOywF3ChzMi86J68DkEWQaLLpjp5Mja+M9hFDPvsOV5jTVgnF+iCYDO/jRwc2nPb6+eXwEYQzi+rS/1ODnmyBMjHJkLcwDNKKwckABMOMQ47a4YcinYvWLOhzgB/TTr8CjXfl6T7oM1yuOowlZ+aOHCi+ne6HwGHQJUCzEREOITXvhAGS0iKtDkRC8oOHalxEbn0AJtTtwAmxszhyPjtl3aWxpMu6dCaCwAod0WNkId4jN0cy7xTqWcyPRiLigfhAcdqgZsAczcVH5mDUilNFTLlipEVwZW4YqAvsg5EDGQKUKFwckEltG2BCId/uSrZ8PdUUxzBLoBNwFKnxP+JslAGGGBEOvRuwApQo+ENxABIikl9KQimJFIecwRNpNwDgHVlYCUxLuoUuoIiBAdrzQp05P5DbCCFPAsZDe1Oa09DKhUQSkVgLUsQ7RKbE+0nkZlaZtm1BJ6ky4ou0iRTYAchstUI4lXBvaasIlPmDNGR/ATeACLZDn5NwAth0+teF2eHsK8Izs2qL8Ha5dktv+USYM+KODJXUJtsFFdThMgKhxX7wN7wPU2KWSeeSdyMUzJ5L7IL6jvOJrsKW6njgUAohmKmJbatB4yf7wyy4G/NgZRIbXnGwrpxR97DeCF7Lp3uiyJd3mt2xZ1dtsDUmNJLfYJtg38aEtgIwtOQ+oU+0yZ7wKlXHwJrRCvIob2dHSpVP5b2aMBG81V1Pxqi1GBAl+c1yDvjABKBVmrgBtSsFWYRCA5sXgOU0Y4o2OTSyO5eTyloa73W6tC4DToANoei4xAaNORuFKBhSZB5n7GqBsF/X7aEYD4GOA3SXBzy0rg4nOdc5QCJ0CcEjMw50ZoXsqCmTHKA6DVbJWwTYJ7S9HQYc+h3AlGeJf+/wNzgSWDfXH3s0mY1x3qS67M0yDa42rJjAzvAgxaP7F2YSTYEgaTuTCtjgN4h/3Iv8EwBoeZrmStwUCSHfWHtFtBhjLyXi1sIfDHlLyVOyBQhzx5Xk9bMNR8co0C8wD4SPvmERQAgrdkOB3LyIUdqDQ1h1bOZuWXABUiuwbXso5VuMAZInFwk7L920Pzy1Ne95tRIkU6l95KFQKovbqyVbtp/xJhHqlnq5jzbc2MfF9wOyXsQOYmMGrn9S/YmxuXvmQOC3V9Ea1STJe024Xvh9MkMK9Iaef/M7b5ahGrL8boH3S67poYqcJc6IUOVvUt0Mz++n7b6nJGyv/Pmc3h7LvRU2h52OSSwEYTLsU7/e5SACIdXQmMkla6t4F3z0FetA81pPax5mEyvOmFs8tZhW02xJe2lHTXLDp3SNQCkhVqjlvaMH5f6AypLByAacHzYq86vyIfO2CXb9CpTdlGEulwOciuQ0YD25MA4/k/dFeuhjJan+x24mJ8OUREe5/YLgKXrESeAJioj9xohaRM59SIWiArapIFR8gEAa6wEmiCmchn61U0P8oKWjfl/1HutGZtk4UY5sxCg9VnLY568j89WO4KR7DFY+hkQOsUEtJCEViAuAqXARhMcgY4KDNnqwxpIjgXgwhWxZgRYa5WFwYZ4FyeiCJIqcGLpGWJUvAVWC99bgauap+c0EUwoUGUdGXStX3BgXUQqKYCl+SA5Pw8S5qqfaPBrJo5ns7pNqvdABMHaOO4C9gP+eFs+sApwVywHek51p1Q6ZneI7l9/VLjR7i25nCRjE1+TSm1YycykwA217G5yfIlG2/q33kVAifYpJJH76VP6nPfgmpboYll2rdW00mrLQDZK+yxtDB3fE0iBCcPqFmTfrGml/zSqbQTh0Amxvf5vEvgLv9wK0TtRm+QAAAAASUVORK5CYII=;movable=0;resizable=0;rotatable=0;deletable=0;editable=0;connectable=0;" parent="1" vertex="1">
                    <mxGeometry x="140" y="70" width="520" height="315" as="geometry"/>
                </mxCell>
            </root>
        </mxGraphModel>
    </diagram>
</mxfile>